<?xml version="1.0" encoding="UTF-8" standalone="no"?><svg xmlns="http://www.w3.org/2000/svg" xmlns:xlink="http://www.w3.org/1999/xlink" contentScriptType="application/ecmascript" contentStyleType="text/css" height="429px" preserveAspectRatio="none" style="width:1045px;height:429px;" version="1.1" viewBox="0 0 1045 429" width="1045px" zoomAndPan="magnify"><defs><filter height="300%" id="fso3cqvf8nqmy" width="300%" x="-1" y="-1"><feGaussianBlur result="blurOut" stdDeviation="2.0"/><feColorMatrix in="blurOut" result="blurOut2" type="matrix" values="0 0 0 0 0 0 0 0 0 0 0 0 0 0 0 0 0 0 .4 0"/><feOffset dx="4.0" dy="4.0" in="blurOut2" result="blurOut3"/><feBlend in="SourceGraphic" in2="blurOut3" mode="normal"/></filter></defs><g><!--cluster Vectors--><polygon fill="#FFFFFF" filter="url(#fso3cqvf8nqmy)" points="14,16,82,16,89,38.2969,1023,38.2969,1023,417,14,417,14,16" style="stroke: #000000; stroke-width: 1.5;"/><line style="stroke: #000000; stroke-width: 1.5;" x1="14" x2="89" y1="38.2969" y2="38.2969"/><text fill="#000000" font-family="sans-serif" font-size="14" font-weight="bold" lengthAdjust="spacingAndGlyphs" textLength="62" x="18" y="30.9951">Vectors</text><!--class GeographicCoordinate--><rect fill="#FEFECE" filter="url(#fso3cqvf8nqmy)" height="86.4141" id="GeographicCoordinate" style="stroke: #A80036; stroke-width: 1.5;" width="173" x="841.5" y="49.5"/><ellipse cx="856.5" cy="65.5" fill="#ADD1B2" rx="11" ry="11" style="stroke: #A80036; stroke-width: 1.0;"/><path d="M859.4688,71.1406 Q858.8906,71.4375 858.25,71.5859 Q857.6094,71.7344 856.9063,71.7344 Q854.4063,71.7344 853.0859,70.0859 Q851.7656,68.4375 851.7656,65.3125 Q851.7656,62.1875 853.0859,60.5313 Q854.4063,58.875 856.9063,58.875 Q857.6094,58.875 858.2578,59.0313 Q858.9063,59.1875 859.4688,59.4844 L859.4688,62.2031 Q858.8438,61.625 858.25,61.3516 Q857.6563,61.0781 857.0313,61.0781 Q855.6875,61.0781 855,62.1484 Q854.3125,63.2188 854.3125,65.3125 Q854.3125,67.4063 855,68.4766 Q855.6875,69.5469 857.0313,69.5469 Q857.6563,69.5469 858.25,69.2734 Q858.8438,69 859.4688,68.4219 L859.4688,71.1406 Z "/><text fill="#000000" font-family="sans-serif" font-size="12" lengthAdjust="spacingAndGlyphs" textLength="141" x="870.5" y="69.6543">GeographicCoordinate</text><line style="stroke: #A80036; stroke-width: 1.5;" x1="842.5" x2="1013.5" y1="81.5" y2="81.5"/><line style="stroke: #A80036; stroke-width: 1.5;" x1="842.5" x2="1013.5" y1="89.5" y2="89.5"/><ellipse cx="852.5" cy="101.4023" fill="#84BE84" rx="3" ry="3" style="stroke: #038048; stroke-width: 1.0;"/><text fill="#000000" font-family="sans-serif" font-size="11" lengthAdjust="spacingAndGlyphs" textLength="106" x="861.5" y="103.7104">double getRadius()</text><ellipse cx="852.5" cy="114.207" fill="#84BE84" rx="3" ry="3" style="stroke: #038048; stroke-width: 1.0;"/><text fill="#000000" font-family="sans-serif" font-size="11" lengthAdjust="spacingAndGlyphs" textLength="113" x="861.5" y="116.5151">double getLatitude()</text><ellipse cx="852.5" cy="127.0117" fill="#84BE84" rx="3" ry="3" style="stroke: #038048; stroke-width: 1.0;"/><text fill="#000000" font-family="sans-serif" font-size="11" lengthAdjust="spacingAndGlyphs" textLength="123" x="861.5" y="129.3198">double getLongitude()</text><!--class SphericalCoordinate--><rect fill="#FEFECE" filter="url(#fso3cqvf8nqmy)" height="86.4141" id="SphericalCoordinate" style="stroke: #A80036; stroke-width: 1.5;" width="159" x="852.5" y="208.5"/><ellipse cx="867.5" cy="224.5" fill="#ADD1B2" rx="11" ry="11" style="stroke: #A80036; stroke-width: 1.0;"/><path d="M870.4688,230.1406 Q869.8906,230.4375 869.25,230.5859 Q868.6094,230.7344 867.9063,230.7344 Q865.4063,230.7344 864.0859,229.0859 Q862.7656,227.4375 862.7656,224.3125 Q862.7656,221.1875 864.0859,219.5313 Q865.4063,217.875 867.9063,217.875 Q868.6094,217.875 869.2578,218.0313 Q869.9063,218.1875 870.4688,218.4844 L870.4688,221.2031 Q869.8438,220.625 869.25,220.3516 Q868.6563,220.0781 868.0313,220.0781 Q866.6875,220.0781 866,221.1484 Q865.3125,222.2188 865.3125,224.3125 Q865.3125,226.4063 866,227.4766 Q866.6875,228.5469 868.0313,228.5469 Q868.6563,228.5469 869.25,228.2734 Q869.8438,228 870.4688,227.4219 L870.4688,230.1406 Z "/><text fill="#000000" font-family="sans-serif" font-size="12" lengthAdjust="spacingAndGlyphs" textLength="127" x="881.5" y="228.6543">SphericalCoordinate</text><line style="stroke: #A80036; stroke-width: 1.5;" x1="853.5" x2="1010.5" y1="240.5" y2="240.5"/><line style="stroke: #A80036; stroke-width: 1.5;" x1="853.5" x2="1010.5" y1="248.5" y2="248.5"/><ellipse cx="863.5" cy="260.4023" fill="#84BE84" rx="3" ry="3" style="stroke: #038048; stroke-width: 1.0;"/><text fill="#000000" font-family="sans-serif" font-size="11" lengthAdjust="spacingAndGlyphs" textLength="75" x="872.5" y="262.7104">double getR()</text><ellipse cx="863.5" cy="273.207" fill="#84BE84" rx="3" ry="3" style="stroke: #038048; stroke-width: 1.0;"/><text fill="#000000" font-family="sans-serif" font-size="11" lengthAdjust="spacingAndGlyphs" textLength="100" x="872.5" y="275.5151">double getTheta()</text><ellipse cx="863.5" cy="286.0117" fill="#84BE84" rx="3" ry="3" style="stroke: #038048; stroke-width: 1.0;"/><text fill="#000000" font-family="sans-serif" font-size="11" lengthAdjust="spacingAndGlyphs" textLength="85" x="872.5" y="288.3198">double getPhi()</text><!--class SphericalVelocity--><rect fill="#FEFECE" filter="url(#fso3cqvf8nqmy)" height="86.4141" id="SphericalVelocity" style="stroke: #A80036; stroke-width: 1.5;" width="138" x="679" y="208.5"/><ellipse cx="694" cy="224.5" fill="#ADD1B2" rx="11" ry="11" style="stroke: #A80036; stroke-width: 1.0;"/><path d="M696.9688,230.1406 Q696.3906,230.4375 695.75,230.5859 Q695.1094,230.7344 694.4063,230.7344 Q691.9063,230.7344 690.5859,229.0859 Q689.2656,227.4375 689.2656,224.3125 Q689.2656,221.1875 690.5859,219.5313 Q691.9063,217.875 694.4063,217.875 Q695.1094,217.875 695.7578,218.0313 Q696.4063,218.1875 696.9688,218.4844 L696.9688,221.2031 Q696.3438,220.625 695.75,220.3516 Q695.1563,220.0781 694.5313,220.0781 Q693.1875,220.0781 692.5,221.1484 Q691.8125,222.2188 691.8125,224.3125 Q691.8125,226.4063 692.5,227.4766 Q693.1875,228.5469 694.5313,228.5469 Q695.1563,228.5469 695.75,228.2734 Q696.3438,228 696.9688,227.4219 L696.9688,230.1406 Z "/><text fill="#000000" font-family="sans-serif" font-size="12" lengthAdjust="spacingAndGlyphs" textLength="106" x="708" y="228.6543">SphericalVelocity</text><line style="stroke: #A80036; stroke-width: 1.5;" x1="680" x2="816" y1="240.5" y2="240.5"/><line style="stroke: #A80036; stroke-width: 1.5;" x1="680" x2="816" y1="248.5" y2="248.5"/><ellipse cx="690" cy="260.4023" fill="#84BE84" rx="3" ry="3" style="stroke: #038048; stroke-width: 1.0;"/><text fill="#000000" font-family="sans-serif" font-size="11" lengthAdjust="spacingAndGlyphs" textLength="83" x="699" y="262.7104">double getDR()</text><ellipse cx="690" cy="273.207" fill="#84BE84" rx="3" ry="3" style="stroke: #038048; stroke-width: 1.0;"/><text fill="#000000" font-family="sans-serif" font-size="11" lengthAdjust="spacingAndGlyphs" textLength="108" x="699" y="275.5151">double getDTheta()</text><ellipse cx="690" cy="286.0117" fill="#84BE84" rx="3" ry="3" style="stroke: #038048; stroke-width: 1.0;"/><text fill="#000000" font-family="sans-serif" font-size="11" lengthAdjust="spacingAndGlyphs" textLength="93" x="699" y="288.3198">double getDPhi()</text><!--class Projection--><rect fill="#FEFECE" filter="url(#fso3cqvf8nqmy)" height="99.2188" id="Projection" style="stroke: #A80036; stroke-width: 1.5;" width="484" x="160" y="202"/><ellipse cx="366.25" cy="218" fill="#ADD1B2" rx="11" ry="11" style="stroke: #A80036; stroke-width: 1.0;"/><path d="M369.2188,223.6406 Q368.6406,223.9375 368,224.0859 Q367.3594,224.2344 366.6563,224.2344 Q364.1563,224.2344 362.8359,222.5859 Q361.5156,220.9375 361.5156,217.8125 Q361.5156,214.6875 362.8359,213.0313 Q364.1563,211.375 366.6563,211.375 Q367.3594,211.375 368.0078,211.5313 Q368.6563,211.6875 369.2188,211.9844 L369.2188,214.7031 Q368.5938,214.125 368,213.8516 Q367.4063,213.5781 366.7813,213.5781 Q365.4375,213.5781 364.75,214.6484 Q364.0625,215.7188 364.0625,217.8125 Q364.0625,219.9063 364.75,220.9766 Q365.4375,222.0469 366.7813,222.0469 Q367.4063,222.0469 368,221.7734 Q368.5938,221.5 369.2188,220.9219 L369.2188,223.6406 Z "/><text fill="#000000" font-family="sans-serif" font-size="12" lengthAdjust="spacingAndGlyphs" textLength="63" x="386.75" y="222.1543">Projection</text><line style="stroke: #A80036; stroke-width: 1.5;" x1="161" x2="643" y1="234" y2="234"/><line style="stroke: #A80036; stroke-width: 1.5;" x1="161" x2="643" y1="242" y2="242"/><ellipse cx="171" cy="253.9023" fill="#84BE84" rx="3" ry="3" style="stroke: #038048; stroke-width: 1.0;"/><text fill="#000000" font-family="sans-serif" font-size="11" lengthAdjust="spacingAndGlyphs" textLength="298" x="180" y="256.2104">Vector3 transformPositionTo(GeographicCoordinate)</text><ellipse cx="171" cy="266.707" fill="#84BE84" rx="3" ry="3" style="stroke: #038048; stroke-width: 1.0;"/><text fill="#000000" font-family="sans-serif" font-size="11" lengthAdjust="spacingAndGlyphs" textLength="313" x="180" y="269.0151">GeographicCoordinate transformPositionFrom(Vector3)</text><ellipse cx="171" cy="279.5117" fill="#84BE84" rx="3" ry="3" style="stroke: #038048; stroke-width: 1.0;"/><text fill="#000000" font-family="sans-serif" font-size="11" lengthAdjust="spacingAndGlyphs" textLength="443" x="180" y="281.8198">Vector3 transformVelocityTo(SphericalVelocity,GeographicCoordinate,Vector3)</text><ellipse cx="171" cy="292.3164" fill="#84BE84" rx="3" ry="3" style="stroke: #038048; stroke-width: 1.0;"/><text fill="#000000" font-family="sans-serif" font-size="11" lengthAdjust="spacingAndGlyphs" textLength="458" x="180" y="294.6245">SphericalVelocity transformVelocityFrom(Vector3,GeographicCoordinate,Vector3)</text><!--class GnomonicProjection--><rect fill="#FEFECE" filter="url(#fso3cqvf8nqmy)" height="48" id="GnomonicProjection" style="stroke: #A80036; stroke-width: 1.5;" width="157" x="649.5" y="68.5"/><ellipse cx="664.5" cy="84.5" fill="#ADD1B2" rx="11" ry="11" style="stroke: #A80036; stroke-width: 1.0;"/><path d="M667.4688,90.1406 Q666.8906,90.4375 666.25,90.5859 Q665.6094,90.7344 664.9063,90.7344 Q662.4063,90.7344 661.0859,89.0859 Q659.7656,87.4375 659.7656,84.3125 Q659.7656,81.1875 661.0859,79.5313 Q662.4063,77.875 664.9063,77.875 Q665.6094,77.875 666.2578,78.0313 Q666.9063,78.1875 667.4688,78.4844 L667.4688,81.2031 Q666.8438,80.625 666.25,80.3516 Q665.6563,80.0781 665.0313,80.0781 Q663.6875,80.0781 663,81.1484 Q662.3125,82.2188 662.3125,84.3125 Q662.3125,86.4063 663,87.4766 Q663.6875,88.5469 665.0313,88.5469 Q665.6563,88.5469 666.25,88.2734 Q666.8438,88 667.4688,87.4219 L667.4688,90.1406 Z "/><text fill="#000000" font-family="sans-serif" font-size="12" lengthAdjust="spacingAndGlyphs" textLength="125" x="678.5" y="88.6543">GnomonicProjection</text><line style="stroke: #A80036; stroke-width: 1.5;" x1="650.5" x2="805.5" y1="100.5" y2="100.5"/><line style="stroke: #A80036; stroke-width: 1.5;" x1="650.5" x2="805.5" y1="108.5" y2="108.5"/><!--class Sphere--><rect fill="#FEFECE" filter="url(#fso3cqvf8nqmy)" height="99.2188" id="Sphere" style="stroke: #A80036; stroke-width: 1.5;" width="253" x="361.5" y="43"/><ellipse cx="461.25" cy="59" fill="#ADD1B2" rx="11" ry="11" style="stroke: #A80036; stroke-width: 1.0;"/><path d="M464.2188,64.6406 Q463.6406,64.9375 463,65.0859 Q462.3594,65.2344 461.6563,65.2344 Q459.1563,65.2344 457.8359,63.5859 Q456.5156,61.9375 456.5156,58.8125 Q456.5156,55.6875 457.8359,54.0313 Q459.1563,52.375 461.6563,52.375 Q462.3594,52.375 463.0078,52.5313 Q463.6563,52.6875 464.2188,52.9844 L464.2188,55.7031 Q463.5938,55.125 463,54.8516 Q462.4063,54.5781 461.7813,54.5781 Q460.4375,54.5781 459.75,55.6484 Q459.0625,56.7188 459.0625,58.8125 Q459.0625,60.9063 459.75,61.9766 Q460.4375,63.0469 461.7813,63.0469 Q462.4063,63.0469 463,62.7734 Q463.5938,62.5 464.2188,61.9219 L464.2188,64.6406 Z "/><text fill="#000000" font-family="sans-serif" font-size="12" lengthAdjust="spacingAndGlyphs" textLength="45" x="481.75" y="63.1543">Sphere</text><line style="stroke: #A80036; stroke-width: 1.5;" x1="362.5" x2="613.5" y1="75" y2="75"/><line style="stroke: #A80036; stroke-width: 1.5;" x1="362.5" x2="613.5" y1="83" y2="83"/><ellipse cx="372.5" cy="94.9023" fill="#84BE84" rx="3" ry="3" style="stroke: #038048; stroke-width: 1.0;"/><text fill="#000000" font-family="sans-serif" font-size="11" lengthAdjust="spacingAndGlyphs" textLength="227" x="381.5" y="97.2104">Sphere(double radius, Vector3 position)</text><ellipse cx="372.5" cy="107.707" fill="#84BE84" rx="3" ry="3" style="stroke: #038048; stroke-width: 1.0;"/><text fill="#000000" font-family="sans-serif" font-size="11" lengthAdjust="spacingAndGlyphs" textLength="106" x="381.5" y="110.0151">double getRadius()</text><ellipse cx="372.5" cy="120.5117" fill="#84BE84" rx="3" ry="3" style="stroke: #038048; stroke-width: 1.0;"/><text fill="#000000" font-family="sans-serif" font-size="11" lengthAdjust="spacingAndGlyphs" textLength="118" x="381.5" y="122.8198">Vector3 getPosition()</text><ellipse cx="372.5" cy="133.3164" fill="#84BE84" rx="3" ry="3" style="stroke: #038048; stroke-width: 1.0;"/><text fill="#000000" font-family="sans-serif" font-size="11" lengthAdjust="spacingAndGlyphs" textLength="132" x="381.5" y="135.6245">Vector3 intersect(Ray3)</text><!--class CircleSolver--><rect fill="#FEFECE" filter="url(#fso3cqvf8nqmy)" height="60.8047" id="CircleSolver" style="stroke: #A80036; stroke-width: 1.5;" width="304" x="22" y="62"/><ellipse cx="133.75" cy="78" fill="#ADD1B2" rx="11" ry="11" style="stroke: #A80036; stroke-width: 1.0;"/><path d="M136.7188,83.6406 Q136.1406,83.9375 135.5,84.0859 Q134.8594,84.2344 134.1563,84.2344 Q131.6563,84.2344 130.3359,82.5859 Q129.0156,80.9375 129.0156,77.8125 Q129.0156,74.6875 130.3359,73.0313 Q131.6563,71.375 134.1563,71.375 Q134.8594,71.375 135.5078,71.5313 Q136.1563,71.6875 136.7188,71.9844 L136.7188,74.7031 Q136.0938,74.125 135.5,73.8516 Q134.9063,73.5781 134.2813,73.5781 Q132.9375,73.5781 132.25,74.6484 Q131.5625,75.7188 131.5625,77.8125 Q131.5625,79.9063 132.25,80.9766 Q132.9375,82.0469 134.2813,82.0469 Q134.9063,82.0469 135.5,81.7734 Q136.0938,81.5 136.7188,80.9219 L136.7188,83.6406 Z "/><text fill="#000000" font-family="sans-serif" font-size="12" lengthAdjust="spacingAndGlyphs" textLength="72" x="154.25" y="82.1543">CircleSolver</text><line style="stroke: #A80036; stroke-width: 1.5;" x1="23" x2="325" y1="94" y2="94"/><line style="stroke: #A80036; stroke-width: 1.5;" x1="23" x2="325" y1="102" y2="102"/><ellipse cx="33" cy="113.9023" fill="#84BE84" rx="3" ry="3" style="stroke: #038048; stroke-width: 1.0;"/><text fill="#000000" font-family="sans-serif" font-size="11" lengthAdjust="spacingAndGlyphs" textLength="278" x="42" y="116.2104">Circle FromThreePoints(Vector3,Vector3,Vector3)</text><!--class Vector3--><rect fill="#FEFECE" filter="url(#fso3cqvf8nqmy)" height="48" id="Vector3" style="stroke: #A80036; stroke-width: 1.5;" width="81" x="799.5" y="361"/><ellipse cx="814.5" cy="377" fill="#ADD1B2" rx="11" ry="11" style="stroke: #A80036; stroke-width: 1.0;"/><path d="M817.4688,382.6406 Q816.8906,382.9375 816.25,383.0859 Q815.6094,383.2344 814.9063,383.2344 Q812.4063,383.2344 811.0859,381.5859 Q809.7656,379.9375 809.7656,376.8125 Q809.7656,373.6875 811.0859,372.0313 Q812.4063,370.375 814.9063,370.375 Q815.6094,370.375 816.2578,370.5313 Q816.9063,370.6875 817.4688,370.9844 L817.4688,373.7031 Q816.8438,373.125 816.25,372.8516 Q815.6563,372.5781 815.0313,372.5781 Q813.6875,372.5781 813,373.6484 Q812.3125,374.7188 812.3125,376.8125 Q812.3125,378.9063 813,379.9766 Q813.6875,381.0469 815.0313,381.0469 Q815.6563,381.0469 816.25,380.7734 Q816.8438,380.5 817.4688,379.9219 L817.4688,382.6406 Z "/><text fill="#000000" font-family="sans-serif" font-size="12" lengthAdjust="spacingAndGlyphs" textLength="49" x="828.5" y="381.1543">Vector3</text><line style="stroke: #A80036; stroke-width: 1.5;" x1="800.5" x2="879.5" y1="393" y2="393"/><line style="stroke: #A80036; stroke-width: 1.5;" x1="800.5" x2="879.5" y1="401" y2="401"/><!--link GnomonicProjection to Projection--><path d="M681.7634,116.7165 C666.0265,124.8584 648.2969,133.9216 632,142 C597.8248,158.9407 560.5706,176.8956 526.1912,193.2583 " fill="none" id="GnomonicProjection-Projection" style="stroke: #A80036; stroke-width: 1.0;"/><polygon fill="none" points="529.0373,199.6559,507.968,201.9113,523.0322,187.0092,529.0373,199.6559" style="stroke: #A80036; stroke-width: 1.0;"/><!--link GeographicCoordinate to SphericalCoordinate--><path d="M929.0825,135.5277 C929.4915,151.7891 929.966,170.6498 930.412,188.3751 " fill="none" id="GeographicCoordinate-SphericalCoordinate" style="stroke: #A80036; stroke-width: 1.0;"/><polygon fill="none" points="937.4114,188.2682,930.9167,208.4379,923.4158,188.6203,937.4114,188.2682" style="stroke: #A80036; stroke-width: 1.0;"/><!--link SphericalCoordinate to Vector3--><path d="M902.1302,294.8436 C891.1514,310.7749 878.7689,328.7429 867.9639,344.4219 " fill="none" id="SphericalCoordinate-Vector3" style="stroke: #A80036; stroke-width: 1.0;"/><polygon fill="none" points="873.7067,348.4247,856.5939,360.9208,862.179,340.4804,873.7067,348.4247" style="stroke: #A80036; stroke-width: 1.0;"/><!--link SphericalVelocity to Vector3--><path d="M777.8698,294.8436 C788.8486,310.7749 801.2311,328.7429 812.0361,344.4219 " fill="none" id="SphericalVelocity-Vector3" style="stroke: #A80036; stroke-width: 1.0;"/><polygon fill="none" points="817.821,340.4804,823.4061,360.9208,806.2933,348.4247,817.821,340.4804" style="stroke: #A80036; stroke-width: 1.0;"/><!--
@startuml

package "Vectors" {
  class GeographicCoordinate {
    +double getRadius()
    +double getLatitude()
    +double getLongitude()
  }

  class SphericalCoordinate {
    +double getR()
    +double getTheta()
    +double getPhi()
  }

  class SphericalVelocity {
    +double getDR()
    +double getDTheta()
    +double getDPhi()
  }

  class Projection {
    +Vector3 transformPositionTo(GeographicCoordinate)
    +GeographicCoordinate transformPositionFrom(Vector3)
    +Vector3 transformVelocityTo(SphericalVelocity,GeographicCoordinate,Vector3)
    +SphericalVelocity transformVelocityFrom(Vector3,GeographicCoordinate,Vector3)
  }

  class GnomonicProjection {

  }

  class Sphere {
    +Sphere(double radius, Vector3 position)
    +double getRadius()
    +Vector3 getPosition()
    +Vector3 intersect(Ray3)
  }

  class CircleSolver {
    +Circle FromThreePoints(Vector3,Vector3,Vector3)
  }

  GnomonicProjection - -|> Projection

  GeographicCoordinate - -|> SphericalCoordinate
  SphericalCoordinate - -|> Vector3
  SphericalVelocity - -|> Vector3
}

@enduml

PlantUML version 1.2018.05(Sun May 06 06:00:17 AEST 2018)
(GPL source distribution)
Java Runtime: OpenJDK Runtime Environment
JVM: OpenJDK 64-Bit Server VM
Java Version: 1.8.0_162-b12
Operating System: Linux
OS Version: 4.16.3-1-ARCH
Default Encoding: UTF-8
Language: en
Country: US
--></g></svg>