<?xml version="1.0" encoding="UTF-8" standalone="no"?><svg xmlns="http://www.w3.org/2000/svg" xmlns:xlink="http://www.w3.org/1999/xlink" contentScriptType="application/ecmascript" contentStyleType="text/css" height="175px" preserveAspectRatio="none" style="width:963px;height:175px;" version="1.1" viewBox="0 0 963 175" width="963px" zoomAndPan="magnify"><defs><filter height="300%" id="f13nijdtlk5gov" width="300%" x="-1" y="-1"><feGaussianBlur result="blurOut" stdDeviation="2.0"/><feColorMatrix in="blurOut" result="blurOut2" type="matrix" values="0 0 0 0 0 0 0 0 0 0 0 0 0 0 0 0 0 0 .4 0"/><feOffset dx="4.0" dy="4.0" in="blurOut2" result="blurOut3"/><feBlend in="SourceGraphic" in2="blurOut3" mode="normal"/></filter></defs><g><!--class LoginUser--><rect fill="#FEFECE" filter="url(#f13nijdtlk5gov)" height="48" id="LoginUser" style="stroke: #A80036; stroke-width: 1.5;" width="94" x="6" y="8"/><ellipse cx="21" cy="24" fill="#ADD1B2" rx="11" ry="11" style="stroke: #A80036; stroke-width: 1.0;"/><path d="M23.9688,29.6406 Q23.3906,29.9375 22.75,30.0859 Q22.1094,30.2344 21.4063,30.2344 Q18.9063,30.2344 17.5859,28.5859 Q16.2656,26.9375 16.2656,23.8125 Q16.2656,20.6875 17.5859,19.0313 Q18.9063,17.375 21.4063,17.375 Q22.1094,17.375 22.7578,17.5313 Q23.4063,17.6875 23.9688,17.9844 L23.9688,20.7031 Q23.3438,20.125 22.75,19.8516 Q22.1563,19.5781 21.5313,19.5781 Q20.1875,19.5781 19.5,20.6484 Q18.8125,21.7188 18.8125,23.8125 Q18.8125,25.9063 19.5,26.9766 Q20.1875,28.0469 21.5313,28.0469 Q22.1563,28.0469 22.75,27.7734 Q23.3438,27.5 23.9688,26.9219 L23.9688,29.6406 Z "/><text fill="#000000" font-family="sans-serif" font-size="12" lengthAdjust="spacingAndGlyphs" textLength="62" x="35" y="28.1543">LoginUser</text><line style="stroke: #A80036; stroke-width: 1.5;" x1="7" x2="99" y1="40" y2="40"/><line style="stroke: #A80036; stroke-width: 1.5;" x1="7" x2="99" y1="48" y2="48"/><!--class DatabaseItem--><rect fill="#FEFECE" filter="url(#f13nijdtlk5gov)" height="48" id="DatabaseItem" style="stroke: #A80036; stroke-width: 1.5;" width="120" x="135" y="8"/><ellipse cx="150" cy="24" fill="#ADD1B2" rx="11" ry="11" style="stroke: #A80036; stroke-width: 1.0;"/><path d="M152.9688,29.6406 Q152.3906,29.9375 151.75,30.0859 Q151.1094,30.2344 150.4063,30.2344 Q147.9063,30.2344 146.5859,28.5859 Q145.2656,26.9375 145.2656,23.8125 Q145.2656,20.6875 146.5859,19.0313 Q147.9063,17.375 150.4063,17.375 Q151.1094,17.375 151.7578,17.5313 Q152.4063,17.6875 152.9688,17.9844 L152.9688,20.7031 Q152.3438,20.125 151.75,19.8516 Q151.1563,19.5781 150.5313,19.5781 Q149.1875,19.5781 148.5,20.6484 Q147.8125,21.7188 147.8125,23.8125 Q147.8125,25.9063 148.5,26.9766 Q149.1875,28.0469 150.5313,28.0469 Q151.1563,28.0469 151.75,27.7734 Q152.3438,27.5 152.9688,26.9219 L152.9688,29.6406 Z "/><text fill="#000000" font-family="sans-serif" font-size="12" lengthAdjust="spacingAndGlyphs" textLength="88" x="164" y="28.1543">DatabaseItem</text><line style="stroke: #A80036; stroke-width: 1.5;" x1="136" x2="254" y1="40" y2="40"/><line style="stroke: #A80036; stroke-width: 1.5;" x1="136" x2="254" y1="48" y2="48"/><!--class User--><rect fill="#FEFECE" filter="url(#f13nijdtlk5gov)" height="48" id="User" style="stroke: #A80036; stroke-width: 1.5;" width="61" x="376.5" y="116"/><ellipse cx="391.5" cy="132" fill="#ADD1B2" rx="11" ry="11" style="stroke: #A80036; stroke-width: 1.0;"/><path d="M394.4688,137.6406 Q393.8906,137.9375 393.25,138.0859 Q392.6094,138.2344 391.9063,138.2344 Q389.4063,138.2344 388.0859,136.5859 Q386.7656,134.9375 386.7656,131.8125 Q386.7656,128.6875 388.0859,127.0313 Q389.4063,125.375 391.9063,125.375 Q392.6094,125.375 393.2578,125.5313 Q393.9063,125.6875 394.4688,125.9844 L394.4688,128.7031 Q393.8438,128.125 393.25,127.8516 Q392.6563,127.5781 392.0313,127.5781 Q390.6875,127.5781 390,128.6484 Q389.3125,129.7188 389.3125,131.8125 Q389.3125,133.9063 390,134.9766 Q390.6875,136.0469 392.0313,136.0469 Q392.6563,136.0469 393.25,135.7734 Q393.8438,135.5 394.4688,134.9219 L394.4688,137.6406 Z "/><text fill="#000000" font-family="sans-serif" font-size="12" lengthAdjust="spacingAndGlyphs" textLength="29" x="405.5" y="136.1543">User</text><line style="stroke: #A80036; stroke-width: 1.5;" x1="377.5" x2="436.5" y1="148" y2="148"/><line style="stroke: #A80036; stroke-width: 1.5;" x1="377.5" x2="436.5" y1="156" y2="156"/><!--class Label--><rect fill="#FEFECE" filter="url(#f13nijdtlk5gov)" height="48" id="Label" style="stroke: #A80036; stroke-width: 1.5;" width="65" x="48.5" y="116"/><ellipse cx="63.5" cy="132" fill="#ADD1B2" rx="11" ry="11" style="stroke: #A80036; stroke-width: 1.0;"/><path d="M66.4688,137.6406 Q65.8906,137.9375 65.25,138.0859 Q64.6094,138.2344 63.9063,138.2344 Q61.4063,138.2344 60.0859,136.5859 Q58.7656,134.9375 58.7656,131.8125 Q58.7656,128.6875 60.0859,127.0313 Q61.4063,125.375 63.9063,125.375 Q64.6094,125.375 65.2578,125.5313 Q65.9063,125.6875 66.4688,125.9844 L66.4688,128.7031 Q65.8438,128.125 65.25,127.8516 Q64.6563,127.5781 64.0313,127.5781 Q62.6875,127.5781 62,128.6484 Q61.3125,129.7188 61.3125,131.8125 Q61.3125,133.9063 62,134.9766 Q62.6875,136.0469 64.0313,136.0469 Q64.6563,136.0469 65.25,135.7734 Q65.8438,135.5 66.4688,134.9219 L66.4688,137.6406 Z "/><text fill="#000000" font-family="sans-serif" font-size="12" lengthAdjust="spacingAndGlyphs" textLength="33" x="77.5" y="136.1543">Label</text><line style="stroke: #A80036; stroke-width: 1.5;" x1="49.5" x2="112.5" y1="148" y2="148"/><line style="stroke: #A80036; stroke-width: 1.5;" x1="49.5" x2="112.5" y1="156" y2="156"/><!--class Milestone--><rect fill="#FEFECE" filter="url(#f13nijdtlk5gov)" height="48" id="Milestone" style="stroke: #A80036; stroke-width: 1.5;" width="92" x="149" y="116"/><ellipse cx="164" cy="132" fill="#ADD1B2" rx="11" ry="11" style="stroke: #A80036; stroke-width: 1.0;"/><path d="M166.9688,137.6406 Q166.3906,137.9375 165.75,138.0859 Q165.1094,138.2344 164.4063,138.2344 Q161.9063,138.2344 160.5859,136.5859 Q159.2656,134.9375 159.2656,131.8125 Q159.2656,128.6875 160.5859,127.0313 Q161.9063,125.375 164.4063,125.375 Q165.1094,125.375 165.7578,125.5313 Q166.4063,125.6875 166.9688,125.9844 L166.9688,128.7031 Q166.3438,128.125 165.75,127.8516 Q165.1563,127.5781 164.5313,127.5781 Q163.1875,127.5781 162.5,128.6484 Q161.8125,129.7188 161.8125,131.8125 Q161.8125,133.9063 162.5,134.9766 Q163.1875,136.0469 164.5313,136.0469 Q165.1563,136.0469 165.75,135.7734 Q166.3438,135.5 166.9688,134.9219 L166.9688,137.6406 Z "/><text fill="#000000" font-family="sans-serif" font-size="12" lengthAdjust="spacingAndGlyphs" textLength="60" x="178" y="136.1543">Milestone</text><line style="stroke: #A80036; stroke-width: 1.5;" x1="150" x2="240" y1="148" y2="148"/><line style="stroke: #A80036; stroke-width: 1.5;" x1="150" x2="240" y1="156" y2="156"/><!--class Issue--><rect fill="#FEFECE" filter="url(#f13nijdtlk5gov)" height="48" id="Issue" style="stroke: #A80036; stroke-width: 1.5;" width="65" x="276.5" y="116"/><ellipse cx="291.5" cy="132" fill="#ADD1B2" rx="11" ry="11" style="stroke: #A80036; stroke-width: 1.0;"/><path d="M294.4688,137.6406 Q293.8906,137.9375 293.25,138.0859 Q292.6094,138.2344 291.9063,138.2344 Q289.4063,138.2344 288.0859,136.5859 Q286.7656,134.9375 286.7656,131.8125 Q286.7656,128.6875 288.0859,127.0313 Q289.4063,125.375 291.9063,125.375 Q292.6094,125.375 293.2578,125.5313 Q293.9063,125.6875 294.4688,125.9844 L294.4688,128.7031 Q293.8438,128.125 293.25,127.8516 Q292.6563,127.5781 292.0313,127.5781 Q290.6875,127.5781 290,128.6484 Q289.3125,129.7188 289.3125,131.8125 Q289.3125,133.9063 290,134.9766 Q290.6875,136.0469 292.0313,136.0469 Q292.6563,136.0469 293.25,135.7734 Q293.8438,135.5 294.4688,134.9219 L294.4688,137.6406 Z "/><text fill="#000000" font-family="sans-serif" font-size="12" lengthAdjust="spacingAndGlyphs" textLength="33" x="305.5" y="136.1543">Issue</text><line style="stroke: #A80036; stroke-width: 1.5;" x1="277.5" x2="340.5" y1="148" y2="148"/><line style="stroke: #A80036; stroke-width: 1.5;" x1="277.5" x2="340.5" y1="156" y2="156"/><!--class IssuesDatabase--><rect fill="#FEFECE" filter="url(#f13nijdtlk5gov)" height="48" id="IssuesDatabase" style="stroke: #A80036; stroke-width: 1.5;" width="133" x="290.5" y="8"/><ellipse cx="305.5" cy="24" fill="#ADD1B2" rx="11" ry="11" style="stroke: #A80036; stroke-width: 1.0;"/><path d="M308.4688,29.6406 Q307.8906,29.9375 307.25,30.0859 Q306.6094,30.2344 305.9063,30.2344 Q303.4063,30.2344 302.0859,28.5859 Q300.7656,26.9375 300.7656,23.8125 Q300.7656,20.6875 302.0859,19.0313 Q303.4063,17.375 305.9063,17.375 Q306.6094,17.375 307.2578,17.5313 Q307.9063,17.6875 308.4688,17.9844 L308.4688,20.7031 Q307.8438,20.125 307.25,19.8516 Q306.6563,19.5781 306.0313,19.5781 Q304.6875,19.5781 304,20.6484 Q303.3125,21.7188 303.3125,23.8125 Q303.3125,25.9063 304,26.9766 Q304.6875,28.0469 306.0313,28.0469 Q306.6563,28.0469 307.25,27.7734 Q307.8438,27.5 308.4688,26.9219 L308.4688,29.6406 Z "/><text fill="#000000" font-family="sans-serif" font-size="12" lengthAdjust="spacingAndGlyphs" textLength="101" x="319.5" y="28.1543">IssuesDatabase</text><line style="stroke: #A80036; stroke-width: 1.5;" x1="291.5" x2="422.5" y1="40" y2="40"/><line style="stroke: #A80036; stroke-width: 1.5;" x1="291.5" x2="422.5" y1="48" y2="48"/><!--class GogsAPI--><rect fill="#FEFECE" filter="url(#f13nijdtlk5gov)" height="48" id="GogsAPI" style="stroke: #A80036; stroke-width: 1.5;" width="83" x="472.5" y="116"/><ellipse cx="487.5" cy="132" fill="#ADD1B2" rx="11" ry="11" style="stroke: #A80036; stroke-width: 1.0;"/><path d="M490.4688,137.6406 Q489.8906,137.9375 489.25,138.0859 Q488.6094,138.2344 487.9063,138.2344 Q485.4063,138.2344 484.0859,136.5859 Q482.7656,134.9375 482.7656,131.8125 Q482.7656,128.6875 484.0859,127.0313 Q485.4063,125.375 487.9063,125.375 Q488.6094,125.375 489.2578,125.5313 Q489.9063,125.6875 490.4688,125.9844 L490.4688,128.7031 Q489.8438,128.125 489.25,127.8516 Q488.6563,127.5781 488.0313,127.5781 Q486.6875,127.5781 486,128.6484 Q485.3125,129.7188 485.3125,131.8125 Q485.3125,133.9063 486,134.9766 Q486.6875,136.0469 488.0313,136.0469 Q488.6563,136.0469 489.25,135.7734 Q489.8438,135.5 490.4688,134.9219 L490.4688,137.6406 Z "/><text fill="#000000" font-family="sans-serif" font-size="12" lengthAdjust="spacingAndGlyphs" textLength="51" x="501.5" y="136.1543">GogsAPI</text><line style="stroke: #A80036; stroke-width: 1.5;" x1="473.5" x2="554.5" y1="148" y2="148"/><line style="stroke: #A80036; stroke-width: 1.5;" x1="473.5" x2="554.5" y1="156" y2="156"/><!--class Resource--><rect fill="#FEFECE" filter="url(#f13nijdtlk5gov)" height="48" id="Resource" style="stroke: #A80036; stroke-width: 1.5;" width="91" x="726.5" y="8"/><ellipse cx="741.5" cy="24" fill="#ADD1B2" rx="11" ry="11" style="stroke: #A80036; stroke-width: 1.0;"/><path d="M744.4688,29.6406 Q743.8906,29.9375 743.25,30.0859 Q742.6094,30.2344 741.9063,30.2344 Q739.4063,30.2344 738.0859,28.5859 Q736.7656,26.9375 736.7656,23.8125 Q736.7656,20.6875 738.0859,19.0313 Q739.4063,17.375 741.9063,17.375 Q742.6094,17.375 743.2578,17.5313 Q743.9063,17.6875 744.4688,17.9844 L744.4688,20.7031 Q743.8438,20.125 743.25,19.8516 Q742.6563,19.5781 742.0313,19.5781 Q740.6875,19.5781 740,20.6484 Q739.3125,21.7188 739.3125,23.8125 Q739.3125,25.9063 740,26.9766 Q740.6875,28.0469 742.0313,28.0469 Q742.6563,28.0469 743.25,27.7734 Q743.8438,27.5 744.4688,26.9219 L744.4688,29.6406 Z "/><text fill="#000000" font-family="sans-serif" font-size="12" lengthAdjust="spacingAndGlyphs" textLength="59" x="755.5" y="28.1543">Resource</text><line style="stroke: #A80036; stroke-width: 1.5;" x1="727.5" x2="816.5" y1="40" y2="40"/><line style="stroke: #A80036; stroke-width: 1.5;" x1="727.5" x2="816.5" y1="48" y2="48"/><!--class GanttData--><rect fill="#FEFECE" filter="url(#f13nijdtlk5gov)" height="48" id="GanttData" style="stroke: #A80036; stroke-width: 1.5;" width="97" x="590.5" y="116"/><ellipse cx="605.5" cy="132" fill="#ADD1B2" rx="11" ry="11" style="stroke: #A80036; stroke-width: 1.0;"/><path d="M608.4688,137.6406 Q607.8906,137.9375 607.25,138.0859 Q606.6094,138.2344 605.9063,138.2344 Q603.4063,138.2344 602.0859,136.5859 Q600.7656,134.9375 600.7656,131.8125 Q600.7656,128.6875 602.0859,127.0313 Q603.4063,125.375 605.9063,125.375 Q606.6094,125.375 607.2578,125.5313 Q607.9063,125.6875 608.4688,125.9844 L608.4688,128.7031 Q607.8438,128.125 607.25,127.8516 Q606.6563,127.5781 606.0313,127.5781 Q604.6875,127.5781 604,128.6484 Q603.3125,129.7188 603.3125,131.8125 Q603.3125,133.9063 604,134.9766 Q604.6875,136.0469 606.0313,136.0469 Q606.6563,136.0469 607.25,135.7734 Q607.8438,135.5 608.4688,134.9219 L608.4688,137.6406 Z "/><text fill="#000000" font-family="sans-serif" font-size="12" lengthAdjust="spacingAndGlyphs" textLength="65" x="619.5" y="136.1543">GanttData</text><line style="stroke: #A80036; stroke-width: 1.5;" x1="591.5" x2="686.5" y1="148" y2="148"/><line style="stroke: #A80036; stroke-width: 1.5;" x1="591.5" x2="686.5" y1="156" y2="156"/><!--class GanttLinks--><rect fill="#FEFECE" filter="url(#f13nijdtlk5gov)" height="48" id="GanttLinks" style="stroke: #A80036; stroke-width: 1.5;" width="98" x="723" y="116"/><ellipse cx="738" cy="132" fill="#ADD1B2" rx="11" ry="11" style="stroke: #A80036; stroke-width: 1.0;"/><path d="M740.9688,137.6406 Q740.3906,137.9375 739.75,138.0859 Q739.1094,138.2344 738.4063,138.2344 Q735.9063,138.2344 734.5859,136.5859 Q733.2656,134.9375 733.2656,131.8125 Q733.2656,128.6875 734.5859,127.0313 Q735.9063,125.375 738.4063,125.375 Q739.1094,125.375 739.7578,125.5313 Q740.4063,125.6875 740.9688,125.9844 L740.9688,128.7031 Q740.3438,128.125 739.75,127.8516 Q739.1563,127.5781 738.5313,127.5781 Q737.1875,127.5781 736.5,128.6484 Q735.8125,129.7188 735.8125,131.8125 Q735.8125,133.9063 736.5,134.9766 Q737.1875,136.0469 738.5313,136.0469 Q739.1563,136.0469 739.75,135.7734 Q740.3438,135.5 740.9688,134.9219 L740.9688,137.6406 Z "/><text fill="#000000" font-family="sans-serif" font-size="12" lengthAdjust="spacingAndGlyphs" textLength="66" x="752" y="136.1543">GanttLinks</text><line style="stroke: #A80036; stroke-width: 1.5;" x1="724" x2="820" y1="148" y2="148"/><line style="stroke: #A80036; stroke-width: 1.5;" x1="724" x2="820" y1="156" y2="156"/><!--class GanttTask--><rect fill="#FEFECE" filter="url(#f13nijdtlk5gov)" height="48" id="GanttTask" style="stroke: #A80036; stroke-width: 1.5;" width="96" x="856" y="116"/><ellipse cx="871" cy="132" fill="#ADD1B2" rx="11" ry="11" style="stroke: #A80036; stroke-width: 1.0;"/><path d="M873.9688,137.6406 Q873.3906,137.9375 872.75,138.0859 Q872.1094,138.2344 871.4063,138.2344 Q868.9063,138.2344 867.5859,136.5859 Q866.2656,134.9375 866.2656,131.8125 Q866.2656,128.6875 867.5859,127.0313 Q868.9063,125.375 871.4063,125.375 Q872.1094,125.375 872.7578,125.5313 Q873.4063,125.6875 873.9688,125.9844 L873.9688,128.7031 Q873.3438,128.125 872.75,127.8516 Q872.1563,127.5781 871.5313,127.5781 Q870.1875,127.5781 869.5,128.6484 Q868.8125,129.7188 868.8125,131.8125 Q868.8125,133.9063 869.5,134.9766 Q870.1875,136.0469 871.5313,136.0469 Q872.1563,136.0469 872.75,135.7734 Q873.3438,135.5 873.9688,134.9219 L873.9688,137.6406 Z "/><text fill="#000000" font-family="sans-serif" font-size="12" lengthAdjust="spacingAndGlyphs" textLength="64" x="885" y="136.1543">GanttTask</text><line style="stroke: #A80036; stroke-width: 1.5;" x1="857" x2="951" y1="148" y2="148"/><line style="stroke: #A80036; stroke-width: 1.5;" x1="857" x2="951" y1="156" y2="156"/><!--link DatabaseItem to User--><path d="M260.1954,65.2127 C298.8116,84.8852 345.9545,108.9013 376.2199,124.3196 " fill="none" id="DatabaseItem-User" style="stroke: #A80036; stroke-width: 1.0;"/><polygon fill="none" points="256.9564,71.4187,242.3131,56.1029,263.3114,58.9442,256.9564,71.4187" style="stroke: #A80036; stroke-width: 1.0;"/><!--link DatabaseItem to Label--><path d="M154.7995,70.0847 C138.733,85.3056 120.7111,102.379 106.4984,115.8436 " fill="none" id="DatabaseItem-Label" style="stroke: #A80036; stroke-width: 1.0;"/><polygon fill="none" points="150.0829,64.9106,169.4162,56.2373,159.7113,75.0739,150.0829,64.9106" style="stroke: #A80036; stroke-width: 1.0;"/><!--link DatabaseItem to Milestone--><path d="M195,76.2911 C195,89.8171 195,104.1835 195,115.8436 " fill="none" id="DatabaseItem-Milestone" style="stroke: #A80036; stroke-width: 1.0;"/><polygon fill="none" points="188.0001,76.2373,195,56.2373,202.0001,76.2373,188.0001,76.2373" style="stroke: #A80036; stroke-width: 1.0;"/><!--link DatabaseItem to Issue--><path d="M235.2005,70.0847 C251.267,85.3056 269.2889,102.379 283.5016,115.8436 " fill="none" id="DatabaseItem-Issue" style="stroke: #A80036; stroke-width: 1.0;"/><polygon fill="none" points="230.2887,75.0739,220.5838,56.2373,239.9171,64.9106,230.2887,75.0739" style="stroke: #A80036; stroke-width: 1.0;"/><!--link IssuesDatabase to Issue--><path d="M340.906,68.2115 C333.9372,83.8913 325.9672,101.8238 319.7362,115.8436 " fill="none" id="IssuesDatabase-Issue" style="stroke: #A80036; stroke-width: 1.0;"/><polygon fill="#A80036" points="346.2279,56.2373,340.1358,60.0956,341.3542,67.203,347.4463,63.3447,346.2279,56.2373" style="stroke: #A80036; stroke-width: 1.0;"/><!--link IssuesDatabase to Milestone--><path d="M309.5605,63.6263 C284.547,80.302 254.3465,100.4357 231.2346,115.8436 " fill="none" id="IssuesDatabase-Milestone" style="stroke: #A80036; stroke-width: 1.0;"/><polygon fill="#A80036" points="320.644,56.2373,313.4329,56.2373,310.6594,62.8937,317.8705,62.8937,320.644,56.2373" style="stroke: #A80036; stroke-width: 1.0;"/><!--link IssuesDatabase to User--><path d="M373.7646,68.2115 C381.0238,83.8913 389.3258,101.8238 395.8165,115.8436 " fill="none" id="IssuesDatabase-User" style="stroke: #A80036; stroke-width: 1.0;"/><polygon fill="#A80036" points="368.221,56.2373,367.1119,63.3626,373.2626,67.1269,374.3716,60.0015,368.221,56.2373" style="stroke: #A80036; stroke-width: 1.0;"/><!--link IssuesDatabase to Label--><path d="M277.8168,59.4213 C234.1337,75.0498 179.1427,95.5497 131,116 C125.3281,118.4093 119.3672,121.114 113.6162,123.8158 " fill="none" id="IssuesDatabase-Label" style="stroke: #A80036; stroke-width: 1.0;"/><polygon fill="#A80036" points="290.1135,55.0435,283.1195,53.2876,278.8086,59.0682,285.8026,60.8242,290.1135,55.0435" style="stroke: #A80036; stroke-width: 1.0;"/><!--link IssuesDatabase to GogsAPI--><path d="M402.9753,63.6263 C427.2167,80.302 456.4852,100.4357 478.8837,115.8436 " fill="none" id="IssuesDatabase-GogsAPI" style="stroke: #A80036; stroke-width: 1.0;"/><polygon fill="#FFFFFF" points="392.2339,56.2373,394.9102,62.9334,402.1205,63.0384,399.4442,56.3423,392.2339,56.2373" style="stroke: #A80036; stroke-width: 1.0;"/><!--link Resource to GanttData--><path d="M726.5441,68.9116 C707.4419,84.4231 685.7569,102.032 668.7482,115.8436 " fill="none" id="Resource-GanttData" style="stroke: #A80036; stroke-width: 1.0;"/><polygon fill="none" points="722.2137,63.4107,742.1522,56.2373,731.039,74.2789,722.2137,63.4107" style="stroke: #A80036; stroke-width: 1.0;"/><!--link Resource to GanttLinks--><path d="M772,76.2911 C772,89.8171 772,104.1835 772,115.8436 " fill="none" id="Resource-GanttLinks" style="stroke: #A80036; stroke-width: 1.0;"/><polygon fill="none" points="765.0001,76.2373,772,56.2373,779.0001,76.2373,765.0001,76.2373" style="stroke: #A80036; stroke-width: 1.0;"/><!--link Resource to GanttTask--><path d="M817.1141,68.9116 C836.0727,84.4231 857.5946,102.032 874.4755,115.8436 " fill="none" id="Resource-GanttTask" style="stroke: #A80036; stroke-width: 1.0;"/><polygon fill="none" points="812.6699,74.3198,801.6234,56.2373,821.5352,63.4844,812.6699,74.3198" style="stroke: #A80036; stroke-width: 1.0;"/><!--
@startuml
class LoginUser {

}

class DatabaseItem {

}

DatabaseItem <|- - User
class User {

}

DatabaseItem <|- - Label
class Label {

}

DatabaseItem <|- - Milestone
class Milestone {

}

DatabaseItem <|- - Issue
class Issue {

}

IssuesDatabase *- - Issue
IssuesDatabase *- - Milestone
IssuesDatabase *- - User
IssuesDatabase *- - Label
IssuesDatabase o- - GogsAPI
class IssuesDatabase {

}

class GogsAPI {

}

class Resource {

}

Resource <|- - GanttData
class GanttData {

}

Resource <|- - GanttLinks
class GanttLinks {

}

Resource <|- - GanttTask
class GanttTask {

}

@enduml

PlantUML version 1.2018.05(Sun May 06 06:00:17 AEST 2018)
(GPL source distribution)
Java Runtime: OpenJDK Runtime Environment
JVM: OpenJDK 64-Bit Server VM
Java Version: 1.8.0_162-b12
Operating System: Linux
OS Version: 4.16.3-1-ARCH
Default Encoding: UTF-8
Language: en
Country: US
--></g></svg>