<?xml version="1.0" encoding="UTF-8" standalone="no"?><svg xmlns="http://www.w3.org/2000/svg" xmlns:xlink="http://www.w3.org/1999/xlink" contentScriptType="application/ecmascript" contentStyleType="text/css" height="766px" preserveAspectRatio="none" style="width:1381px;height:766px;" version="1.1" viewBox="0 0 1381 766" width="1381px" zoomAndPan="magnify"><defs><filter height="300%" id="frkubw0wzbm4n" width="300%" x="-1" y="-1"><feGaussianBlur result="blurOut" stdDeviation="2.0"/><feColorMatrix in="blurOut" result="blurOut2" type="matrix" values="0 0 0 0 0 0 0 0 0 0 0 0 0 0 0 0 0 0 .4 0"/><feOffset dx="4.0" dy="4.0" in="blurOut2" result="blurOut3"/><feBlend in="SourceGraphic" in2="blurOut3" mode="normal"/></filter></defs><g><!--cluster ExternalServers--><polygon fill="#FFFFFF" filter="url(#frkubw0wzbm4n)" points="817,431.5,827,421.5,1148,421.5,1148,485.5,1138,495.5,817,495.5,817,431.5" style="stroke: #000000; stroke-width: 1.5;"/><line style="stroke: #000000; stroke-width: 1.5;" x1="1138" x2="1147" y1="431.5" y2="422.5"/><line style="stroke: #000000; stroke-width: 1.5;" x1="817" x2="1138" y1="431.5" y2="431.5"/><line style="stroke: #000000; stroke-width: 1.5;" x1="1138" x2="1138" y1="431.5" y2="495.5"/><text fill="#000000" font-family="sans-serif" font-size="14" font-weight="bold" lengthAdjust="spacingAndGlyphs" textLength="131" x="913" y="447.4951">External Servers</text><!--cluster ExternalATCDisplayPackage--><polygon fill="#FFFFFF" filter="url(#frkubw0wzbm4n)" points="656,690,666,680,1001,680,1001,744,991,754,656,754,656,690" style="stroke: #000000; stroke-width: 1.5;"/><line style="stroke: #000000; stroke-width: 1.5;" x1="991" x2="1000" y1="690" y2="681"/><line style="stroke: #000000; stroke-width: 1.5;" x1="656" x2="991" y1="690" y2="690"/><line style="stroke: #000000; stroke-width: 1.5;" x1="991" x2="991" y1="690" y2="754"/><text fill="#000000" font-family="sans-serif" font-size="14" font-weight="bold" lengthAdjust="spacingAndGlyphs" textLength="162" x="743.5" y="705.9951">External ATC Display</text><!--cluster PredictionService--><polygon fill="#FFFFFF" filter="url(#frkubw0wzbm4n)" points="433,544,443,534,1359,534,1359,650,1349,660,433,660,433,544" style="stroke: #000000; stroke-width: 1.5;"/><line style="stroke: #000000; stroke-width: 1.5;" x1="1349" x2="1358" y1="544" y2="535"/><line style="stroke: #000000; stroke-width: 1.5;" x1="433" x2="1349" y1="544" y2="544"/><line style="stroke: #000000; stroke-width: 1.5;" x1="1349" x2="1349" y1="544" y2="660"/><text fill="#000000" font-family="sans-serif" font-size="14" font-weight="bold" lengthAdjust="spacingAndGlyphs" textLength="144" x="820" y="559.9951">Prediction Service</text><!--cluster ATCSimulator--><polygon fill="#FFFFFF" filter="url(#frkubw0wzbm4n)" points="14,26,24,16,691,16,691,512,681,522,14,522,14,26" style="stroke: #000000; stroke-width: 1.5;"/><line style="stroke: #000000; stroke-width: 1.5;" x1="681" x2="690" y1="26" y2="17"/><line style="stroke: #000000; stroke-width: 1.5;" x1="14" x2="681" y1="26" y2="26"/><line style="stroke: #000000; stroke-width: 1.5;" x1="681" x2="681" y1="26" y2="522"/><text fill="#000000" font-family="sans-serif" font-size="14" font-weight="bold" lengthAdjust="spacingAndGlyphs" textLength="111" x="293" y="41.9951">ATC Simulator</text><!--cluster DisplayPackage--><polygon fill="#FFFFFF" filter="url(#frkubw0wzbm4n)" points="326,48,388,48,395,70.2969,683,70.2969,683,289,326,289,326,48" style="stroke: #000000; stroke-width: 1.5;"/><line style="stroke: #000000; stroke-width: 1.5;" x1="326" x2="395" y1="70.2969" y2="70.2969"/><text fill="#000000" font-family="sans-serif" font-size="14" font-weight="bold" lengthAdjust="spacingAndGlyphs" textLength="56" x="330" y="62.9951">Display</text><!--cluster DebugDataFeedPackage--><polygon fill="#FFFFFF" filter="url(#frkubw0wzbm4n)" points="253,314,394,314,401,336.2969,654,336.2969,654,514,253,514,253,314" style="stroke: #000000; stroke-width: 1.5;"/><line style="stroke: #000000; stroke-width: 1.5;" x1="253" x2="401" y1="336.2969" y2="336.2969"/><text fill="#000000" font-family="sans-serif" font-size="14" font-weight="bold" lengthAdjust="spacingAndGlyphs" textLength="135" x="257" y="328.9951">Debug Data Feed</text><rect fill="#FEFECE" filter="url(#frkubw0wzbm4n)" height="33.9688" style="stroke: #A80036; stroke-width: 1.5;" width="142" x="998" y="453.5"/><text fill="#000000" font-family="sans-serif" font-size="12" lengthAdjust="spacingAndGlyphs" textLength="128" x="1005" y="466.6387">ExternalCat62Server</text><line style="stroke: #A80036; stroke-width: 1.5;" x1="999" x2="1139" y1="471.4688" y2="471.4688"/><rect fill="#FEFECE" filter="url(#frkubw0wzbm4n)" height="33.9688" style="stroke: #A80036; stroke-width: 1.5;" width="138" x="825" y="453.5"/><text fill="#000000" font-family="sans-serif" font-size="12" lengthAdjust="spacingAndGlyphs" textLength="124" x="832" y="466.6387">ExternalADSBServer</text><line style="stroke: #A80036; stroke-width: 1.5;" x1="826" x2="962" y1="471.4688" y2="471.4688"/><rect fill="#FEFECE" filter="url(#frkubw0wzbm4n)" height="33.9688" style="stroke: #A80036; stroke-width: 1.5;" width="132" x="861" y="712"/><text fill="#000000" font-family="sans-serif" font-size="12" lengthAdjust="spacingAndGlyphs" textLength="118" x="868" y="725.1387">ExternalATCDisplay</text><line style="stroke: #A80036; stroke-width: 1.5;" x1="862" x2="992" y1="729.9688" y2="729.9688"/><rect fill="#FEFECE" filter="url(#frkubw0wzbm4n)" height="33.9688" style="stroke: #A80036; stroke-width: 1.5;" width="161" x="664.5" y="712"/><text fill="#000000" font-family="sans-serif" font-size="12" lengthAdjust="spacingAndGlyphs" textLength="147" x="671.5" y="725.1387">PredictionFeedDecoder</text><line style="stroke: #A80036; stroke-width: 1.5;" x1="665.5" x2="824.5" y1="729.9688" y2="729.9688"/><path d="M1128.5,566 L1128.5,651.6641 L1351.5,651.6641 L1351.5,576 L1341.5,566 L1128.5,566 " fill="#FBFB77" filter="url(#frkubw0wzbm4n)" style="stroke: #A80036; stroke-width: 1.0;"/><path d="M1341.5,566 L1341.5,576 L1351.5,576 L1341.5,566 " fill="#FBFB77" style="stroke: #A80036; stroke-width: 1.0;"/><text fill="#000000" font-family="sans-serif" font-size="13" lengthAdjust="spacingAndGlyphs" textLength="197" x="1134.5" y="583.0669">The prediction service contains</text><text fill="#000000" font-family="sans-serif" font-size="13" lengthAdjust="spacingAndGlyphs" textLength="181" x="1134.5" y="598.1997">all the prototype algorithms.</text><text fill="#000000" font-family="sans-serif" font-size="13" lengthAdjust="spacingAndGlyphs" textLength="185" x="1134.5" y="613.3325">It takes data feeds as inputs,</text><text fill="#000000" font-family="sans-serif" font-size="13" lengthAdjust="spacingAndGlyphs" textLength="202" x="1134.5" y="628.4653">and prediction feeds to displays</text><text fill="#000000" font-family="sans-serif" font-size="13" lengthAdjust="spacingAndGlyphs" textLength="97" x="1134.5" y="643.5981">are its outputs.</text><rect fill="#FEFECE" filter="url(#frkubw0wzbm4n)" height="33.9688" style="stroke: #A80036; stroke-width: 1.5;" width="195" x="440.5" y="592"/><text fill="#000000" font-family="sans-serif" font-size="12" lengthAdjust="spacingAndGlyphs" textLength="181" x="447.5" y="605.1387">DebugDataFeedClientThread</text><line style="stroke: #A80036; stroke-width: 1.5;" x1="441.5" x2="634.5" y1="609.9688" y2="609.9688"/><rect fill="#FEFECE" filter="url(#frkubw0wzbm4n)" height="33.9688" style="stroke: #A80036; stroke-width: 1.5;" width="148" x="671" y="592"/><text fill="#000000" font-family="sans-serif" font-size="12" lengthAdjust="spacingAndGlyphs" textLength="134" x="678" y="605.1387">PredictionFeedServer</text><line style="stroke: #A80036; stroke-width: 1.5;" x1="672" x2="818" y1="609.9688" y2="609.9688"/><rect fill="#FEFECE" filter="url(#frkubw0wzbm4n)" height="33.9688" style="stroke: #A80036; stroke-width: 1.5;" width="104" x="989" y="592"/><text fill="#000000" font-family="sans-serif" font-size="12" lengthAdjust="spacingAndGlyphs" textLength="90" x="996" y="605.1387">Cat62Decoder</text><line style="stroke: #A80036; stroke-width: 1.5;" x1="990" x2="1092" y1="609.9688" y2="609.9688"/><rect fill="#FEFECE" filter="url(#frkubw0wzbm4n)" height="33.9688" style="stroke: #A80036; stroke-width: 1.5;" width="100" x="854" y="592"/><text fill="#000000" font-family="sans-serif" font-size="12" lengthAdjust="spacingAndGlyphs" textLength="86" x="861" y="605.1387">ADSBDecoder</text><line style="stroke: #A80036; stroke-width: 1.5;" x1="855" x2="953" y1="609.9688" y2="609.9688"/><path d="M22.5,49 L22.5,134.6641 L317.5,134.6641 L317.5,59 L307.5,49 L22.5,49 " fill="#FBFB77" filter="url(#frkubw0wzbm4n)" style="stroke: #A80036; stroke-width: 1.0;"/><path d="M307.5,49 L307.5,59 L317.5,59 L307.5,49 " fill="#FBFB77" style="stroke: #A80036; stroke-width: 1.0;"/><text fill="#000000" font-family="sans-serif" font-size="13" lengthAdjust="spacingAndGlyphs" textLength="274" x="28.5" y="66.0669">The ATC Simulator serves as a test-bed for</text><text fill="#000000" font-family="sans-serif" font-size="13" lengthAdjust="spacingAndGlyphs" textLength="246" x="28.5" y="81.1997">the prediction service, providing all the</text><text fill="#000000" font-family="sans-serif" font-size="13" lengthAdjust="spacingAndGlyphs" textLength="246" x="28.5" y="96.3325">necessary inputs and outputs required</text><text fill="#000000" font-family="sans-serif" font-size="13" lengthAdjust="spacingAndGlyphs" textLength="234" x="28.5" y="111.4653">to perform integration testing on the</text><text fill="#000000" font-family="sans-serif" font-size="13" lengthAdjust="spacingAndGlyphs" textLength="116" x="28.5" y="126.5981">prediction service.</text><rect fill="#FEFECE" filter="url(#frkubw0wzbm4n)" height="33.9688" style="stroke: #A80036; stroke-width: 1.5;" width="161" x="513.5" y="75"/><text fill="#000000" font-family="sans-serif" font-size="12" lengthAdjust="spacingAndGlyphs" textLength="147" x="520.5" y="88.1387">PredictionFeedDecoder</text><line style="stroke: #A80036; stroke-width: 1.5;" x1="514.5" x2="673.5" y1="92.9688" y2="92.9688"/><rect fill="#FEFECE" filter="url(#frkubw0wzbm4n)" height="33.9688" style="stroke: #A80036; stroke-width: 1.5;" width="58" x="617" y="221"/><text fill="#000000" font-family="sans-serif" font-size="12" lengthAdjust="spacingAndGlyphs" textLength="44" x="624" y="234.1387">Display</text><line style="stroke: #A80036; stroke-width: 1.5;" x1="618" x2="674" y1="238.9688" y2="238.9688"/><path d="M334.5,195 L334.5,280.6641 A0,0 0 0 0 334.5,280.6641 L581.5,280.6641 A0,0 0 0 0 581.5,280.6641 L581.5,242 L616.8832,238 L581.5,234 L581.5,205 L571.5,195 L334.5,195 A0,0 0 0 0 334.5,195 " fill="#FBFB77" filter="url(#frkubw0wzbm4n)" style="stroke: #A80036; stroke-width: 1.0;"/><path d="M571.5,195 L571.5,205 L581.5,205 L571.5,195 " fill="#FBFB77" style="stroke: #A80036; stroke-width: 1.0;"/><text fill="#000000" font-family="sans-serif" font-size="13" lengthAdjust="spacingAndGlyphs" textLength="180" x="340.5" y="212.0669">The Display reads data from</text><text fill="#000000" font-family="sans-serif" font-size="13" lengthAdjust="spacingAndGlyphs" textLength="211" x="340.5" y="227.1997">a predection server, and displays</text><text fill="#000000" font-family="sans-serif" font-size="13" lengthAdjust="spacingAndGlyphs" textLength="205" x="340.5" y="242.3325">it. It also is capable of displaying</text><text fill="#000000" font-family="sans-serif" font-size="13" lengthAdjust="spacingAndGlyphs" textLength="226" x="340.5" y="257.4653">debug information directly from the</text><text fill="#000000" font-family="sans-serif" font-size="13" lengthAdjust="spacingAndGlyphs" textLength="104" x="340.5" y="272.5981">DebugDataFeed</text><rect fill="#FEFECE" filter="url(#frkubw0wzbm4n)" height="33.9688" style="stroke: #A80036; stroke-width: 1.5;" width="116" x="530" y="341"/><text fill="#000000" font-family="sans-serif" font-size="12" lengthAdjust="spacingAndGlyphs" textLength="102" x="537" y="354.1387">DebugDataFeed</text><line style="stroke: #A80036; stroke-width: 1.5;" x1="531" x2="645" y1="358.9688" y2="358.9688"/><rect fill="#FEFECE" filter="url(#frkubw0wzbm4n)" height="33.9688" style="stroke: #A80036; stroke-width: 1.5;" width="156" x="490" y="453.5"/><text fill="#000000" font-family="sans-serif" font-size="12" lengthAdjust="spacingAndGlyphs" textLength="142" x="497" y="466.6387">DebugDataFeedServer</text><line style="stroke: #A80036; stroke-width: 1.5;" x1="491" x2="645" y1="471.4688" y2="471.4688"/><path d="M261,435 L261,505.5313 A0,0 0 0 0 261,505.5313 L455,505.5313 A0,0 0 0 0 455,505.5313 L455,474.5 L489.5736,470.5 L455,466.5 L455,445 L445,435 L261,435 A0,0 0 0 0 261,435 " fill="#FBFB77" filter="url(#frkubw0wzbm4n)" style="stroke: #A80036; stroke-width: 1.0;"/><path d="M445,435 L445,445 L455,445 L445,435 " fill="#FBFB77" style="stroke: #A80036; stroke-width: 1.0;"/><text fill="#000000" font-family="sans-serif" font-size="13" lengthAdjust="spacingAndGlyphs" textLength="173" x="267" y="452.0669">The DataServer reads data</text><text fill="#000000" font-family="sans-serif" font-size="13" lengthAdjust="spacingAndGlyphs" textLength="135" x="267" y="467.1997">in from files and then</text><text fill="#000000" font-family="sans-serif" font-size="13" lengthAdjust="spacingAndGlyphs" textLength="164" x="267" y="482.3325">provides data in a stream</text><text fill="#000000" font-family="sans-serif" font-size="13" lengthAdjust="spacingAndGlyphs" textLength="43" x="267" y="497.4653">format</text><!--link ExternalPredictionFeedDecoder to ExternalATCDisplay--><path d="M825.6914,729 C833.029,729 840.3666,729 847.7043,729 " fill="none" id="ExternalPredictionFeedDecoder-ExternalATCDisplay" style="stroke: #A80036; stroke-width: 1.0;"/><polygon fill="#FFFFFF" points="860.912,729,854.912,725,848.912,729,854.912,733,860.912,729" style="stroke: #A80036; stroke-width: 1.0;"/><!--link PredictionFeedDecoder to Display--><path d="M600.0668,109.0338 C608.7095,133.2996 624.6959,178.1847 635.3411,208.073 " fill="none" id="PredictionFeedDecoder-Display" style="stroke: #A80036; stroke-width: 1.0;"/><polygon fill="#FFFFFF" points="639.8106,220.6221,641.5656,213.6278,635.7844,209.3177,634.0294,216.312,639.8106,220.6221" style="stroke: #A80036; stroke-width: 1.0;"/><!--link DebugDataFeed to DebugDataFeedServer--><path d="M582.6607,388.0338 C578.9536,408.886 574.1458,435.9296 571.0662,453.2529 " fill="none" id="DebugDataFeed-DebugDataFeedServer" style="stroke: #A80036; stroke-width: 1.0;"/><polygon fill="#FFFFFF" points="584.9624,375.0863,579.9739,380.2935,582.8619,386.901,587.8504,381.6938,584.9624,375.0863" style="stroke: #A80036; stroke-width: 1.0;"/><!--link Display to DebugDataFeed--><path d="M628.4333,255.1931 C613.8505,276.4011 596.1011,312.4977 588.5716,335.7866 " fill="none" id="Display-DebugDataFeed" style="stroke: #A80036; stroke-width: 1.0;"/><polygon fill="#A80036" points="587.0444,340.8388,593.4776,333.3813,588.4912,336.0527,585.8198,331.0664,587.0444,340.8388" style="stroke: #A80036; stroke-width: 1.0;"/><!--link Display to DebugDataFeed--><path d="M646.0153,260.2485 C638.6946,283.5501 620.9236,319.6457 606.0888,340.8388 " fill="none" id="Display-DebugDataFeed" style="stroke: #A80036; stroke-width: 1.0;"/><polygon fill="#A80036" points="647.4912,255.1931,641.1292,262.7114,646.0899,259.9927,648.8086,264.9534,647.4912,255.1931" style="stroke: #A80036; stroke-width: 1.0;"/><!--link DebugDataFeedServer to DebugDataFeedClientThread--><path d="M555.4895,487.7611 C545.084,512.7785 534.7453,559.1289 533.1612,586.7037 " fill="none" id="DebugDataFeedServer-DebugDataFeedClientThread" style="stroke: #A80036; stroke-width: 1.0;"/><polygon fill="#A80036" points="532.9637,591.9565,537.2993,583.1133,533.1517,586.96,529.3049,582.8125,532.9637,591.9565" style="stroke: #A80036; stroke-width: 1.0;"/><!--link DebugDataFeedServer to DebugDataFeedClientThread--><path d="M573.3957,493.0371 C572.0173,520.7207 561.6339,567.0633 550.9332,591.9565 " fill="none" id="DebugDataFeedServer-DebugDataFeedClientThread" style="stroke: #A80036; stroke-width: 1.0;"/><polygon fill="#A80036" points="573.5488,487.7611,569.2892,496.6412,573.4037,492.759,577.2859,496.8734,573.5488,487.7611" style="stroke: #A80036; stroke-width: 1.0;"/><!--link PredictionFeedServer to PredictionFeedDecoder--><path d="M739.6966,591.7718 C734.1224,532.9467 743.2364,335.886 676,195 C659.8759,161.2138 628.3502,131.4626 608.6739,112.7333 " fill="none" id="PredictionFeedServer-PredictionFeedDecoder" style="stroke: #A80036; stroke-width: 1.0;"/><polygon fill="#A80036" points="604.9048,109.1365,608.6544,118.2437,608.5221,112.5884,614.1774,112.456,604.9048,109.1365" style="stroke: #A80036; stroke-width: 1.0;"/><!--link PredictionFeedServer to PredictionFeedDecoder--><path d="M755.0586,586.6402 C769.5637,522.212 776.3979,332.0336 711,195 C693.8009,158.9613 659.0783,127.5137 631.1986,109.1365 " fill="none" id="PredictionFeedServer-PredictionFeedDecoder" style="stroke: #A80036; stroke-width: 1.0;"/><polygon fill="#A80036" points="753.8185,591.7718,759.8208,583.9633,754.9931,586.9117,752.0446,582.084,753.8185,591.7718" style="stroke: #A80036; stroke-width: 1.0;"/><!--link PredictionFeedServer to ExternalPredictionFeedDecoder--><path d="M735.7433,626.1931 C731.411,647.4011 731.1083,683.4977 734.8351,706.7866 " fill="none" id="PredictionFeedServer-ExternalPredictionFeedDecoder" style="stroke: #A80036; stroke-width: 1.0;"/><polygon fill="#A80036" points="735.7499,711.8388,738.0824,702.2701,734.859,706.9188,730.2104,703.6955,735.7499,711.8388" style="stroke: #A80036; stroke-width: 1.0;"/><!--link PredictionFeedServer to ExternalPredictionFeedDecoder--><path d="M755.7687,631.2485 C759.7105,654.5501 759.3857,690.6457 754.7943,711.8388 " fill="none" id="PredictionFeedServer-ExternalPredictionFeedDecoder" style="stroke: #A80036; stroke-width: 1.0;"/><polygon fill="#A80036" points="754.8012,626.1931,752.5645,635.7846,755.7412,631.1039,760.4219,634.2806,754.8012,626.1931" style="stroke: #A80036; stroke-width: 1.0;"/><!--link ExternalCat62Server to Cat62Decoder--><path d="M1056.7387,487.7611 C1046.6945,512.7785 1037.0252,559.1289 1035.8392,586.7037 " fill="none" id="ExternalCat62Server-Cat62Decoder" style="stroke: #A80036; stroke-width: 1.0;"/><polygon fill="#A80036" points="1035.7176,591.9565,1039.9253,583.0517,1035.8336,586.9578,1031.9275,582.8661,1035.7176,591.9565" style="stroke: #A80036; stroke-width: 1.0;"/><!--link ExternalCat62Server to Cat62Decoder--><path d="M1074.7212,493.0371 C1073.7426,520.7207 1064.0283,567.0633 1053.6871,591.9565 " fill="none" id="ExternalCat62Server-Cat62Decoder" style="stroke: #A80036; stroke-width: 1.0;"/><polygon fill="#A80036" points="1074.798,487.7611,1070.667,496.7017,1074.725,492.7606,1078.6662,496.8185,1074.798,487.7611" style="stroke: #A80036; stroke-width: 1.0;"/><!--link ExternalADSBServer to ADSBDecoder--><path d="M886.4746,487.7611 C883.2812,512.8828 886.3676,559.5155 892.8018,587.0474 " fill="none" id="ExternalADSBServer-ADSBDecoder" style="stroke: #A80036; stroke-width: 1.0;"/><polygon fill="#A80036" points="894.0414,591.9565,895.7162,582.2511,892.8173,587.1087,887.9597,584.2097,894.0414,591.9565" style="stroke: #A80036; stroke-width: 1.0;"/><!--link ExternalADSBServer to ADSBDecoder--><path d="M905.8218,492.6921 C912.4964,520.3342 915.5369,566.9596 912.0109,591.9565 " fill="none" id="ExternalADSBServer-ADSBDecoder" style="stroke: #A80036; stroke-width: 1.0;"/><polygon fill="#A80036" points="904.5339,487.7611,902.9382,497.4798,905.7975,492.5988,910.6785,495.4581,904.5339,487.7611" style="stroke: #A80036; stroke-width: 1.0;"/><!--
@startuml

package "External Servers" as ExternalServers <<Node>> {
  object ExternalCat62Server
  object ExternalADSBServer
}

package "External ATC Display" as ExternalATCDisplayPackage <<Node>> {
  object ExternalATCDisplay
  object "PredictionFeedDecoder" as ExternalPredictionFeedDecoder

  ExternalATCDisplay o-left- ExternalPredictionFeedDecoder
}

package "Prediction Service" as PredictionService <<Node>> {
  note as N2
  The prediction service contains
  all the prototype algorithms.
  It takes data feeds as inputs,
  and prediction feeds to displays
  are its outputs.
  end note

  object DebugDataFeedClientThread
  object PredictionFeedServer
  object Cat62Decoder
  object ADSBDecoder
}

package "ATC Simulator" as ATCSimulator <<Node>> {
  note as N1
  The ATC Simulator serves as a test-bed for
  the prediction service, providing all the
  necessary inputs and outputs required
  to perform integration testing on the
  prediction service.
  end note

  package "Display" as DisplayPackage {
    object PredictionFeedDecoder
    object Display
    note left of Display
    The Display reads data from
    a predection server, and displays
    it. It also is capable of displaying
    debug information directly from the
    DebugDataFeed
    end note

    PredictionFeedDecoder - -o Display
  }

  package "Debug Data Feed" as DebugDataFeedPackage {
    object DebugDataFeed
    object DebugDataFeedServer

    DebugDataFeed o- - DebugDataFeedServer

    note left of DebugDataFeedServer
    The DataServer reads data
    in from files and then
    provides data in a stream
    format
    end note
  }

  Display - -> DebugDataFeed
  Display <- - DebugDataFeed

}

DebugDataFeedServer - -> DebugDataFeedClientThread
DebugDataFeedServer <- - DebugDataFeedClientThread

PredictionFeedServer - -> PredictionFeedDecoder
PredictionFeedServer <- - PredictionFeedDecoder
PredictionFeedServer - -> ExternalPredictionFeedDecoder
PredictionFeedServer <- - ExternalPredictionFeedDecoder
ExternalCat62Server - -> Cat62Decoder
ExternalCat62Server <- - Cat62Decoder

ExternalADSBServer - -> ADSBDecoder
ExternalADSBServer <- - ADSBDecoder

@enduml

PlantUML version 1.2018.05(Sun May 06 06:00:17 AEST 2018)
(GPL source distribution)
Java Runtime: OpenJDK Runtime Environment
JVM: OpenJDK 64-Bit Server VM
Java Version: 1.8.0_162-b12
Operating System: Linux
OS Version: 4.16.3-1-ARCH
Default Encoding: UTF-8
Language: en
Country: US
--></g></svg>