<?xml version="1.0" encoding="UTF-8" standalone="no"?><svg xmlns="http://www.w3.org/2000/svg" xmlns:xlink="http://www.w3.org/1999/xlink" contentScriptType="application/ecmascript" contentStyleType="text/css" height="491px" preserveAspectRatio="none" style="width:1085px;height:491px;" version="1.1" viewBox="0 0 1085 491" width="1085px" zoomAndPan="magnify"><defs><filter height="300%" id="f1noory42w1y75" width="300%" x="-1" y="-1"><feGaussianBlur result="blurOut" stdDeviation="2.0"/><feColorMatrix in="blurOut" result="blurOut2" type="matrix" values="0 0 0 0 0 0 0 0 0 0 0 0 0 0 0 0 0 0 .4 0"/><feOffset dx="4.0" dy="4.0" in="blurOut2" result="blurOut3"/><feBlend in="SourceGraphic" in2="blurOut3" mode="normal"/></filter></defs><g><!--cluster PredictionService--><polygon fill="#FFFFFF" filter="url(#f1noory42w1y75)" points="14,26,24,16,1063,16,1063,469,1053,479,14,479,14,26" style="stroke: #000000; stroke-width: 1.5;"/><line style="stroke: #000000; stroke-width: 1.5;" x1="1053" x2="1062" y1="26" y2="17"/><line style="stroke: #000000; stroke-width: 1.5;" x1="14" x2="1053" y1="26" y2="26"/><line style="stroke: #000000; stroke-width: 1.5;" x1="1053" x2="1053" y1="26" y2="479"/><text fill="#000000" font-family="sans-serif" font-size="14" font-weight="bold" lengthAdjust="spacingAndGlyphs" textLength="144" x="462.5" y="41.9951">Prediction Service</text><!--cluster Engine--><polygon fill="#FFFFFF" filter="url(#f1noory42w1y75)" points="22,252.5,81,252.5,88,274.7969,856,274.7969,856,342.5,22,342.5,22,252.5" style="stroke: #000000; stroke-width: 1.5;"/><line style="stroke: #000000; stroke-width: 1.5;" x1="22" x2="88" y1="274.7969" y2="274.7969"/><text fill="#000000" font-family="sans-serif" font-size="14" font-weight="bold" lengthAdjust="spacingAndGlyphs" textLength="53" x="26" y="267.4951">Engine</text><!--class DataFeedDecoder--><rect fill="#FEFECE" filter="url(#f1noory42w1y75)" height="48" id="DataFeedDecoder" style="stroke: #A80036; stroke-width: 1.5;" width="146" x="661" y="156"/><ellipse cx="676" cy="172" fill="#ADD1B2" rx="11" ry="11" style="stroke: #A80036; stroke-width: 1.0;"/><path d="M678.9688,177.6406 Q678.3906,177.9375 677.75,178.0859 Q677.1094,178.2344 676.4063,178.2344 Q673.9063,178.2344 672.5859,176.5859 Q671.2656,174.9375 671.2656,171.8125 Q671.2656,168.6875 672.5859,167.0313 Q673.9063,165.375 676.4063,165.375 Q677.1094,165.375 677.7578,165.5313 Q678.4063,165.6875 678.9688,165.9844 L678.9688,168.7031 Q678.3438,168.125 677.75,167.8516 Q677.1563,167.5781 676.5313,167.5781 Q675.1875,167.5781 674.5,168.6484 Q673.8125,169.7188 673.8125,171.8125 Q673.8125,173.9063 674.5,174.9766 Q675.1875,176.0469 676.5313,176.0469 Q677.1563,176.0469 677.75,175.7734 Q678.3438,175.5 678.9688,174.9219 L678.9688,177.6406 Z "/><text fill="#000000" font-family="sans-serif" font-size="12" lengthAdjust="spacingAndGlyphs" textLength="114" x="690" y="176.1543">DataFeedDecoder</text><line style="stroke: #A80036; stroke-width: 1.5;" x1="662" x2="806" y1="188" y2="188"/><line style="stroke: #A80036; stroke-width: 1.5;" x1="662" x2="806" y1="196" y2="196"/><!--class DebugDataFeedClientThread--><rect fill="#FEFECE" filter="url(#f1noory42w1y75)" height="48" id="DebugDataFeedClientThread" style="stroke: #A80036; stroke-width: 1.5;" width="213" x="842.5" y="156"/><ellipse cx="857.5" cy="172" fill="#ADD1B2" rx="11" ry="11" style="stroke: #A80036; stroke-width: 1.0;"/><path d="M860.4688,177.6406 Q859.8906,177.9375 859.25,178.0859 Q858.6094,178.2344 857.9063,178.2344 Q855.4063,178.2344 854.0859,176.5859 Q852.7656,174.9375 852.7656,171.8125 Q852.7656,168.6875 854.0859,167.0313 Q855.4063,165.375 857.9063,165.375 Q858.6094,165.375 859.2578,165.5313 Q859.9063,165.6875 860.4688,165.9844 L860.4688,168.7031 Q859.8438,168.125 859.25,167.8516 Q858.6563,167.5781 858.0313,167.5781 Q856.6875,167.5781 856,168.6484 Q855.3125,169.7188 855.3125,171.8125 Q855.3125,173.9063 856,174.9766 Q856.6875,176.0469 858.0313,176.0469 Q858.6563,176.0469 859.25,175.7734 Q859.8438,175.5 860.4688,174.9219 L860.4688,177.6406 Z "/><text fill="#000000" font-family="sans-serif" font-size="12" lengthAdjust="spacingAndGlyphs" textLength="181" x="871.5" y="176.1543">DebugDataFeedClientThread</text><line style="stroke: #A80036; stroke-width: 1.5;" x1="843.5" x2="1054.5" y1="188" y2="188"/><line style="stroke: #A80036; stroke-width: 1.5;" x1="843.5" x2="1054.5" y1="196" y2="196"/><!--class Cat62Decoder--><rect fill="#FEFECE" filter="url(#f1noory42w1y75)" height="48" id="Cat62Decoder" style="stroke: #A80036; stroke-width: 1.5;" width="122" x="750" y="48"/><ellipse cx="765" cy="64" fill="#ADD1B2" rx="11" ry="11" style="stroke: #A80036; stroke-width: 1.0;"/><path d="M767.9688,69.6406 Q767.3906,69.9375 766.75,70.0859 Q766.1094,70.2344 765.4063,70.2344 Q762.9063,70.2344 761.5859,68.5859 Q760.2656,66.9375 760.2656,63.8125 Q760.2656,60.6875 761.5859,59.0313 Q762.9063,57.375 765.4063,57.375 Q766.1094,57.375 766.7578,57.5313 Q767.4063,57.6875 767.9688,57.9844 L767.9688,60.7031 Q767.3438,60.125 766.75,59.8516 Q766.1563,59.5781 765.5313,59.5781 Q764.1875,59.5781 763.5,60.6484 Q762.8125,61.7188 762.8125,63.8125 Q762.8125,65.9063 763.5,66.9766 Q764.1875,68.0469 765.5313,68.0469 Q766.1563,68.0469 766.75,67.7734 Q767.3438,67.5 767.9688,66.9219 L767.9688,69.6406 Z "/><text fill="#000000" font-family="sans-serif" font-size="12" lengthAdjust="spacingAndGlyphs" textLength="90" x="779" y="68.1543">Cat62Decoder</text><line style="stroke: #A80036; stroke-width: 1.5;" x1="751" x2="871" y1="80" y2="80"/><line style="stroke: #A80036; stroke-width: 1.5;" x1="751" x2="871" y1="88" y2="88"/><!--class ADSBDecoder--><rect fill="#FEFECE" filter="url(#f1noory42w1y75)" height="48" id="ADSBDecoder" style="stroke: #A80036; stroke-width: 1.5;" width="118" x="597" y="48"/><ellipse cx="612" cy="64" fill="#ADD1B2" rx="11" ry="11" style="stroke: #A80036; stroke-width: 1.0;"/><path d="M614.9688,69.6406 Q614.3906,69.9375 613.75,70.0859 Q613.1094,70.2344 612.4063,70.2344 Q609.9063,70.2344 608.5859,68.5859 Q607.2656,66.9375 607.2656,63.8125 Q607.2656,60.6875 608.5859,59.0313 Q609.9063,57.375 612.4063,57.375 Q613.1094,57.375 613.7578,57.5313 Q614.4063,57.6875 614.9688,57.9844 L614.9688,60.7031 Q614.3438,60.125 613.75,59.8516 Q613.1563,59.5781 612.5313,59.5781 Q611.1875,59.5781 610.5,60.6484 Q609.8125,61.7188 609.8125,63.8125 Q609.8125,65.9063 610.5,66.9766 Q611.1875,68.0469 612.5313,68.0469 Q613.1563,68.0469 613.75,67.7734 Q614.3438,67.5 614.9688,66.9219 L614.9688,69.6406 Z "/><text fill="#000000" font-family="sans-serif" font-size="12" lengthAdjust="spacingAndGlyphs" textLength="86" x="626" y="68.1543">ADSBDecoder</text><line style="stroke: #A80036; stroke-width: 1.5;" x1="598" x2="714" y1="80" y2="80"/><line style="stroke: #A80036; stroke-width: 1.5;" x1="598" x2="714" y1="88" y2="88"/><!--class SystemStateDatabase--><rect fill="#FEFECE" filter="url(#f1noory42w1y75)" height="86.4141" id="SystemStateDatabase" style="stroke: #A80036; stroke-width: 1.5;" width="172" x="883" y="264"/><ellipse cx="898" cy="280" fill="#ADD1B2" rx="11" ry="11" style="stroke: #A80036; stroke-width: 1.0;"/><path d="M900.9688,285.6406 Q900.3906,285.9375 899.75,286.0859 Q899.1094,286.2344 898.4063,286.2344 Q895.9063,286.2344 894.5859,284.5859 Q893.2656,282.9375 893.2656,279.8125 Q893.2656,276.6875 894.5859,275.0313 Q895.9063,273.375 898.4063,273.375 Q899.1094,273.375 899.7578,273.5313 Q900.4063,273.6875 900.9688,273.9844 L900.9688,276.7031 Q900.3438,276.125 899.75,275.8516 Q899.1563,275.5781 898.5313,275.5781 Q897.1875,275.5781 896.5,276.6484 Q895.8125,277.7188 895.8125,279.8125 Q895.8125,281.9063 896.5,282.9766 Q897.1875,284.0469 898.5313,284.0469 Q899.1563,284.0469 899.75,283.7734 Q900.3438,283.5 900.9688,282.9219 L900.9688,285.6406 Z "/><text fill="#000000" font-family="sans-serif" font-size="12" lengthAdjust="spacingAndGlyphs" textLength="140" x="912" y="284.1543">SystemStateDatabase</text><line style="stroke: #A80036; stroke-width: 1.5;" x1="884" x2="1054" y1="296" y2="296"/><line style="stroke: #A80036; stroke-width: 1.5;" x1="884" x2="1054" y1="304" y2="304"/><ellipse cx="894" cy="315.9023" fill="#84BE84" rx="3" ry="3" style="stroke: #038048; stroke-width: 1.0;"/><text fill="#000000" font-family="sans-serif" font-size="11" lengthAdjust="spacingAndGlyphs" textLength="118" x="903" y="318.2104">update(AircraftState)</text><ellipse cx="894" cy="328.707" fill="#84BE84" rx="3" ry="3" style="stroke: #038048; stroke-width: 1.0;"/><text fill="#000000" font-family="sans-serif" font-size="11" lengthAdjust="spacingAndGlyphs" textLength="126" x="903" y="331.0151">update(AircraftState[])</text><ellipse cx="894" cy="341.5117" fill="#84BE84" rx="3" ry="3" style="stroke: #038048; stroke-width: 1.0;"/><text fill="#000000" font-family="sans-serif" font-size="11" lengthAdjust="spacingAndGlyphs" textLength="146" x="903" y="343.8198">getTrack(string aircraftID)</text><!--class SystemStateDatabaseListener--><rect fill="#FEFECE" filter="url(#f1noory42w1y75)" height="60.8047" id="SystemStateDatabaseListener" style="stroke: #A80036; stroke-width: 1.5;" width="221" x="751.5" y="410"/><ellipse cx="766.5" cy="426" fill="#B4A7E5" rx="11" ry="11" style="stroke: #A80036; stroke-width: 1.0;"/><path d="M762.4219,421.7656 L762.4219,419.6094 L769.8125,419.6094 L769.8125,421.7656 L767.3438,421.7656 L767.3438,429.8438 L769.8125,429.8438 L769.8125,432 L762.4219,432 L762.4219,429.8438 L764.8906,429.8438 L764.8906,421.7656 L762.4219,421.7656 Z "/><text fill="#000000" font-family="sans-serif" font-size="12" font-style="italic" lengthAdjust="spacingAndGlyphs" textLength="189" x="780.5" y="430.1543">SystemStateDatabaseListener</text><line style="stroke: #A80036; stroke-width: 1.5;" x1="752.5" x2="971.5" y1="442" y2="442"/><line style="stroke: #A80036; stroke-width: 1.5;" x1="752.5" x2="971.5" y1="450" y2="450"/><ellipse cx="762.5" cy="461.9023" fill="#84BE84" rx="3" ry="3" style="stroke: #038048; stroke-width: 1.0;"/><text fill="#000000" font-family="sans-serif" font-size="11" lengthAdjust="spacingAndGlyphs" textLength="187" x="771.5" y="464.2104">systemStateUpdated(aircraftID[])</text><!--class PredictionFeedServer--><rect fill="#FEFECE" filter="url(#f1noory42w1y75)" height="48" id="PredictionFeedServer" style="stroke: #A80036; stroke-width: 1.5;" width="166" x="41" y="156"/><ellipse cx="56" cy="172" fill="#ADD1B2" rx="11" ry="11" style="stroke: #A80036; stroke-width: 1.0;"/><path d="M58.9688,177.6406 Q58.3906,177.9375 57.75,178.0859 Q57.1094,178.2344 56.4063,178.2344 Q53.9063,178.2344 52.5859,176.5859 Q51.2656,174.9375 51.2656,171.8125 Q51.2656,168.6875 52.5859,167.0313 Q53.9063,165.375 56.4063,165.375 Q57.1094,165.375 57.7578,165.5313 Q58.4063,165.6875 58.9688,165.9844 L58.9688,168.7031 Q58.3438,168.125 57.75,167.8516 Q57.1563,167.5781 56.5313,167.5781 Q55.1875,167.5781 54.5,168.6484 Q53.8125,169.7188 53.8125,171.8125 Q53.8125,173.9063 54.5,174.9766 Q55.1875,176.0469 56.5313,176.0469 Q57.1563,176.0469 57.75,175.7734 Q58.3438,175.5 58.9688,174.9219 L58.9688,177.6406 Z "/><text fill="#000000" font-family="sans-serif" font-size="12" lengthAdjust="spacingAndGlyphs" textLength="134" x="70" y="176.1543">PredictionFeedServer</text><line style="stroke: #A80036; stroke-width: 1.5;" x1="42" x2="206" y1="188" y2="188"/><line style="stroke: #A80036; stroke-width: 1.5;" x1="42" x2="206" y1="196" y2="196"/><path d="M253,279.5 L253,334.8984 L675,334.8984 L675,289.5 L665,279.5 L253,279.5 " fill="#FBFB77" filter="url(#f1noory42w1y75)" style="stroke: #A80036; stroke-width: 1.0;"/><path d="M665,279.5 L665,289.5 L675,289.5 L665,279.5 " fill="#FBFB77" style="stroke: #A80036; stroke-width: 1.0;"/><text fill="#000000" font-family="sans-serif" font-size="13" lengthAdjust="spacingAndGlyphs" textLength="362" x="259" y="296.5669">This package contains the core prediction functionality of</text><text fill="#000000" font-family="sans-serif" font-size="13" lengthAdjust="spacingAndGlyphs" textLength="401" x="259" y="311.6997">the prediction service package. See the Engine documentation</text><text fill="#000000" font-family="sans-serif" font-size="13" lengthAdjust="spacingAndGlyphs" textLength="183" x="259" y="326.8325">for a more detailed diagram.</text><!--class PredictionEngine--><rect fill="#FEFECE" filter="url(#f1noory42w1y75)" height="48" id="PredictionEngine" style="stroke: #A80036; stroke-width: 1.5;" width="138" x="710" y="283"/><ellipse cx="725" cy="299" fill="#ADD1B2" rx="11" ry="11" style="stroke: #A80036; stroke-width: 1.0;"/><path d="M727.9688,304.6406 Q727.3906,304.9375 726.75,305.0859 Q726.1094,305.2344 725.4063,305.2344 Q722.9063,305.2344 721.5859,303.5859 Q720.2656,301.9375 720.2656,298.8125 Q720.2656,295.6875 721.5859,294.0313 Q722.9063,292.375 725.4063,292.375 Q726.1094,292.375 726.7578,292.5313 Q727.4063,292.6875 727.9688,292.9844 L727.9688,295.7031 Q727.3438,295.125 726.75,294.8516 Q726.1563,294.5781 725.5313,294.5781 Q724.1875,294.5781 723.5,295.6484 Q722.8125,296.7188 722.8125,298.8125 Q722.8125,300.9063 723.5,301.9766 Q724.1875,303.0469 725.5313,303.0469 Q726.1563,303.0469 726.75,302.7734 Q727.3438,302.5 727.9688,301.9219 L727.9688,304.6406 Z "/><text fill="#000000" font-family="sans-serif" font-size="12" lengthAdjust="spacingAndGlyphs" textLength="106" x="739" y="303.1543">PredictionEngine</text><line style="stroke: #A80036; stroke-width: 1.5;" x1="711" x2="847" y1="315" y2="315"/><line style="stroke: #A80036; stroke-width: 1.5;" x1="711" x2="847" y1="323" y2="323"/><!--class PredictionEngineListener--><rect fill="#FEFECE" filter="url(#f1noory42w1y75)" height="48" id="PredictionEngineListener" style="stroke: #A80036; stroke-width: 1.5;" width="188" x="30" y="283"/><ellipse cx="45" cy="299" fill="#ADD1B2" rx="11" ry="11" style="stroke: #A80036; stroke-width: 1.0;"/><path d="M47.9688,304.6406 Q47.3906,304.9375 46.75,305.0859 Q46.1094,305.2344 45.4063,305.2344 Q42.9063,305.2344 41.5859,303.5859 Q40.2656,301.9375 40.2656,298.8125 Q40.2656,295.6875 41.5859,294.0313 Q42.9063,292.375 45.4063,292.375 Q46.1094,292.375 46.7578,292.5313 Q47.4063,292.6875 47.9688,292.9844 L47.9688,295.7031 Q47.3438,295.125 46.75,294.8516 Q46.1563,294.5781 45.5313,294.5781 Q44.1875,294.5781 43.5,295.6484 Q42.8125,296.7188 42.8125,298.8125 Q42.8125,300.9063 43.5,301.9766 Q44.1875,303.0469 45.5313,303.0469 Q46.1563,303.0469 46.75,302.7734 Q47.3438,302.5 47.9688,301.9219 L47.9688,304.6406 Z "/><text fill="#000000" font-family="sans-serif" font-size="12" lengthAdjust="spacingAndGlyphs" textLength="156" x="59" y="303.1543">PredictionEngineListener</text><line style="stroke: #A80036; stroke-width: 1.5;" x1="31" x2="217" y1="315" y2="315"/><line style="stroke: #A80036; stroke-width: 1.5;" x1="31" x2="217" y1="323" y2="323"/><!--link PredictionEngine to SystemStateDatabaseListener--><path d="M794.0307,331.1758 C804.707,348.348 819.3946,371.972 832.3853,392.8667 " fill="none" id="PredictionEngine-SystemStateDatabaseListener" style="stroke: #A80036; stroke-width: 1.0; stroke-dasharray: 7.0,7.0;"/><polygon fill="none" points="838.3811,389.2529,842.9963,409.9339,826.4916,396.6449,838.3811,389.2529" style="stroke: #A80036; stroke-width: 1.0;"/><!--link SystemStateDatabase to SystemStateDatabaseListener--><path d="M926.0865,360.5416 C912.7179,377.2212 898.4306,395.0469 886.7464,409.6248 " fill="none" id="SystemStateDatabase-SystemStateDatabaseListener" style="stroke: #A80036; stroke-width: 1.0;"/><polygon fill="#FFFFFF" points="934.2602,350.3436,927.3866,352.5238,926.7553,359.7072,933.6289,357.527,934.2602,350.3436" style="stroke: #A80036; stroke-width: 1.0;"/><!--link PredictionFeedServer to PredictionEngineListener--><path d="M124,204.1867 C124,220.6939 124,243.0447 124,262.6906 " fill="none" id="PredictionFeedServer-PredictionEngineListener" style="stroke: #A80036; stroke-width: 1.0; stroke-dasharray: 7.0,7.0;"/><polygon fill="none" points="131.0001,262.9034,124,282.9034,117.0001,262.9034,131.0001,262.9034" style="stroke: #A80036; stroke-width: 1.0;"/><!--link DebugDataFeedClientThread to SystemStateDatabase--><path d="M954.884,217.3637 C957.1819,231.9548 959.8309,248.7762 962.2091,263.8776 " fill="none" id="DebugDataFeedClientThread-SystemStateDatabase" style="stroke: #A80036; stroke-width: 1.0;"/><polygon fill="#FFFFFF" points="952.8089,204.1867,949.791,210.7359,954.6756,216.0406,957.6936,209.4914,952.8089,204.1867" style="stroke: #A80036; stroke-width: 1.0;"/><!--link Cat62Decoder to DataFeedDecoder--><path d="M793.7197,96.2373 C784.7041,108.8826 773.4308,124.6944 763.1149,139.1635 " fill="none" id="Cat62Decoder-DataFeedDecoder" style="stroke: #A80036; stroke-width: 1.0;"/><polygon fill="none" points="768.5329,143.6224,751.2226,155.8436,757.1335,135.495,768.5329,143.6224" style="stroke: #A80036; stroke-width: 1.0;"/><!--link ADSBDecoder to DataFeedDecoder--><path d="M673.5047,96.2373 C682.6374,108.8826 694.0571,124.6944 704.507,139.1635 " fill="none" id="ADSBDecoder-DataFeedDecoder" style="stroke: #A80036; stroke-width: 1.0;"/><polygon fill="none" points="710.5186,135.5315,716.5537,155.8436,699.1691,143.7284,710.5186,135.5315" style="stroke: #A80036; stroke-width: 1.0;"/><!--link SystemStateDatabase to PredictionEngine--><path d="M882.9932,307 C875.7079,307 868.4225,307 861.1371,307 " fill="none" id="SystemStateDatabase-PredictionEngine" style="stroke: #A80036; stroke-width: 1.0;"/><polygon fill="#FFFFFF" points="848.0234,307,854.0234,311,860.0234,307,854.0234,303,848.0234,307" style="stroke: #A80036; stroke-width: 1.0;"/><!--link DataFeedDecoder to DebugDataFeedClientThread--><path d="M827.1449,180 C832.1875,180 837.23,180 842.2726,180 " fill="none" id="DataFeedDecoder-DebugDataFeedClientThread" style="stroke: #A80036; stroke-width: 1.0;"/><polygon fill="none" points="827.0664,186.9999,807.0664,180,827.0664,172.9999,827.0664,186.9999" style="stroke: #A80036; stroke-width: 1.0;"/><!--
@startuml

package "Prediction Service" as PredictionService <<Node>> {
  class DataFeedDecoder
  class DebugDataFeedClientThread
  class Cat62Decoder
  class ADSBDecoder




  class SystemStateDatabase {
    +update(AircraftState)
    +update(AircraftState[])
    +getTrack(string aircraftID)
  }

  interface SystemStateDatabaseListener {
    +systemStateUpdated(aircraftID[])
  }

  package Engine {
    note as EngineN
    This package contains the core prediction functionality of
    the prediction service package. See the Engine documentation
    for a more detailed diagram.
    end note
    class PredictionEngine
    class PredictionEngineListener
  }

   PredictionEngine ..|> SystemStateDatabaseListener
   SystemStateDatabase o- - SystemStateDatabaseListener



  class PredictionFeedServer

  PredictionFeedServer ..|> PredictionEngineListener

  DebugDataFeedClientThread o-down- SystemStateDatabase
  Cat62Decoder -down-|> DataFeedDecoder
  ADSBDecoder -down-|> DataFeedDecoder
  SystemStateDatabase -left-o PredictionEngine


  DataFeedDecoder <|-right- DebugDataFeedClientThread


}


@enduml

PlantUML version 1.2018.05(Sun May 06 06:00:17 AEST 2018)
(GPL source distribution)
Java Runtime: OpenJDK Runtime Environment
JVM: OpenJDK 64-Bit Server VM
Java Version: 1.8.0_162-b12
Operating System: Linux
OS Version: 4.16.3-1-ARCH
Default Encoding: UTF-8
Language: en
Country: US
--></g></svg>