<?xml version="1.0" encoding="UTF-8" standalone="no"?><svg xmlns="http://www.w3.org/2000/svg" xmlns:xlink="http://www.w3.org/1999/xlink" contentScriptType="application/ecmascript" contentStyleType="text/css" height="733px" preserveAspectRatio="none" style="width:4772px;height:733px;" version="1.1" viewBox="0 0 4772 733" width="4772px" zoomAndPan="magnify"><defs><filter height="300%" id="fu40fmv71v75w" width="300%" x="-1" y="-1"><feGaussianBlur result="blurOut" stdDeviation="2.0"/><feColorMatrix in="blurOut" result="blurOut2" type="matrix" values="0 0 0 0 0 0 0 0 0 0 0 0 0 0 0 0 0 0 .4 0"/><feOffset dx="4.0" dy="4.0" in="blurOut2" result="blurOut3"/><feBlend in="SourceGraphic" in2="blurOut3" mode="normal"/></filter></defs><g><!--cluster display--><polygon fill="#FFFFFF" filter="url(#fu40fmv71v75w)" points="14,26,24,16,4750,16,4750,711,4740,721,14,721,14,26" style="stroke: #000000; stroke-width: 1.5;"/><line style="stroke: #000000; stroke-width: 1.5;" x1="4740" x2="4749" y1="26" y2="17"/><line style="stroke: #000000; stroke-width: 1.5;" x1="14" x2="4740" y1="26" y2="26"/><line style="stroke: #000000; stroke-width: 1.5;" x1="4740" x2="4740" y1="26" y2="721"/><text fill="#000000" font-family="sans-serif" font-size="14" font-weight="bold" lengthAdjust="spacingAndGlyphs" textLength="55" x="2350.5" y="41.9951">display</text><!--cluster model--><polygon fill="#FFFFFF" filter="url(#fu40fmv71v75w)" points="3757,314,3811,314,3818,336.2969,4742,336.2969,4742,505,3757,505,3757,314" style="stroke: #000000; stroke-width: 1.5;"/><line style="stroke: #000000; stroke-width: 1.5;" x1="3757" x2="3818" y1="336.2969" y2="336.2969"/><text fill="#000000" font-family="sans-serif" font-size="14" font-weight="bold" lengthAdjust="spacingAndGlyphs" textLength="48" x="3761" y="328.9951">model</text><!--cluster view--><polygon fill="#FFFFFF" filter="url(#fu40fmv71v75w)" points="405,48,448,48,455,70.2969,3749,70.2969,3749,405,405,405,405,48" style="stroke: #000000; stroke-width: 1.5;"/><line style="stroke: #000000; stroke-width: 1.5;" x1="405" x2="455" y1="70.2969" y2="70.2969"/><text fill="#000000" font-family="sans-serif" font-size="14" font-weight="bold" lengthAdjust="spacingAndGlyphs" textLength="37" x="409" y="62.9951">view</text><!--cluster vector_text--><polygon fill="#FFFFFF" filter="url(#fu40fmv71v75w)" points="3347,75,3442,75,3449,97.2969,3741,97.2969,3741,181,3347,181,3347,75" style="stroke: #000000; stroke-width: 1.5;"/><line style="stroke: #000000; stroke-width: 1.5;" x1="3347" x2="3449" y1="97.2969" y2="97.2969"/><text fill="#000000" font-family="sans-serif" font-size="14" font-weight="bold" lengthAdjust="spacingAndGlyphs" textLength="89" x="3351" y="89.9951">vector_text</text><!--cluster model_instance_providers--><polygon fill="#FFFFFF" filter="url(#fu40fmv71v75w)" points="1602,86.5,1813,86.5,1820,108.7969,3328,108.7969,3328,397,1602,397,1602,86.5" style="stroke: #000000; stroke-width: 1.5;"/><line style="stroke: #000000; stroke-width: 1.5;" x1="1602" x2="1820" y1="108.7969" y2="108.7969"/><text fill="#000000" font-family="sans-serif" font-size="14" font-weight="bold" lengthAdjust="spacingAndGlyphs" textLength="205" x="1606" y="101.4951">model_instance_providers</text><!--cluster shaders--><polygon fill="#FFFFFF" filter="url(#fu40fmv71v75w)" points="1188,98,1258,98,1265,120.2969,1582,120.2969,1582,158,1188,158,1188,98" style="stroke: #000000; stroke-width: 1.5;"/><line style="stroke: #000000; stroke-width: 1.5;" x1="1188" x2="1265" y1="120.2969" y2="120.2969"/><text fill="#000000" font-family="sans-serif" font-size="14" font-weight="bold" lengthAdjust="spacingAndGlyphs" textLength="64" x="1192" y="112.9951">shaders</text><!--cluster shapes--><polygon fill="#FFFFFF" filter="url(#fu40fmv71v75w)" points="986,86.5,1049,86.5,1056,108.7969,1168,108.7969,1168,169.5,986,169.5,986,86.5" style="stroke: #000000; stroke-width: 1.5;"/><line style="stroke: #000000; stroke-width: 1.5;" x1="986" x2="1056" y1="108.7969" y2="108.7969"/><text fill="#000000" font-family="sans-serif" font-size="14" font-weight="bold" lengthAdjust="spacingAndGlyphs" textLength="57" x="990" y="101.4951">shapes</text><!--class CameraBatch--><rect fill="#FEFECE" filter="url(#fu40fmv71v75w)" height="48" id="CameraBatch" style="stroke: #A80036; stroke-width: 1.5;" width="116" x="262" y="113.5"/><ellipse cx="277" cy="129.5" fill="#ADD1B2" rx="11" ry="11" style="stroke: #A80036; stroke-width: 1.0;"/><path d="M279.9688,135.1406 Q279.3906,135.4375 278.75,135.5859 Q278.1094,135.7344 277.4063,135.7344 Q274.9063,135.7344 273.5859,134.0859 Q272.2656,132.4375 272.2656,129.3125 Q272.2656,126.1875 273.5859,124.5313 Q274.9063,122.875 277.4063,122.875 Q278.1094,122.875 278.7578,123.0313 Q279.4063,123.1875 279.9688,123.4844 L279.9688,126.2031 Q279.3438,125.625 278.75,125.3516 Q278.1563,125.0781 277.5313,125.0781 Q276.1875,125.0781 275.5,126.1484 Q274.8125,127.2188 274.8125,129.3125 Q274.8125,131.4063 275.5,132.4766 Q276.1875,133.5469 277.5313,133.5469 Q278.1563,133.5469 278.75,133.2734 Q279.3438,133 279.9688,132.4219 L279.9688,135.1406 Z "/><text fill="#000000" font-family="sans-serif" font-size="12" lengthAdjust="spacingAndGlyphs" textLength="84" x="291" y="133.6543">CameraBatch</text><line style="stroke: #A80036; stroke-width: 1.5;" x1="263" x2="377" y1="145.5" y2="145.5"/><line style="stroke: #A80036; stroke-width: 1.5;" x1="263" x2="377" y1="153.5" y2="153.5"/><!--class DisplayApplication--><rect fill="#FEFECE" filter="url(#fu40fmv71v75w)" height="48" id="DisplayApplication" style="stroke: #A80036; stroke-width: 1.5;" width="145" x="2924.5" y="557"/><ellipse cx="2939.5" cy="573" fill="#ADD1B2" rx="11" ry="11" style="stroke: #A80036; stroke-width: 1.0;"/><path d="M2942.4688,578.6406 Q2941.8906,578.9375 2941.25,579.0859 Q2940.6094,579.2344 2939.9063,579.2344 Q2937.4063,579.2344 2936.0859,577.5859 Q2934.7656,575.9375 2934.7656,572.8125 Q2934.7656,569.6875 2936.0859,568.0313 Q2937.4063,566.375 2939.9063,566.375 Q2940.6094,566.375 2941.2578,566.5313 Q2941.9063,566.6875 2942.4688,566.9844 L2942.4688,569.7031 Q2941.8438,569.125 2941.25,568.8516 Q2940.6563,568.5781 2940.0313,568.5781 Q2938.6875,568.5781 2938,569.6484 Q2937.3125,570.7188 2937.3125,572.8125 Q2937.3125,574.9063 2938,575.9766 Q2938.6875,577.0469 2940.0313,577.0469 Q2940.6563,577.0469 2941.25,576.7734 Q2941.8438,576.5 2942.4688,575.9219 L2942.4688,578.6406 Z "/><text fill="#000000" font-family="sans-serif" font-size="12" lengthAdjust="spacingAndGlyphs" textLength="113" x="2953.5" y="577.1543">DisplayApplication</text><line style="stroke: #A80036; stroke-width: 1.5;" x1="2925.5" x2="3068.5" y1="589" y2="589"/><line style="stroke: #A80036; stroke-width: 1.5;" x1="2925.5" x2="3068.5" y1="597" y2="597"/><!--class LayerManager--><rect fill="#FEFECE" filter="url(#fu40fmv71v75w)" height="48" id="LayerManager" style="stroke: #A80036; stroke-width: 1.5;" width="120" x="277" y="341"/><ellipse cx="292" cy="357" fill="#ADD1B2" rx="11" ry="11" style="stroke: #A80036; stroke-width: 1.0;"/><path d="M294.9688,362.6406 Q294.3906,362.9375 293.75,363.0859 Q293.1094,363.2344 292.4063,363.2344 Q289.9063,363.2344 288.5859,361.5859 Q287.2656,359.9375 287.2656,356.8125 Q287.2656,353.6875 288.5859,352.0313 Q289.9063,350.375 292.4063,350.375 Q293.1094,350.375 293.7578,350.5313 Q294.4063,350.6875 294.9688,350.9844 L294.9688,353.7031 Q294.3438,353.125 293.75,352.8516 Q293.1563,352.5781 292.5313,352.5781 Q291.1875,352.5781 290.5,353.6484 Q289.8125,354.7188 289.8125,356.8125 Q289.8125,358.9063 290.5,359.9766 Q291.1875,361.0469 292.5313,361.0469 Q293.1563,361.0469 293.75,360.7734 Q294.3438,360.5 294.9688,359.9219 L294.9688,362.6406 Z "/><text fill="#000000" font-family="sans-serif" font-size="12" lengthAdjust="spacingAndGlyphs" textLength="88" x="306" y="361.1543">LayerManager</text><line style="stroke: #A80036; stroke-width: 1.5;" x1="278" x2="396" y1="373" y2="373"/><line style="stroke: #A80036; stroke-width: 1.5;" x1="278" x2="396" y1="381" y2="381"/><!--class PredictionFeedClientThread--><rect fill="#FEFECE" filter="url(#fu40fmv71v75w)" height="48" id="PredictionFeedClientThread" style="stroke: #A80036; stroke-width: 1.5;" width="205" x="21.5" y="113.5"/><ellipse cx="36.5" cy="129.5" fill="#ADD1B2" rx="11" ry="11" style="stroke: #A80036; stroke-width: 1.0;"/><path d="M39.4688,135.1406 Q38.8906,135.4375 38.25,135.5859 Q37.6094,135.7344 36.9063,135.7344 Q34.4063,135.7344 33.0859,134.0859 Q31.7656,132.4375 31.7656,129.3125 Q31.7656,126.1875 33.0859,124.5313 Q34.4063,122.875 36.9063,122.875 Q37.6094,122.875 38.2578,123.0313 Q38.9063,123.1875 39.4688,123.4844 L39.4688,126.2031 Q38.8438,125.625 38.25,125.3516 Q37.6563,125.0781 37.0313,125.0781 Q35.6875,125.0781 35,126.1484 Q34.3125,127.2188 34.3125,129.3125 Q34.3125,131.4063 35,132.4766 Q35.6875,133.5469 37.0313,133.5469 Q37.6563,133.5469 38.25,133.2734 Q38.8438,133 39.4688,132.4219 L39.4688,135.1406 Z "/><text fill="#000000" font-family="sans-serif" font-size="12" lengthAdjust="spacingAndGlyphs" textLength="173" x="50.5" y="133.6543">PredictionFeedClientThread</text><line style="stroke: #A80036; stroke-width: 1.5;" x1="22.5" x2="225.5" y1="145.5" y2="145.5"/><line style="stroke: #A80036; stroke-width: 1.5;" x1="22.5" x2="225.5" y1="153.5" y2="153.5"/><!--class PredictionListener--><rect fill="#FEFECE" filter="url(#fu40fmv71v75w)" height="48" id="PredictionListener" style="stroke: #A80036; stroke-width: 1.5;" width="144" x="2829" y="665"/><ellipse cx="2844" cy="681" fill="#B4A7E5" rx="11" ry="11" style="stroke: #A80036; stroke-width: 1.0;"/><path d="M2839.9219,676.7656 L2839.9219,674.6094 L2847.3125,674.6094 L2847.3125,676.7656 L2844.8438,676.7656 L2844.8438,684.8438 L2847.3125,684.8438 L2847.3125,687 L2839.9219,687 L2839.9219,684.8438 L2842.3906,684.8438 L2842.3906,676.7656 L2839.9219,676.7656 Z "/><text fill="#000000" font-family="sans-serif" font-size="12" font-style="italic" lengthAdjust="spacingAndGlyphs" textLength="112" x="2858" y="685.1543">PredictionListener</text><line style="stroke: #A80036; stroke-width: 1.5;" x1="2830" x2="2972" y1="697" y2="697"/><line style="stroke: #A80036; stroke-width: 1.5;" x1="2830" x2="2972" y1="705" y2="705"/><!--class RenderLayer--><rect fill="#FEFECE" filter="url(#fu40fmv71v75w)" height="48" id="RenderLayer" style="stroke: #A80036; stroke-width: 1.5;" width="110" x="284" y="233"/><ellipse cx="299" cy="249" fill="#ADD1B2" rx="11" ry="11" style="stroke: #A80036; stroke-width: 1.0;"/><path d="M301.9688,254.6406 Q301.3906,254.9375 300.75,255.0859 Q300.1094,255.2344 299.4063,255.2344 Q296.9063,255.2344 295.5859,253.5859 Q294.2656,251.9375 294.2656,248.8125 Q294.2656,245.6875 295.5859,244.0313 Q296.9063,242.375 299.4063,242.375 Q300.1094,242.375 300.7578,242.5313 Q301.4063,242.6875 301.9688,242.9844 L301.9688,245.7031 Q301.3438,245.125 300.75,244.8516 Q300.1563,244.5781 299.5313,244.5781 Q298.1875,244.5781 297.5,245.6484 Q296.8125,246.7188 296.8125,248.8125 Q296.8125,250.9063 297.5,251.9766 Q298.1875,253.0469 299.5313,253.0469 Q300.1563,253.0469 300.75,252.7734 Q301.3438,252.5 301.9688,251.9219 L301.9688,254.6406 Z "/><text fill="#000000" font-family="sans-serif" font-size="12" lengthAdjust="spacingAndGlyphs" textLength="78" x="313" y="253.1543">RenderLayer</text><line style="stroke: #A80036; stroke-width: 1.5;" x1="285" x2="393" y1="265" y2="265"/><line style="stroke: #A80036; stroke-width: 1.5;" x1="285" x2="393" y1="273" y2="273"/><!--class DataPlaybackListener--><rect fill="#FEFECE" filter="url(#fu40fmv71v75w)" height="48" id="DataPlaybackListener" style="stroke: #A80036; stroke-width: 1.5;" width="167" x="3008.5" y="665"/><ellipse cx="3023.5" cy="681" fill="#ADD1B2" rx="11" ry="11" style="stroke: #A80036; stroke-width: 1.0;"/><path d="M3026.4688,686.6406 Q3025.8906,686.9375 3025.25,687.0859 Q3024.6094,687.2344 3023.9063,687.2344 Q3021.4063,687.2344 3020.0859,685.5859 Q3018.7656,683.9375 3018.7656,680.8125 Q3018.7656,677.6875 3020.0859,676.0313 Q3021.4063,674.375 3023.9063,674.375 Q3024.6094,674.375 3025.2578,674.5313 Q3025.9063,674.6875 3026.4688,674.9844 L3026.4688,677.7031 Q3025.8438,677.125 3025.25,676.8516 Q3024.6563,676.5781 3024.0313,676.5781 Q3022.6875,676.5781 3022,677.6484 Q3021.3125,678.7188 3021.3125,680.8125 Q3021.3125,682.9063 3022,683.9766 Q3022.6875,685.0469 3024.0313,685.0469 Q3024.6563,685.0469 3025.25,684.7734 Q3025.8438,684.5 3026.4688,683.9219 L3026.4688,686.6406 Z "/><text fill="#000000" font-family="sans-serif" font-size="12" lengthAdjust="spacingAndGlyphs" textLength="135" x="3037.5" y="685.1543">DataPlaybackListener</text><line style="stroke: #A80036; stroke-width: 1.5;" x1="3009.5" x2="3174.5" y1="697" y2="697"/><line style="stroke: #A80036; stroke-width: 1.5;" x1="3009.5" x2="3174.5" y1="705" y2="705"/><path d="M4448.5,345 L4448.5,385.2656 L4733.5,385.2656 L4733.5,355 L4723.5,345 L4448.5,345 " fill="#FBFB77" filter="url(#fu40fmv71v75w)" style="stroke: #A80036; stroke-width: 1.0;"/><path d="M4723.5,345 L4723.5,355 L4733.5,355 L4723.5,345 " fill="#FBFB77" style="stroke: #A80036; stroke-width: 1.0;"/><text fill="#000000" font-family="sans-serif" font-size="13" lengthAdjust="spacingAndGlyphs" textLength="264" x="4454.5" y="362.0669">This package  all the Model (of MVC) data</text><text fill="#000000" font-family="sans-serif" font-size="13" lengthAdjust="spacingAndGlyphs" textLength="167" x="4454.5" y="377.1997">for the display application.</text><!--class Display--><rect fill="#FEFECE" filter="url(#fu40fmv71v75w)" height="48" id="Display" style="stroke: #A80036; stroke-width: 1.5;" width="76" x="3886" y="449"/><ellipse cx="3901" cy="465" fill="#ADD1B2" rx="11" ry="11" style="stroke: #A80036; stroke-width: 1.0;"/><path d="M3903.9688,470.6406 Q3903.3906,470.9375 3902.75,471.0859 Q3902.1094,471.2344 3901.4063,471.2344 Q3898.9063,471.2344 3897.5859,469.5859 Q3896.2656,467.9375 3896.2656,464.8125 Q3896.2656,461.6875 3897.5859,460.0313 Q3898.9063,458.375 3901.4063,458.375 Q3902.1094,458.375 3902.7578,458.5313 Q3903.4063,458.6875 3903.9688,458.9844 L3903.9688,461.7031 Q3903.3438,461.125 3902.75,460.8516 Q3902.1563,460.5781 3901.5313,460.5781 Q3900.1875,460.5781 3899.5,461.6484 Q3898.8125,462.7188 3898.8125,464.8125 Q3898.8125,466.9063 3899.5,467.9766 Q3900.1875,469.0469 3901.5313,469.0469 Q3902.1563,469.0469 3902.75,468.7734 Q3903.3438,468.5 3903.9688,467.9219 L3903.9688,470.6406 Z "/><text fill="#000000" font-family="sans-serif" font-size="12" lengthAdjust="spacingAndGlyphs" textLength="44" x="3915" y="469.1543">Display</text><line style="stroke: #A80036; stroke-width: 1.5;" x1="3887" x2="3961" y1="481" y2="481"/><line style="stroke: #A80036; stroke-width: 1.5;" x1="3887" x2="3961" y1="489" y2="489"/><!--class DisplayAircraft--><rect fill="#FEFECE" filter="url(#fu40fmv71v75w)" height="48" id="DisplayAircraft" style="stroke: #A80036; stroke-width: 1.5;" width="121" x="4140.5" y="449"/><ellipse cx="4155.5" cy="465" fill="#ADD1B2" rx="11" ry="11" style="stroke: #A80036; stroke-width: 1.0;"/><path d="M4158.4688,470.6406 Q4157.8906,470.9375 4157.25,471.0859 Q4156.6094,471.2344 4155.9063,471.2344 Q4153.4063,471.2344 4152.0859,469.5859 Q4150.7656,467.9375 4150.7656,464.8125 Q4150.7656,461.6875 4152.0859,460.0313 Q4153.4063,458.375 4155.9063,458.375 Q4156.6094,458.375 4157.2578,458.5313 Q4157.9063,458.6875 4158.4688,458.9844 L4158.4688,461.7031 Q4157.8438,461.125 4157.25,460.8516 Q4156.6563,460.5781 4156.0313,460.5781 Q4154.6875,460.5781 4154,461.6484 Q4153.3125,462.7188 4153.3125,464.8125 Q4153.3125,466.9063 4154,467.9766 Q4154.6875,469.0469 4156.0313,469.0469 Q4156.6563,469.0469 4157.25,468.7734 Q4157.8438,468.5 4158.4688,467.9219 L4158.4688,470.6406 Z "/><text fill="#000000" font-family="sans-serif" font-size="12" lengthAdjust="spacingAndGlyphs" textLength="89" x="4169.5" y="469.1543">DisplayAircraft</text><line style="stroke: #A80036; stroke-width: 1.5;" x1="4141.5" x2="4260.5" y1="481" y2="481"/><line style="stroke: #A80036; stroke-width: 1.5;" x1="4141.5" x2="4260.5" y1="489" y2="489"/><!--class DisplayHud--><rect fill="#FEFECE" filter="url(#fu40fmv71v75w)" height="48" id="DisplayHud" style="stroke: #A80036; stroke-width: 1.5;" width="101" x="4138.5" y="341"/><ellipse cx="4153.5" cy="357" fill="#ADD1B2" rx="11" ry="11" style="stroke: #A80036; stroke-width: 1.0;"/><path d="M4156.4688,362.6406 Q4155.8906,362.9375 4155.25,363.0859 Q4154.6094,363.2344 4153.9063,363.2344 Q4151.4063,363.2344 4150.0859,361.5859 Q4148.7656,359.9375 4148.7656,356.8125 Q4148.7656,353.6875 4150.0859,352.0313 Q4151.4063,350.375 4153.9063,350.375 Q4154.6094,350.375 4155.2578,350.5313 Q4155.9063,350.6875 4156.4688,350.9844 L4156.4688,353.7031 Q4155.8438,353.125 4155.25,352.8516 Q4154.6563,352.5781 4154.0313,352.5781 Q4152.6875,352.5781 4152,353.6484 Q4151.3125,354.7188 4151.3125,356.8125 Q4151.3125,358.9063 4152,359.9766 Q4152.6875,361.0469 4154.0313,361.0469 Q4154.6563,361.0469 4155.25,360.7734 Q4155.8438,360.5 4156.4688,359.9219 L4156.4688,362.6406 Z "/><text fill="#000000" font-family="sans-serif" font-size="12" lengthAdjust="spacingAndGlyphs" textLength="69" x="4167.5" y="361.1543">DisplayHud</text><line style="stroke: #A80036; stroke-width: 1.5;" x1="4139.5" x2="4238.5" y1="373" y2="373"/><line style="stroke: #A80036; stroke-width: 1.5;" x1="4139.5" x2="4238.5" y1="381" y2="381"/><!--class DisplayPrediction--><rect fill="#FEFECE" filter="url(#fu40fmv71v75w)" height="48" id="DisplayPrediction" style="stroke: #A80036; stroke-width: 1.5;" width="139" x="4274.5" y="341"/><ellipse cx="4289.5" cy="357" fill="#ADD1B2" rx="11" ry="11" style="stroke: #A80036; stroke-width: 1.0;"/><path d="M4292.4688,362.6406 Q4291.8906,362.9375 4291.25,363.0859 Q4290.6094,363.2344 4289.9063,363.2344 Q4287.4063,363.2344 4286.0859,361.5859 Q4284.7656,359.9375 4284.7656,356.8125 Q4284.7656,353.6875 4286.0859,352.0313 Q4287.4063,350.375 4289.9063,350.375 Q4290.6094,350.375 4291.2578,350.5313 Q4291.9063,350.6875 4292.4688,350.9844 L4292.4688,353.7031 Q4291.8438,353.125 4291.25,352.8516 Q4290.6563,352.5781 4290.0313,352.5781 Q4288.6875,352.5781 4288,353.6484 Q4287.3125,354.7188 4287.3125,356.8125 Q4287.3125,358.9063 4288,359.9766 Q4288.6875,361.0469 4290.0313,361.0469 Q4290.6563,361.0469 4291.25,360.7734 Q4291.8438,360.5 4292.4688,359.9219 L4292.4688,362.6406 Z "/><text fill="#000000" font-family="sans-serif" font-size="12" lengthAdjust="spacingAndGlyphs" textLength="107" x="4303.5" y="361.1543">DisplayPrediction</text><line style="stroke: #A80036; stroke-width: 1.5;" x1="4275.5" x2="4412.5" y1="373" y2="373"/><line style="stroke: #A80036; stroke-width: 1.5;" x1="4275.5" x2="4412.5" y1="381" y2="381"/><!--class DisplayTracks--><rect fill="#FEFECE" filter="url(#fu40fmv71v75w)" height="48" id="DisplayTracks" style="stroke: #A80036; stroke-width: 1.5;" width="117" x="3986.5" y="341"/><ellipse cx="4001.5" cy="357" fill="#ADD1B2" rx="11" ry="11" style="stroke: #A80036; stroke-width: 1.0;"/><path d="M4004.4688,362.6406 Q4003.8906,362.9375 4003.25,363.0859 Q4002.6094,363.2344 4001.9063,363.2344 Q3999.4063,363.2344 3998.0859,361.5859 Q3996.7656,359.9375 3996.7656,356.8125 Q3996.7656,353.6875 3998.0859,352.0313 Q3999.4063,350.375 4001.9063,350.375 Q4002.6094,350.375 4003.2578,350.5313 Q4003.9063,350.6875 4004.4688,350.9844 L4004.4688,353.7031 Q4003.8438,353.125 4003.25,352.8516 Q4002.6563,352.5781 4002.0313,352.5781 Q4000.6875,352.5781 4000,353.6484 Q3999.3125,354.7188 3999.3125,356.8125 Q3999.3125,358.9063 4000,359.9766 Q4000.6875,361.0469 4002.0313,361.0469 Q4002.6563,361.0469 4003.25,360.7734 Q4003.8438,360.5 4004.4688,359.9219 L4004.4688,362.6406 Z "/><text fill="#000000" font-family="sans-serif" font-size="12" lengthAdjust="spacingAndGlyphs" textLength="85" x="4015.5" y="361.1543">DisplayTracks</text><line style="stroke: #A80036; stroke-width: 1.5;" x1="3987.5" x2="4102.5" y1="373" y2="373"/><line style="stroke: #A80036; stroke-width: 1.5;" x1="3987.5" x2="4102.5" y1="381" y2="381"/><!--class PredictionDisplayMethod--><rect fill="#FEFECE" filter="url(#fu40fmv71v75w)" height="48" id="PredictionDisplayMethod" style="stroke: #A80036; stroke-width: 1.5;" width="186" x="3765" y="341"/><ellipse cx="3780" cy="357" fill="#ADD1B2" rx="11" ry="11" style="stroke: #A80036; stroke-width: 1.0;"/><path d="M3782.9688,362.6406 Q3782.3906,362.9375 3781.75,363.0859 Q3781.1094,363.2344 3780.4063,363.2344 Q3777.9063,363.2344 3776.5859,361.5859 Q3775.2656,359.9375 3775.2656,356.8125 Q3775.2656,353.6875 3776.5859,352.0313 Q3777.9063,350.375 3780.4063,350.375 Q3781.1094,350.375 3781.7578,350.5313 Q3782.4063,350.6875 3782.9688,350.9844 L3782.9688,353.7031 Q3782.3438,353.125 3781.75,352.8516 Q3781.1563,352.5781 3780.5313,352.5781 Q3779.1875,352.5781 3778.5,353.6484 Q3777.8125,354.7188 3777.8125,356.8125 Q3777.8125,358.9063 3778.5,359.9766 Q3779.1875,361.0469 3780.5313,361.0469 Q3781.1563,361.0469 3781.75,360.7734 Q3782.3438,360.5 3782.9688,359.9219 L3782.9688,362.6406 Z "/><text fill="#000000" font-family="sans-serif" font-size="12" lengthAdjust="spacingAndGlyphs" textLength="154" x="3794" y="361.1543">PredictionDisplayMethod</text><line style="stroke: #A80036; stroke-width: 1.5;" x1="3766" x2="3950" y1="373" y2="373"/><line style="stroke: #A80036; stroke-width: 1.5;" x1="3766" x2="3950" y1="381" y2="381"/><path d="M714,117.5 L714,157.7656 L958,157.7656 L958,127.5 L948,117.5 L714,117.5 " fill="#FBFB77" filter="url(#fu40fmv71v75w)" style="stroke: #A80036; stroke-width: 1.0;"/><path d="M948,117.5 L948,127.5 L958,127.5 L948,117.5 " fill="#FBFB77" style="stroke: #A80036; stroke-width: 1.0;"/><text fill="#000000" font-family="sans-serif" font-size="13" lengthAdjust="spacingAndGlyphs" textLength="223" x="720" y="134.5669">This package  all views (of MVC) for</text><text fill="#000000" font-family="sans-serif" font-size="13" lengthAdjust="spacingAndGlyphs" textLength="146" x="720" y="149.6997">the display application.</text><!--class DisplayRenderableProviderListener--><rect fill="#FEFECE" filter="url(#fu40fmv71v75w)" height="48" id="DisplayRenderableProviderListener" style="stroke: #A80036; stroke-width: 1.5;" width="249" x="879.5" y="341"/><ellipse cx="894.5" cy="357" fill="#ADD1B2" rx="11" ry="11" style="stroke: #A80036; stroke-width: 1.0;"/><path d="M897.4688,362.6406 Q896.8906,362.9375 896.25,363.0859 Q895.6094,363.2344 894.9063,363.2344 Q892.4063,363.2344 891.0859,361.5859 Q889.7656,359.9375 889.7656,356.8125 Q889.7656,353.6875 891.0859,352.0313 Q892.4063,350.375 894.9063,350.375 Q895.6094,350.375 896.2578,350.5313 Q896.9063,350.6875 897.4688,350.9844 L897.4688,353.7031 Q896.8438,353.125 896.25,352.8516 Q895.6563,352.5781 895.0313,352.5781 Q893.6875,352.5781 893,353.6484 Q892.3125,354.7188 892.3125,356.8125 Q892.3125,358.9063 893,359.9766 Q893.6875,361.0469 895.0313,361.0469 Q895.6563,361.0469 896.25,360.7734 Q896.8438,360.5 897.4688,359.9219 L897.4688,362.6406 Z "/><text fill="#000000" font-family="sans-serif" font-size="12" lengthAdjust="spacingAndGlyphs" textLength="217" x="908.5" y="361.1543">DisplayRenderableProviderListener</text><line style="stroke: #A80036; stroke-width: 1.5;" x1="880.5" x2="1127.5" y1="373" y2="373"/><line style="stroke: #A80036; stroke-width: 1.5;" x1="880.5" x2="1127.5" y1="381" y2="381"/><!--class DisplayRenderableProviderMultiplexer--><rect fill="#FEFECE" filter="url(#fu40fmv71v75w)" height="48" id="DisplayRenderableProviderMultiplexer" style="stroke: #A80036; stroke-width: 1.5;" width="266" x="413" y="113.5"/><ellipse cx="428" cy="129.5" fill="#ADD1B2" rx="11" ry="11" style="stroke: #A80036; stroke-width: 1.0;"/><path d="M430.9688,135.1406 Q430.3906,135.4375 429.75,135.5859 Q429.1094,135.7344 428.4063,135.7344 Q425.9063,135.7344 424.5859,134.0859 Q423.2656,132.4375 423.2656,129.3125 Q423.2656,126.1875 424.5859,124.5313 Q425.9063,122.875 428.4063,122.875 Q429.1094,122.875 429.7578,123.0313 Q430.4063,123.1875 430.9688,123.4844 L430.9688,126.2031 Q430.3438,125.625 429.75,125.3516 Q429.1563,125.0781 428.5313,125.0781 Q427.1875,125.0781 426.5,126.1484 Q425.8125,127.2188 425.8125,129.3125 Q425.8125,131.4063 426.5,132.4766 Q427.1875,133.5469 428.5313,133.5469 Q429.1563,133.5469 429.75,133.2734 Q430.3438,133 430.9688,132.4219 L430.9688,135.1406 Z "/><text fill="#000000" font-family="sans-serif" font-size="12" lengthAdjust="spacingAndGlyphs" textLength="234" x="442" y="133.6543">DisplayRenderableProviderMultiplexer</text><line style="stroke: #A80036; stroke-width: 1.5;" x1="414" x2="678" y1="145.5" y2="145.5"/><line style="stroke: #A80036; stroke-width: 1.5;" x1="414" x2="678" y1="153.5" y2="153.5"/><path d="M3355,102 L3355,172.5313 L3733,172.5313 L3733,112 L3723,102 L3355,102 " fill="#FBFB77" filter="url(#fu40fmv71v75w)" style="stroke: #A80036; stroke-width: 1.0;"/><path d="M3723,102 L3723,112 L3733,112 L3723,102 " fill="#FBFB77" style="stroke: #A80036; stroke-width: 1.0;"/><text fill="#000000" font-family="sans-serif" font-size="13" lengthAdjust="spacingAndGlyphs" textLength="357" x="3361" y="119.0669">This package contains the implementation for rendering</text><text fill="#000000" font-family="sans-serif" font-size="13" lengthAdjust="spacingAndGlyphs" textLength="326" x="3361" y="134.1997">Hershey fonts as vectors. A bit of a fun side project</text><text fill="#000000" font-family="sans-serif" font-size="13" lengthAdjust="spacingAndGlyphs" textLength="329" x="3361" y="149.3325">really, as a better result could probably be obtained</text><text fill="#000000" font-family="sans-serif" font-size="13" lengthAdjust="spacingAndGlyphs" textLength="114" x="3361" y="164.4653">with bitmap fonts.</text><path d="M2894,117.5 L2894,157.7656 L3320,157.7656 L3320,127.5 L3310,117.5 L2894,117.5 " fill="#FBFB77" filter="url(#fu40fmv71v75w)" style="stroke: #A80036; stroke-width: 1.0;"/><path d="M3310,117.5 L3310,127.5 L3320,127.5 L3310,117.5 " fill="#FBFB77" style="stroke: #A80036; stroke-width: 1.0;"/><text fill="#000000" font-family="sans-serif" font-size="13" lengthAdjust="spacingAndGlyphs" textLength="405" x="2900" y="134.5669">This package contains all the renderable providers which render</text><text fill="#000000" font-family="sans-serif" font-size="13" lengthAdjust="spacingAndGlyphs" textLength="130" x="2900" y="149.6997">items to the display.</text><!--class AircraftDotModel--><rect fill="#FEFECE" filter="url(#fu40fmv71v75w)" height="48" id="AircraftDotModel" style="stroke: #A80036; stroke-width: 1.5;" width="136" x="2405" y="113.5"/><ellipse cx="2420" cy="129.5" fill="#ADD1B2" rx="11" ry="11" style="stroke: #A80036; stroke-width: 1.0;"/><path d="M2422.9688,135.1406 Q2422.3906,135.4375 2421.75,135.5859 Q2421.1094,135.7344 2420.4063,135.7344 Q2417.9063,135.7344 2416.5859,134.0859 Q2415.2656,132.4375 2415.2656,129.3125 Q2415.2656,126.1875 2416.5859,124.5313 Q2417.9063,122.875 2420.4063,122.875 Q2421.1094,122.875 2421.7578,123.0313 Q2422.4063,123.1875 2422.9688,123.4844 L2422.9688,126.2031 Q2422.3438,125.625 2421.75,125.3516 Q2421.1563,125.0781 2420.5313,125.0781 Q2419.1875,125.0781 2418.5,126.1484 Q2417.8125,127.2188 2417.8125,129.3125 Q2417.8125,131.4063 2418.5,132.4766 Q2419.1875,133.5469 2420.5313,133.5469 Q2421.1563,133.5469 2421.75,133.2734 Q2422.3438,133 2422.9688,132.4219 L2422.9688,135.1406 Z "/><text fill="#000000" font-family="sans-serif" font-size="12" lengthAdjust="spacingAndGlyphs" textLength="104" x="2434" y="133.6543">AircraftDotModel</text><line style="stroke: #A80036; stroke-width: 1.5;" x1="2406" x2="2540" y1="145.5" y2="145.5"/><line style="stroke: #A80036; stroke-width: 1.5;" x1="2406" x2="2540" y1="153.5" y2="153.5"/><!--class AircraftInfoModel--><rect fill="#FEFECE" filter="url(#fu40fmv71v75w)" height="48" id="AircraftInfoModel" style="stroke: #A80036; stroke-width: 1.5;" width="137" x="2232.5" y="113.5"/><ellipse cx="2247.5" cy="129.5" fill="#ADD1B2" rx="11" ry="11" style="stroke: #A80036; stroke-width: 1.0;"/><path d="M2250.4688,135.1406 Q2249.8906,135.4375 2249.25,135.5859 Q2248.6094,135.7344 2247.9063,135.7344 Q2245.4063,135.7344 2244.0859,134.0859 Q2242.7656,132.4375 2242.7656,129.3125 Q2242.7656,126.1875 2244.0859,124.5313 Q2245.4063,122.875 2247.9063,122.875 Q2248.6094,122.875 2249.2578,123.0313 Q2249.9063,123.1875 2250.4688,123.4844 L2250.4688,126.2031 Q2249.8438,125.625 2249.25,125.3516 Q2248.6563,125.0781 2248.0313,125.0781 Q2246.6875,125.0781 2246,126.1484 Q2245.3125,127.2188 2245.3125,129.3125 Q2245.3125,131.4063 2246,132.4766 Q2246.6875,133.5469 2248.0313,133.5469 Q2248.6563,133.5469 2249.25,133.2734 Q2249.8438,133 2250.4688,132.4219 L2250.4688,135.1406 Z "/><text fill="#000000" font-family="sans-serif" font-size="12" lengthAdjust="spacingAndGlyphs" textLength="105" x="2261.5" y="133.6543">AircraftInfoModel</text><line style="stroke: #A80036; stroke-width: 1.5;" x1="2233.5" x2="2368.5" y1="145.5" y2="145.5"/><line style="stroke: #A80036; stroke-width: 1.5;" x1="2233.5" x2="2368.5" y1="153.5" y2="153.5"/><!--class BreadCrumbModel--><rect fill="#FEFECE" filter="url(#fu40fmv71v75w)" height="48" id="BreadCrumbModel" style="stroke: #A80036; stroke-width: 1.5;" width="146" x="2051" y="113.5"/><ellipse cx="2066" cy="129.5" fill="#ADD1B2" rx="11" ry="11" style="stroke: #A80036; stroke-width: 1.0;"/><path d="M2068.9688,135.1406 Q2068.3906,135.4375 2067.75,135.5859 Q2067.1094,135.7344 2066.4063,135.7344 Q2063.9063,135.7344 2062.5859,134.0859 Q2061.2656,132.4375 2061.2656,129.3125 Q2061.2656,126.1875 2062.5859,124.5313 Q2063.9063,122.875 2066.4063,122.875 Q2067.1094,122.875 2067.7578,123.0313 Q2068.4063,123.1875 2068.9688,123.4844 L2068.9688,126.2031 Q2068.3438,125.625 2067.75,125.3516 Q2067.1563,125.0781 2066.5313,125.0781 Q2065.1875,125.0781 2064.5,126.1484 Q2063.8125,127.2188 2063.8125,129.3125 Q2063.8125,131.4063 2064.5,132.4766 Q2065.1875,133.5469 2066.5313,133.5469 Q2067.1563,133.5469 2067.75,133.2734 Q2068.3438,133 2068.9688,132.4219 L2068.9688,135.1406 Z "/><text fill="#000000" font-family="sans-serif" font-size="12" lengthAdjust="spacingAndGlyphs" textLength="114" x="2080" y="133.6543">BreadCrumbModel</text><line style="stroke: #A80036; stroke-width: 1.5;" x1="2052" x2="2196" y1="145.5" y2="145.5"/><line style="stroke: #A80036; stroke-width: 1.5;" x1="2052" x2="2196" y1="153.5" y2="153.5"/><!--class HudModel--><rect fill="#FEFECE" filter="url(#fu40fmv71v75w)" height="48" id="HudModel" style="stroke: #A80036; stroke-width: 1.5;" width="94" x="1922" y="113.5"/><ellipse cx="1937" cy="129.5" fill="#ADD1B2" rx="11" ry="11" style="stroke: #A80036; stroke-width: 1.0;"/><path d="M1939.9688,135.1406 Q1939.3906,135.4375 1938.75,135.5859 Q1938.1094,135.7344 1937.4063,135.7344 Q1934.9063,135.7344 1933.5859,134.0859 Q1932.2656,132.4375 1932.2656,129.3125 Q1932.2656,126.1875 1933.5859,124.5313 Q1934.9063,122.875 1937.4063,122.875 Q1938.1094,122.875 1938.7578,123.0313 Q1939.4063,123.1875 1939.9688,123.4844 L1939.9688,126.2031 Q1939.3438,125.625 1938.75,125.3516 Q1938.1563,125.0781 1937.5313,125.0781 Q1936.1875,125.0781 1935.5,126.1484 Q1934.8125,127.2188 1934.8125,129.3125 Q1934.8125,131.4063 1935.5,132.4766 Q1936.1875,133.5469 1937.5313,133.5469 Q1938.1563,133.5469 1938.75,133.2734 Q1939.3438,133 1939.9688,132.4219 L1939.9688,135.1406 Z "/><text fill="#000000" font-family="sans-serif" font-size="12" lengthAdjust="spacingAndGlyphs" textLength="62" x="1951" y="133.6543">HudModel</text><line style="stroke: #A80036; stroke-width: 1.5;" x1="1923" x2="2015" y1="145.5" y2="145.5"/><line style="stroke: #A80036; stroke-width: 1.5;" x1="1923" x2="2015" y1="153.5" y2="153.5"/><!--class PredictionModel--><rect fill="#FEFECE" filter="url(#fu40fmv71v75w)" height="48" id="PredictionModel" style="stroke: #A80036; stroke-width: 1.5;" width="132" x="1755" y="113.5"/><ellipse cx="1770" cy="129.5" fill="#ADD1B2" rx="11" ry="11" style="stroke: #A80036; stroke-width: 1.0;"/><path d="M1772.9688,135.1406 Q1772.3906,135.4375 1771.75,135.5859 Q1771.1094,135.7344 1770.4063,135.7344 Q1767.9063,135.7344 1766.5859,134.0859 Q1765.2656,132.4375 1765.2656,129.3125 Q1765.2656,126.1875 1766.5859,124.5313 Q1767.9063,122.875 1770.4063,122.875 Q1771.1094,122.875 1771.7578,123.0313 Q1772.4063,123.1875 1772.9688,123.4844 L1772.9688,126.2031 Q1772.3438,125.625 1771.75,125.3516 Q1771.1563,125.0781 1770.5313,125.0781 Q1769.1875,125.0781 1768.5,126.1484 Q1767.8125,127.2188 1767.8125,129.3125 Q1767.8125,131.4063 1768.5,132.4766 Q1769.1875,133.5469 1770.5313,133.5469 Q1771.1563,133.5469 1771.75,133.2734 Q1772.3438,133 1772.9688,132.4219 L1772.9688,135.1406 Z "/><text fill="#000000" font-family="sans-serif" font-size="12" lengthAdjust="spacingAndGlyphs" textLength="100" x="1784" y="133.6543">PredictionModel</text><line style="stroke: #A80036; stroke-width: 1.5;" x1="1756" x2="1886" y1="145.5" y2="145.5"/><line style="stroke: #A80036; stroke-width: 1.5;" x1="1756" x2="1886" y1="153.5" y2="153.5"/><!--class SimpleDisplayRenderableProvider--><rect fill="#FEFECE" filter="url(#fu40fmv71v75w)" height="48" id="SimpleDisplayRenderableProvider" style="stroke: #A80036; stroke-width: 1.5;" width="239" x="1871.5" y="233"/><ellipse cx="1886.5" cy="249" fill="#A9DCDF" rx="11" ry="11" style="stroke: #A80036; stroke-width: 1.0;"/><path d="M1886.6094,244.3438 L1885.4531,249.4219 L1887.7813,249.4219 L1886.6094,244.3438 Z M1885.125,242.1094 L1888.1094,242.1094 L1891.4688,254.5 L1889.0156,254.5 L1888.25,251.4375 L1884.9688,251.4375 L1884.2188,254.5 L1881.7813,254.5 L1885.125,242.1094 Z "/><text fill="#000000" font-family="sans-serif" font-size="12" font-style="italic" lengthAdjust="spacingAndGlyphs" textLength="207" x="1900.5" y="253.1543">SimpleDisplayRenderableProvider</text><line style="stroke: #A80036; stroke-width: 1.5;" x1="1872.5" x2="2109.5" y1="265" y2="265"/><line style="stroke: #A80036; stroke-width: 1.5;" x1="1872.5" x2="2109.5" y1="273" y2="273"/><!--class TracksModel--><rect fill="#FEFECE" filter="url(#fu40fmv71v75w)" height="48" id="TracksModel" style="stroke: #A80036; stroke-width: 1.5;" width="110" x="1610" y="113.5"/><ellipse cx="1625" cy="129.5" fill="#ADD1B2" rx="11" ry="11" style="stroke: #A80036; stroke-width: 1.0;"/><path d="M1627.9688,135.1406 Q1627.3906,135.4375 1626.75,135.5859 Q1626.1094,135.7344 1625.4063,135.7344 Q1622.9063,135.7344 1621.5859,134.0859 Q1620.2656,132.4375 1620.2656,129.3125 Q1620.2656,126.1875 1621.5859,124.5313 Q1622.9063,122.875 1625.4063,122.875 Q1626.1094,122.875 1626.7578,123.0313 Q1627.4063,123.1875 1627.9688,123.4844 L1627.9688,126.2031 Q1627.3438,125.625 1626.75,125.3516 Q1626.1563,125.0781 1625.5313,125.0781 Q1624.1875,125.0781 1623.5,126.1484 Q1622.8125,127.2188 1622.8125,129.3125 Q1622.8125,131.4063 1623.5,132.4766 Q1624.1875,133.5469 1625.5313,133.5469 Q1626.1563,133.5469 1626.75,133.2734 Q1627.3438,133 1627.9688,132.4219 L1627.9688,135.1406 Z "/><text fill="#000000" font-family="sans-serif" font-size="12" lengthAdjust="spacingAndGlyphs" textLength="78" x="1639" y="133.6543">TracksModel</text><line style="stroke: #A80036; stroke-width: 1.5;" x1="1611" x2="1719" y1="145.5" y2="145.5"/><line style="stroke: #A80036; stroke-width: 1.5;" x1="1611" x2="1719" y1="153.5" y2="153.5"/><!--class VelocityModel--><rect fill="#FEFECE" filter="url(#fu40fmv71v75w)" height="48" id="VelocityModel" style="stroke: #A80036; stroke-width: 1.5;" width="117" x="2741.5" y="113.5"/><ellipse cx="2756.5" cy="129.5" fill="#ADD1B2" rx="11" ry="11" style="stroke: #A80036; stroke-width: 1.0;"/><path d="M2759.4688,135.1406 Q2758.8906,135.4375 2758.25,135.5859 Q2757.6094,135.7344 2756.9063,135.7344 Q2754.4063,135.7344 2753.0859,134.0859 Q2751.7656,132.4375 2751.7656,129.3125 Q2751.7656,126.1875 2753.0859,124.5313 Q2754.4063,122.875 2756.9063,122.875 Q2757.6094,122.875 2758.2578,123.0313 Q2758.9063,123.1875 2759.4688,123.4844 L2759.4688,126.2031 Q2758.8438,125.625 2758.25,125.3516 Q2757.6563,125.0781 2757.0313,125.0781 Q2755.6875,125.0781 2755,126.1484 Q2754.3125,127.2188 2754.3125,129.3125 Q2754.3125,131.4063 2755,132.4766 Q2755.6875,133.5469 2757.0313,133.5469 Q2757.6563,133.5469 2758.25,133.2734 Q2758.8438,133 2759.4688,132.4219 L2759.4688,135.1406 Z "/><text fill="#000000" font-family="sans-serif" font-size="12" lengthAdjust="spacingAndGlyphs" textLength="85" x="2770.5" y="133.6543">VelocityModel</text><line style="stroke: #A80036; stroke-width: 1.5;" x1="2742.5" x2="2857.5" y1="145.5" y2="145.5"/><line style="stroke: #A80036; stroke-width: 1.5;" x1="2742.5" x2="2857.5" y1="153.5" y2="153.5"/><!--class WorldMapModel--><rect fill="#FEFECE" filter="url(#fu40fmv71v75w)" height="48" id="WorldMapModel" style="stroke: #A80036; stroke-width: 1.5;" width="130" x="2576" y="113.5"/><ellipse cx="2591" cy="129.5" fill="#ADD1B2" rx="11" ry="11" style="stroke: #A80036; stroke-width: 1.0;"/><path d="M2593.9688,135.1406 Q2593.3906,135.4375 2592.75,135.5859 Q2592.1094,135.7344 2591.4063,135.7344 Q2588.9063,135.7344 2587.5859,134.0859 Q2586.2656,132.4375 2586.2656,129.3125 Q2586.2656,126.1875 2587.5859,124.5313 Q2588.9063,122.875 2591.4063,122.875 Q2592.1094,122.875 2592.7578,123.0313 Q2593.4063,123.1875 2593.9688,123.4844 L2593.9688,126.2031 Q2593.3438,125.625 2592.75,125.3516 Q2592.1563,125.0781 2591.5313,125.0781 Q2590.1875,125.0781 2589.5,126.1484 Q2588.8125,127.2188 2588.8125,129.3125 Q2588.8125,131.4063 2589.5,132.4766 Q2590.1875,133.5469 2591.5313,133.5469 Q2592.1563,133.5469 2592.75,133.2734 Q2593.3438,133 2593.9688,132.4219 L2593.9688,135.1406 Z "/><text fill="#000000" font-family="sans-serif" font-size="12" lengthAdjust="spacingAndGlyphs" textLength="98" x="2605" y="133.6543">WorldMapModel</text><line style="stroke: #A80036; stroke-width: 1.5;" x1="2577" x2="2705" y1="145.5" y2="145.5"/><line style="stroke: #A80036; stroke-width: 1.5;" x1="2577" x2="2705" y1="153.5" y2="153.5"/><!--class DisplayRenderableProvider--><rect fill="#FEFECE" filter="url(#fu40fmv71v75w)" height="48" id="DisplayRenderableProvider" style="stroke: #A80036; stroke-width: 1.5;" width="199" x="1739.5" y="341"/><ellipse cx="1754.5" cy="357" fill="#ADD1B2" rx="11" ry="11" style="stroke: #A80036; stroke-width: 1.0;"/><path d="M1757.4688,362.6406 Q1756.8906,362.9375 1756.25,363.0859 Q1755.6094,363.2344 1754.9063,363.2344 Q1752.4063,363.2344 1751.0859,361.5859 Q1749.7656,359.9375 1749.7656,356.8125 Q1749.7656,353.6875 1751.0859,352.0313 Q1752.4063,350.375 1754.9063,350.375 Q1755.6094,350.375 1756.2578,350.5313 Q1756.9063,350.6875 1757.4688,350.9844 L1757.4688,353.7031 Q1756.8438,353.125 1756.25,352.8516 Q1755.6563,352.5781 1755.0313,352.5781 Q1753.6875,352.5781 1753,353.6484 Q1752.3125,354.7188 1752.3125,356.8125 Q1752.3125,358.9063 1753,359.9766 Q1753.6875,361.0469 1755.0313,361.0469 Q1755.6563,361.0469 1756.25,360.7734 Q1756.8438,360.5 1757.4688,359.9219 L1757.4688,362.6406 Z "/><text fill="#000000" font-family="sans-serif" font-size="12" lengthAdjust="spacingAndGlyphs" textLength="167" x="1768.5" y="361.1543">DisplayRenderableProvider</text><line style="stroke: #A80036; stroke-width: 1.5;" x1="1740.5" x2="1937.5" y1="373" y2="373"/><line style="stroke: #A80036; stroke-width: 1.5;" x1="1740.5" x2="1937.5" y1="381" y2="381"/><!--class DisplayCameraListener--><rect fill="#FEFECE" filter="url(#fu40fmv71v75w)" height="48" id="DisplayCameraListener" style="stroke: #A80036; stroke-width: 1.5;" width="174" x="2191" y="233"/><ellipse cx="2206" cy="249" fill="#B4A7E5" rx="11" ry="11" style="stroke: #A80036; stroke-width: 1.0;"/><path d="M2201.9219,244.7656 L2201.9219,242.6094 L2209.3125,242.6094 L2209.3125,244.7656 L2206.8438,244.7656 L2206.8438,252.8438 L2209.3125,252.8438 L2209.3125,255 L2201.9219,255 L2201.9219,252.8438 L2204.3906,252.8438 L2204.3906,244.7656 L2201.9219,244.7656 Z "/><text fill="#000000" font-family="sans-serif" font-size="12" font-style="italic" lengthAdjust="spacingAndGlyphs" textLength="142" x="2220" y="253.1543">DisplayCameraListener</text><line style="stroke: #A80036; stroke-width: 1.5;" x1="2192" x2="2364" y1="265" y2="265"/><line style="stroke: #A80036; stroke-width: 1.5;" x1="2192" x2="2364" y1="273" y2="273"/><path d="M1195.5,125 L1195.5,150.1328 L1574.5,150.1328 L1574.5,135 L1564.5,125 L1195.5,125 " fill="#FBFB77" filter="url(#fu40fmv71v75w)" style="stroke: #A80036; stroke-width: 1.0;"/><path d="M1564.5,125 L1564.5,135 L1574.5,135 L1564.5,125 " fill="#FBFB77" style="stroke: #A80036; stroke-width: 1.0;"/><text fill="#000000" font-family="sans-serif" font-size="13" lengthAdjust="spacingAndGlyphs" textLength="358" x="1201.5" y="142.0669">This package contains all the Display's OpenGL shaders.</text><!--class TrackLineMeshBuilder--><rect fill="#FEFECE" filter="url(#fu40fmv71v75w)" height="48" id="TrackLineMeshBuilder" style="stroke: #A80036; stroke-width: 1.5;" width="167" x="993.5" y="113.5"/><ellipse cx="1008.5" cy="129.5" fill="#ADD1B2" rx="11" ry="11" style="stroke: #A80036; stroke-width: 1.0;"/><path d="M1011.4688,135.1406 Q1010.8906,135.4375 1010.25,135.5859 Q1009.6094,135.7344 1008.9063,135.7344 Q1006.4063,135.7344 1005.0859,134.0859 Q1003.7656,132.4375 1003.7656,129.3125 Q1003.7656,126.1875 1005.0859,124.5313 Q1006.4063,122.875 1008.9063,122.875 Q1009.6094,122.875 1010.2578,123.0313 Q1010.9063,123.1875 1011.4688,123.4844 L1011.4688,126.2031 Q1010.8438,125.625 1010.25,125.3516 Q1009.6563,125.0781 1009.0313,125.0781 Q1007.6875,125.0781 1007,126.1484 Q1006.3125,127.2188 1006.3125,129.3125 Q1006.3125,131.4063 1007,132.4766 Q1007.6875,133.5469 1009.0313,133.5469 Q1009.6563,133.5469 1010.25,133.2734 Q1010.8438,133 1011.4688,132.4219 L1011.4688,135.1406 Z "/><text fill="#000000" font-family="sans-serif" font-size="12" lengthAdjust="spacingAndGlyphs" textLength="135" x="1022.5" y="133.6543">TrackLineMeshBuilder</text><line style="stroke: #A80036; stroke-width: 1.5;" x1="994.5" x2="1159.5" y1="145.5" y2="145.5"/><line style="stroke: #A80036; stroke-width: 1.5;" x1="994.5" x2="1159.5" y1="153.5" y2="153.5"/><!--link DisplayTracks to Display--><path d="M4017.8452,389.2373 C4001.0312,404.2449 3979.2201,423.7126 3960.8573,440.1026 " fill="none" id="DisplayTracks-Display" style="stroke: #A80036; stroke-width: 1.0;"/><polygon fill="#A80036" points="3951.0641,448.8436,3958.204,447.8324,3960.0167,440.8529,3952.8768,441.8641,3951.0641,448.8436" style="stroke: #A80036; stroke-width: 1.0;"/><!--link DisplayHud to Display--><path d="M4151.2389,389.008 C4141.5818,394.6442 4131.0748,400.3545 4121,405 C4072.8217,427.2151 4015.2038,446.2906 3974.7659,458.5349 " fill="none" id="DisplayHud-Display" style="stroke: #A80036; stroke-width: 1.0;"/><polygon fill="#A80036" points="3962.2741,462.2656,3969.1678,464.3813,3973.7723,458.8316,3966.8785,456.7159,3962.2741,462.2656" style="stroke: #A80036; stroke-width: 1.0;"/><!--link DisplayPrediction to DisplayAircraft--><path d="M4311.908,389.2373 C4291.7609,404.4533 4265.543,424.2543 4243.6568,440.7837 " fill="none" id="DisplayPrediction-DisplayAircraft" style="stroke: #A80036; stroke-width: 1.0;"/><polygon fill="#A80036" points="4232.9849,448.8436,4240.1835,448.4195,4242.5607,441.6115,4235.3621,442.0356,4232.9849,448.8436" style="stroke: #A80036; stroke-width: 1.0;"/><!--link SimpleDisplayRenderableProvider to DisplayRenderableProvider--><path d="M1956.8882,281.2373 C1937.0377,295.3416 1911.6427,313.3855 1889.5098,329.1115 " fill="none" id="SimpleDisplayRenderableProvider-DisplayRenderableProvider" style="stroke: #A80036; stroke-width: 1.0; stroke-dasharray: 7.0,7.0;"/><polygon fill="none" points="1893.356,334.9657,1872.9979,340.8436,1885.2471,323.5531,1893.356,334.9657" style="stroke: #A80036; stroke-width: 1.0;"/><!--link WorldMapModel to SimpleDisplayRenderableProvider--><path d="M2602.2087,161.6992 C2588.9455,168.9766 2573.7314,176.275 2559,181 C2553.8864,182.6402 2297.0924,216.6659 2130.5739,238.6281 " fill="none" id="WorldMapModel-SimpleDisplayRenderableProvider" style="stroke: #A80036; stroke-width: 1.0;"/><polygon fill="none" points="2131.4807,245.569,2110.7373,241.2436,2129.6506,231.6891,2131.4807,245.569" style="stroke: #A80036; stroke-width: 1.0;"/><!--link AircraftInfoModel to SimpleDisplayRenderableProvider--><path d="M2256.4833,161.5199 C2243.3067,168.2178 2228.7292,175.2327 2215,181 C2174.7457,197.9099 2129.291,213.8828 2089.8987,226.7804 " fill="none" id="AircraftInfoModel-SimpleDisplayRenderableProvider" style="stroke: #A80036; stroke-width: 1.0;"/><polygon fill="none" points="2091.9856,233.4624,2070.8022,232.9496,2087.6819,220.1403,2091.9856,233.4624" style="stroke: #A80036; stroke-width: 1.0;"/><!--link BreadCrumbModel to SimpleDisplayRenderableProvider--><path d="M2097.0855,161.6826 C2078.6977,178.204 2053.9611,200.4297 2033,219.2632 " fill="none" id="BreadCrumbModel-SimpleDisplayRenderableProvider" style="stroke: #A80036; stroke-width: 1.0;"/><polygon fill="none" points="2037.43,224.6934,2017.8745,232.8534,2028.0731,214.2794,2037.43,224.6934" style="stroke: #A80036; stroke-width: 1.0;"/><!--link HudModel to SimpleDisplayRenderableProvider--><path d="M1973.452,161.6826 C1976.1656,176.4223 1979.7151,195.7022 1982.9112,213.063 " fill="none" id="HudModel-SimpleDisplayRenderableProvider" style="stroke: #A80036; stroke-width: 1.0;"/><polygon fill="none" points="1989.8177,211.9165,1986.5546,232.8534,1976.049,214.4513,1989.8177,211.9165" style="stroke: #A80036; stroke-width: 1.0;"/><!--link PredictionModel to SimpleDisplayRenderableProvider--><path d="M1855.402,161.6826 C1879.7117,178.7709 1912.7028,201.9617 1940.0563,221.1895 " fill="none" id="PredictionModel-SimpleDisplayRenderableProvider" style="stroke: #A80036; stroke-width: 1.0;"/><polygon fill="none" points="1944.3127,215.6251,1956.6491,232.8534,1936.2616,227.0785,1944.3127,215.6251" style="stroke: #A80036; stroke-width: 1.0;"/><!--link TracksModel to SimpleDisplayRenderableProvider--><path d="M1701.5715,161.6781 C1712.936,168.532 1725.7121,175.5919 1738,181 C1780.3171,199.6245 1828.5391,215.3661 1871.4532,227.6072 " fill="none" id="TracksModel-SimpleDisplayRenderableProvider" style="stroke: #A80036; stroke-width: 1.0;"/><polygon fill="none" points="1873.3679,220.874,1890.7567,232.983,1869.6119,234.3608,1873.3679,220.874" style="stroke: #A80036; stroke-width: 1.0;"/><!--link VelocityModel to SimpleDisplayRenderableProvider--><path d="M2765.1147,161.6103 C2752.668,169.0665 2738.2019,176.4967 2724,181 C2489.95,255.2146 2417.987,205.476 2174,233 C2159.8805,234.5928 2145.1618,236.3539 2130.4749,238.1772 " fill="none" id="VelocityModel-SimpleDisplayRenderableProvider" style="stroke: #A80036; stroke-width: 1.0;"/><polygon fill="none" points="2131.245,245.1355,2110.5265,240.6921,2129.4938,231.2454,2131.245,245.1355" style="stroke: #A80036; stroke-width: 1.0;"/><!--link AircraftDotModel to SimpleDisplayRenderableProvider--><path d="M2431.1519,161.6082 C2417.4335,168.7045 2401.8847,175.9191 2387,181 C2304.1375,209.2854 2207.7184,228.0732 2130.7684,239.8921 " fill="none" id="AircraftDotModel-SimpleDisplayRenderableProvider" style="stroke: #A80036; stroke-width: 1.0;"/><polygon fill="none" points="2131.4431,246.8689,2110.6293,242.8955,2129.378,233.022,2131.4431,246.8689" style="stroke: #A80036; stroke-width: 1.0;"/><!--link WorldMapModel to DisplayCameraListener--><path d="M2599.7177,161.7079 C2586.9451,168.5629 2572.6407,175.6158 2559,181 C2502.9364,203.1291 2438.1221,221.1344 2384.8786,234.0553 " fill="none" id="WorldMapModel-DisplayCameraListener" style="stroke: #A80036; stroke-width: 1.0; stroke-dasharray: 7.0,7.0;"/><polygon fill="none" points="2386.1576,240.9462,2365.0814,238.7565,2382.9229,227.325,2386.1576,240.9462" style="stroke: #A80036; stroke-width: 1.0;"/><!--link AircraftInfoModel to DisplayCameraListener--><path d="M2296.3456,161.6826 C2293.5087,176.4223 2289.7979,195.7022 2286.4565,213.063 " fill="none" id="AircraftInfoModel-DisplayCameraListener" style="stroke: #A80036; stroke-width: 1.0; stroke-dasharray: 7.0,7.0;"/><polygon fill="none" points="2293.3014,214.5368,2282.6475,232.8534,2279.5537,211.8908,2293.3014,214.5368" style="stroke: #A80036; stroke-width: 1.0;"/><!--link BreadCrumbModel to DisplayCameraListener--><path d="M2155.1642,161.6826 C2176.8728,178.5279 2206.2237,201.3035 2230.791,220.367 " fill="none" id="BreadCrumbModel-DisplayCameraListener" style="stroke: #A80036; stroke-width: 1.0; stroke-dasharray: 7.0,7.0;"/><polygon fill="none" points="2235.3727,215.062,2246.8821,232.8534,2226.7899,226.1226,2235.3727,215.062" style="stroke: #A80036; stroke-width: 1.0;"/><!--link HudModel to DisplayCameraListener--><path d="M2000.9725,161.5512 C2011.1642,168.4797 2022.7289,175.6128 2034,181 C2077.3061,201.6987 2127.5842,218.4754 2171.2082,230.9486 " fill="none" id="HudModel-DisplayCameraListener" style="stroke: #A80036; stroke-width: 1.0; stroke-dasharray: 7.0,7.0;"/><polygon fill="none" points="2173.3393,224.2754,2190.7345,236.3753,2169.5905,237.7642,2173.3393,224.2754" style="stroke: #A80036; stroke-width: 1.0;"/><!--link PredictionModel to DisplayCameraListener--><path d="M1861.853,161.5376 C1875.2512,168.6301 1890.4433,175.8603 1905,181 C1953.1149,197.9884 2078.9004,222.1347 2171.148,238.6223 " fill="none" id="PredictionModel-DisplayCameraListener" style="stroke: #A80036; stroke-width: 1.0; stroke-dasharray: 7.0,7.0;"/><polygon fill="none" points="2172.3993,231.7349,2190.8684,242.1221,2169.9529,245.5195,2172.3993,231.7349" style="stroke: #A80036; stroke-width: 1.0;"/><!--link TracksModel to DisplayCameraListener--><path d="M1698.8598,161.5525 C1710.7311,168.9109 1724.4849,176.2955 1738,181 C1903.1481,238.4863 1954.9831,207.6286 2128,233 C2141.8338,235.0286 2156.3709,237.2463 2170.7268,239.4877 " fill="none" id="TracksModel-DisplayCameraListener" style="stroke: #A80036; stroke-width: 1.0; stroke-dasharray: 7.0,7.0;"/><polygon fill="none" points="2172.1445,232.6247,2190.8097,242.6552,2169.9633,246.4538,2172.1445,232.6247" style="stroke: #A80036; stroke-width: 1.0;"/><!--link VelocityModel to DisplayCameraListener--><path d="M2763.7617,161.69 C2751.566,168.8775 2737.595,176.1248 2724,181 C2612.4729,220.994 2477.5297,240.2432 2385.4859,249.309 " fill="none" id="VelocityModel-DisplayCameraListener" style="stroke: #A80036; stroke-width: 1.0; stroke-dasharray: 7.0,7.0;"/><polygon fill="none" points="2385.9331,256.2977,2365.3668,251.1957,2384.6258,242.3588,2385.9331,256.2977" style="stroke: #A80036; stroke-width: 1.0;"/><!--link AircraftDotModel to DisplayCameraListener--><path d="M2433.5388,161.6826 C2405.1256,179.0948 2366.3731,202.8431 2334.6581,222.2787 " fill="none" id="AircraftDotModel-DisplayCameraListener" style="stroke: #A80036; stroke-width: 1.0; stroke-dasharray: 7.0,7.0;"/><polygon fill="none" points="2338.1127,228.3715,2317.4025,232.8534,2330.7975,216.4347,2338.1127,228.3715" style="stroke: #A80036; stroke-width: 1.0;"/><!--link SimpleDisplayRenderableProvider to DisplayRenderableProviderListener--><path d="M1858.0783,282.3839 C1705.7191,303.3647 1326.9023,337.2049 1128.8951,354.3433 " fill="none" id="SimpleDisplayRenderableProvider-DisplayRenderableProviderListener" style="stroke: #A80036; stroke-width: 1.0;"/><polygon fill="#FFFFFF" points="1871.2434,280.5202,1864.7419,277.4008,1859.3619,282.2023,1865.8633,285.3218,1871.2434,280.5202" style="stroke: #A80036; stroke-width: 1.0;"/><!--link DisplayAircraft to DisplayApplication--><path d="M4140.167,482.9223 C4095.8546,489.8777 4034.3299,498.9732 3980,505 C3649.1758,541.6985 3253.7521,566.4963 3082.7547,576.298 " fill="none" id="DisplayAircraft-DisplayApplication" style="stroke: #A80036; stroke-width: 1.0;"/><polygon fill="#A80036" points="3069.607,577.0474,3075.8249,580.6994,3081.5876,576.3645,3075.3696,572.7124,3069.607,577.0474" style="stroke: #A80036; stroke-width: 1.0;"/><!--link LayerManager to DisplayApplication--><path d="M368.6796,389.0622 C378.5402,395.345 389.781,401.3673 401,405 C644.3288,483.7899 2488.9054,560.9201 2911.1008,577.6616 " fill="none" id="LayerManager-DisplayApplication" style="stroke: #A80036; stroke-width: 1.0;"/><polygon fill="#A80036" points="2924.3474,578.1855,2918.5102,573.9515,2912.3568,577.7112,2918.194,581.9452,2924.3474,578.1855" style="stroke: #A80036; stroke-width: 1.0;"/><!--link LayerManager to Display--><path d="M367.9038,389.0334 C377.9152,395.4824 389.4338,401.6036 401,405 C768.2418,512.8399 3451.5863,350.8261 3873.2389,447.05 " fill="none" id="LayerManager-Display" style="stroke: #A80036; stroke-width: 1.0;"/><polygon fill="#FFFFFF" points="3885.8902,450.2005,3881.0346,444.8692,3874.2458,447.3007,3879.1014,452.6321,3885.8902,450.2005" style="stroke: #A80036; stroke-width: 1.0;"/><!--link Display to DisplayApplication--><path d="M3896.8633,497.0676 C3892.1642,500.2094 3887.1312,503.0194 3882,505 C3737.6579,560.7147 3275.8548,575.7813 3082.9483,579.6917 " fill="none" id="Display-DisplayApplication" style="stroke: #A80036; stroke-width: 1.0;"/><polygon fill="#A80036" points="3069.8078,579.9491,3075.885,583.8308,3081.8055,579.714,3075.7283,575.8323,3069.8078,579.9491" style="stroke: #A80036; stroke-width: 1.0;"/><!--link RenderLayer to DisplayApplication--><path d="M290.7582,281.0147 C278.4928,289.6274 266.8557,300.5997 260,314 C241.5792,350.006 234.6634,373.4753 260,405 C389.4348,566.0473 508.9985,479.2322 714,505 C1151.272,559.9632 2550.1368,576.775 2911.2711,580.2517 " fill="none" id="RenderLayer-DisplayApplication" style="stroke: #A80036; stroke-width: 1.0;"/><polygon fill="#A80036" points="2924.4319,580.3769,2918.4703,576.3199,2912.4324,580.2626,2918.3941,584.3196,2924.4319,580.3769" style="stroke: #A80036; stroke-width: 1.0;"/><!--link RenderLayer to LayerManager--><path d="M338.5512,281.2373 C338.299,294.8553 337.9788,312.1457 337.6949,327.4766 " fill="none" id="RenderLayer-LayerManager" style="stroke: #A80036; stroke-width: 1.0;"/><polygon fill="#FFFFFF" points="337.4473,340.8436,341.5578,334.9187,337.6696,328.8457,333.5592,334.7705,337.4473,340.8436" style="stroke: #A80036; stroke-width: 1.0;"/><!--link CameraBatch to RenderLayer--><path d="M323.8449,161.6826 C326.4975,178.366 330.0749,200.866 333.0879,219.8161 " fill="none" id="CameraBatch-RenderLayer" style="stroke: #A80036; stroke-width: 1.0;"/><polygon fill="#A80036" points="335.1608,232.8534,338.169,226.2997,333.2764,221.0023,330.2682,227.556,335.1608,232.8534" style="stroke: #A80036; stroke-width: 1.0;"/><!--link DisplayRenderableProvider to RenderLayer--><path d="M1799.9143,340.8007 C1781.2752,330.552 1758.2322,319.6831 1736,314 C1606.7698,280.9652 669.5797,262.6375 407.1382,258.1151 " fill="none" id="DisplayRenderableProvider-RenderLayer" style="stroke: #A80036; stroke-width: 1.0;"/><polygon fill="#FFFFFF" points="394.0687,257.8917,399.9995,261.9936,406.0669,258.0968,400.1362,253.9948,394.0687,257.8917" style="stroke: #A80036; stroke-width: 1.0;"/><!--link DisplayRenderableProviderMultiplexer to RenderLayer--><path d="M504.1105,161.6826 C471.8444,180.3097 427.018,206.1877 392.2136,226.2801 " fill="none" id="DisplayRenderableProviderMultiplexer-RenderLayer" style="stroke: #A80036; stroke-width: 1.0;"/><polygon fill="#FFFFFF" points="380.8272,232.8534,388.0233,233.3178,391.2197,226.8538,384.0236,226.3894,380.8272,232.8534" style="stroke: #A80036; stroke-width: 1.0;"/><!--link RenderLayer to DisplayRenderableProviderListener--><path d="M394.433,260.954 C512.562,269.6944 785.6718,291.6601 876,314 C895.3891,318.7953 915.7468,325.8878 934.3787,333.269 " fill="none" id="RenderLayer-DisplayRenderableProviderListener" style="stroke: #A80036; stroke-width: 1.0; stroke-dasharray: 7.0,7.0;"/><polygon fill="none" points="937.2427,326.8782,953.0575,340.9812,931.8998,339.8186,937.2427,326.8782" style="stroke: #A80036; stroke-width: 1.0;"/><!--link DisplayApplication to DataPlaybackListener--><path d="M3018.3199,605.2373 C3029.8097,618.2994 3044.2716,634.7404 3057.3338,649.59 " fill="none" id="DisplayApplication-DataPlaybackListener" style="stroke: #A80036; stroke-width: 1.0; stroke-dasharray: 7.0,7.0;"/><polygon fill="none" points="3062.7978,645.2032,3070.7513,664.8436,3052.2859,654.4498,3062.7978,645.2032" style="stroke: #A80036; stroke-width: 1.0;"/><!--link DisplayApplication to PredictionListener--><path d="M2975.4557,605.2373 C2963.8449,618.2994 2949.2308,634.7404 2936.0311,649.59 " fill="none" id="DisplayApplication-PredictionListener" style="stroke: #A80036; stroke-width: 1.0; stroke-dasharray: 7.0,7.0;"/><polygon fill="none" points="2940.9916,654.5459,2922.4724,664.8436,2930.5278,645.2448,2940.9916,654.5459" style="stroke: #A80036; stroke-width: 1.0;"/><!--
@startuml

package display <<Node>> {
  package model {
    note as DisplayModelNote
    This package  all the Model (of MVC) data
    for the display application.
    end note
    class Display
    class DisplayAircraft
    class DisplayHud
    class DisplayPrediction
    class DisplayTracks
    class PredictionDisplayMethod

    DisplayTracks - -* Display
    DisplayHud - -* Display
    DisplayPrediction - -* DisplayAircraft
  }

  package view {
    note as DisplayViewNote
    This package  all views (of MVC) for
    the display application.
    end note
    package vector_text {
      note as VectorTextNote
      This package contains the implementation for rendering
      Hershey fonts as vectors. A bit of a fun side project
      really, as a better result could probably be obtained
      with bitmap fonts.
      end note
    }

    package model_instance_providers {
      note as ModelInstanceProvidersNote
      This package contains all the renderable providers which render
      items to the display.
      end note
      class AircraftDotModel
      class AircraftInfoModel
      class BreadCrumbModel
      class HudModel
      class PredictionModel
      abstract class SimpleDisplayRenderableProvider
      class TracksModel
      class VelocityModel
      class WorldMapModel

      SimpleDisplayRenderableProvider ..|> DisplayRenderableProvider

      WorldMapModel - -|> SimpleDisplayRenderableProvider
      AircraftInfoModel - -|> SimpleDisplayRenderableProvider
      BreadCrumbModel - -|> SimpleDisplayRenderableProvider
      HudModel - -|> SimpleDisplayRenderableProvider
      PredictionModel - -|> SimpleDisplayRenderableProvider
      TracksModel - -|> SimpleDisplayRenderableProvider
      VelocityModel - -|> SimpleDisplayRenderableProvider
      AircraftDotModel - -|> SimpleDisplayRenderableProvider

      WorldMapModel ..|> DisplayCameraListener
      AircraftInfoModel ..|> DisplayCameraListener
      BreadCrumbModel ..|> DisplayCameraListener
      HudModel ..|> DisplayCameraListener
      PredictionModel ..|> DisplayCameraListener
      TracksModel ..|> DisplayCameraListener
      VelocityModel ..|> DisplayCameraListener
      AircraftDotModel ..|> DisplayCameraListener
    }

    package shaders {
      note as ShadersNote
      This package contains all the Display's OpenGL shaders.
      end note
    }

    package shapes {
      class TrackLineMeshBuilder
    }

    class DisplayRenderableProvider
    class DisplayRenderableProviderListener
    class DisplayRenderableProviderMultiplexer

    SimpleDisplayRenderableProvider o- - DisplayRenderableProviderListener
  }

  class CameraBatch
  class DisplayApplication
  interface DisplayCameraListener
  class LayerManager
  class PredictionFeedClientThread
  interface PredictionListener
  class RenderLayer

  DisplayAircraft - -* DisplayApplication
  LayerManager - -* DisplayApplication
  LayerManager - -o Display
  Display - -* DisplayApplication
  RenderLayer - -* DisplayApplication
  RenderLayer - -o LayerManager
  CameraBatch - -* RenderLayer

  DisplayRenderableProvider - -o RenderLayer
  DisplayRenderableProviderMultiplexer - -o RenderLayer
  RenderLayer ..|> DisplayRenderableProviderListener

  DisplayApplication ..|> DataPlaybackListener
  DisplayApplication ..|> PredictionListener
}

@enduml

PlantUML version 1.2018.05(Sun May 06 06:00:17 AEST 2018)
(GPL source distribution)
Java Runtime: OpenJDK Runtime Environment
JVM: OpenJDK 64-Bit Server VM
Java Version: 1.8.0_162-b12
Operating System: Linux
OS Version: 4.16.3-1-ARCH
Default Encoding: UTF-8
Language: en
Country: US
--></g></svg>