<?xml version="1.0" encoding="UTF-8" standalone="no"?><svg xmlns="http://www.w3.org/2000/svg" xmlns:xlink="http://www.w3.org/1999/xlink" contentScriptType="application/ecmascript" contentStyleType="text/css" height="544px" preserveAspectRatio="none" style="width:1313px;height:544px;" version="1.1" viewBox="0 0 1313 544" width="1313px" zoomAndPan="magnify"><defs><filter height="300%" id="f2s0wjgm1skbt" width="300%" x="-1" y="-1"><feGaussianBlur result="blurOut" stdDeviation="2.0"/><feColorMatrix in="blurOut" result="blurOut2" type="matrix" values="0 0 0 0 0 0 0 0 0 0 0 0 0 0 0 0 0 0 .4 0"/><feOffset dx="4.0" dy="4.0" in="blurOut2" result="blurOut3"/><feBlend in="SourceGraphic" in2="blurOut3" mode="normal"/></filter></defs><g><!--cluster FlightData--><polygon fill="#FFFFFF" filter="url(#f2s0wjgm1skbt)" points="14,16,98,16,105,38.2969,1163,38.2969,1163,532,14,532,14,16" style="stroke: #000000; stroke-width: 1.5;"/><line style="stroke: #000000; stroke-width: 1.5;" x1="14" x2="105" y1="38.2969" y2="38.2969"/><text fill="#000000" font-family="sans-serif" font-size="14" font-weight="bold" lengthAdjust="spacingAndGlyphs" textLength="78" x="18" y="30.9951">FlightData</text><!--cluster pythagoras.d--><polygon fill="#FFFFFF" filter="url(#f2s0wjgm1skbt)" points="1171,16,1281,16,1288,38.2969,1291,38.2969,1291,137,1171,137,1171,16" style="stroke: #000000; stroke-width: 1.5;"/><line style="stroke: #000000; stroke-width: 1.5;" x1="1171" x2="1288" y1="38.2969" y2="38.2969"/><text fill="#000000" font-family="sans-serif" font-size="14" font-weight="bold" lengthAdjust="spacingAndGlyphs" textLength="104" x="1175" y="30.9951">pythagoras.d</text><!--class ISO8601--><rect fill="#FEFECE" filter="url(#f2s0wjgm1skbt)" height="48" id="ISO8601" style="stroke: #A80036; stroke-width: 1.5;" width="84" x="742" y="62"/><ellipse cx="757" cy="78" fill="#ADD1B2" rx="11" ry="11" style="stroke: #A80036; stroke-width: 1.0;"/><path d="M759.9688,83.6406 Q759.3906,83.9375 758.75,84.0859 Q758.1094,84.2344 757.4063,84.2344 Q754.9063,84.2344 753.5859,82.5859 Q752.2656,80.9375 752.2656,77.8125 Q752.2656,74.6875 753.5859,73.0313 Q754.9063,71.375 757.4063,71.375 Q758.1094,71.375 758.7578,71.5313 Q759.4063,71.6875 759.9688,71.9844 L759.9688,74.7031 Q759.3438,74.125 758.75,73.8516 Q758.1563,73.5781 757.5313,73.5781 Q756.1875,73.5781 755.5,74.6484 Q754.8125,75.7188 754.8125,77.8125 Q754.8125,79.9063 755.5,80.9766 Q756.1875,82.0469 757.5313,82.0469 Q758.1563,82.0469 758.75,81.7734 Q759.3438,81.5 759.9688,80.9219 L759.9688,83.6406 Z "/><text fill="#000000" font-family="sans-serif" font-size="12" lengthAdjust="spacingAndGlyphs" textLength="52" x="771" y="82.1543">ISO8601</text><line style="stroke: #A80036; stroke-width: 1.5;" x1="743" x2="825" y1="94" y2="94"/><line style="stroke: #A80036; stroke-width: 1.5;" x1="743" x2="825" y1="102" y2="102"/><!--class Track--><rect fill="#FEFECE" filter="url(#f2s0wjgm1skbt)" height="73.6094" id="Track" style="stroke: #A80036; stroke-width: 1.5;" width="152" x="22" y="214.5"/><ellipse cx="76.75" cy="230.5" fill="#ADD1B2" rx="11" ry="11" style="stroke: #A80036; stroke-width: 1.0;"/><path d="M79.7188,236.1406 Q79.1406,236.4375 78.5,236.5859 Q77.8594,236.7344 77.1563,236.7344 Q74.6563,236.7344 73.3359,235.0859 Q72.0156,233.4375 72.0156,230.3125 Q72.0156,227.1875 73.3359,225.5313 Q74.6563,223.875 77.1563,223.875 Q77.8594,223.875 78.5078,224.0313 Q79.1563,224.1875 79.7188,224.4844 L79.7188,227.2031 Q79.0938,226.625 78.5,226.3516 Q77.9063,226.0781 77.2813,226.0781 Q75.9375,226.0781 75.25,227.1484 Q74.5625,228.2188 74.5625,230.3125 Q74.5625,232.4063 75.25,233.4766 Q75.9375,234.5469 77.2813,234.5469 Q77.9063,234.5469 78.5,234.2734 Q79.0938,234 79.7188,233.4219 L79.7188,236.1406 Z "/><text fill="#000000" font-family="sans-serif" font-size="12" lengthAdjust="spacingAndGlyphs" textLength="34" x="97.25" y="234.6543">Track</text><line style="stroke: #A80036; stroke-width: 1.5;" x1="23" x2="173" y1="246.5" y2="246.5"/><text fill="#000000" font-family="sans-serif" font-size="11" lengthAdjust="spacingAndGlyphs" textLength="140" x="28" y="260.7104">TrackEntry[] trackEntries</text><text fill="#000000" font-family="sans-serif" font-size="11" lengthAdjust="spacingAndGlyphs" textLength="90" x="28" y="273.5151">String aircraftID</text><line style="stroke: #A80036; stroke-width: 1.5;" x1="23" x2="173" y1="280.1094" y2="280.1094"/><!--class Prediction--><rect fill="#FEFECE" filter="url(#f2s0wjgm1skbt)" height="86.4141" id="Prediction" style="stroke: #A80036; stroke-width: 1.5;" width="147" x="861.5" y="43"/><ellipse cx="899.9" cy="59" fill="#ADD1B2" rx="11" ry="11" style="stroke: #A80036; stroke-width: 1.0;"/><path d="M902.8688,64.6406 Q902.2906,64.9375 901.65,65.0859 Q901.0094,65.2344 900.3063,65.2344 Q897.8063,65.2344 896.4859,63.5859 Q895.1656,61.9375 895.1656,58.8125 Q895.1656,55.6875 896.4859,54.0313 Q897.8063,52.375 900.3063,52.375 Q901.0094,52.375 901.6578,52.5313 Q902.3063,52.6875 902.8688,52.9844 L902.8688,55.7031 Q902.2438,55.125 901.65,54.8516 Q901.0563,54.5781 900.4313,54.5781 Q899.0875,54.5781 898.4,55.6484 Q897.7125,56.7188 897.7125,58.8125 Q897.7125,60.9063 898.4,61.9766 Q899.0875,63.0469 900.4313,63.0469 Q901.0563,63.0469 901.65,62.7734 Q902.2438,62.5 902.8688,61.9219 L902.8688,64.6406 Z "/><text fill="#000000" font-family="sans-serif" font-size="12" lengthAdjust="spacingAndGlyphs" textLength="63" x="919.1" y="63.1543">Prediction</text><line style="stroke: #A80036; stroke-width: 1.5;" x1="862.5" x2="1007.5" y1="75" y2="75"/><text fill="#000000" font-family="sans-serif" font-size="11" lengthAdjust="spacingAndGlyphs" textLength="135" x="867.5" y="89.2104">GeographicCoordinate[]</text><text fill="#000000" font-family="sans-serif" font-size="11" lengthAdjust="spacingAndGlyphs" textLength="80" x="867.5" y="102.0151">Calendar time</text><text fill="#000000" font-family="sans-serif" font-size="11" lengthAdjust="spacingAndGlyphs" textLength="90" x="867.5" y="114.8198">String aircraftID</text><line style="stroke: #A80036; stroke-width: 1.5;" x1="862.5" x2="1007.5" y1="121.4141" y2="121.4141"/><!--class TrackLoader--><rect fill="#FEFECE" filter="url(#f2s0wjgm1skbt)" height="60.8047" id="TrackLoader" style="stroke: #A80036; stroke-width: 1.5;" width="110" x="259" y="55.5"/><ellipse cx="274" cy="71.5" fill="#A9DCDF" rx="11" ry="11" style="stroke: #A80036; stroke-width: 1.0;"/><path d="M274.1094,66.8438 L272.9531,71.9219 L275.2813,71.9219 L274.1094,66.8438 Z M272.625,64.6094 L275.6094,64.6094 L278.9688,77 L276.5156,77 L275.75,73.9375 L272.4688,73.9375 L271.7188,77 L269.2813,77 L272.625,64.6094 Z "/><text fill="#000000" font-family="sans-serif" font-size="12" font-style="italic" lengthAdjust="spacingAndGlyphs" textLength="78" x="288" y="75.6543">TrackLoader</text><line style="stroke: #A80036; stroke-width: 1.5;" x1="260" x2="368" y1="87.5" y2="87.5"/><line style="stroke: #A80036; stroke-width: 1.5;" x1="260" x2="368" y1="95.5" y2="95.5"/><ellipse cx="270" cy="107.4023" fill="#84BE84" rx="3" ry="3" style="stroke: #038048; stroke-width: 1.0;"/><text fill="#000000" font-family="sans-serif" font-size="11" lengthAdjust="spacingAndGlyphs" textLength="67" x="279" y="109.7104">Track load()</text><!--class SimulatorTrackLoader--><rect fill="#FEFECE" filter="url(#f2s0wjgm1skbt)" height="73.6094" id="SimulatorTrackLoader" style="stroke: #A80036; stroke-width: 1.5;" width="209" x="209.5" y="214.5"/><ellipse cx="242.95" cy="230.5" fill="#ADD1B2" rx="11" ry="11" style="stroke: #A80036; stroke-width: 1.0;"/><path d="M245.9188,236.1406 Q245.3406,236.4375 244.7,236.5859 Q244.0594,236.7344 243.3563,236.7344 Q240.8563,236.7344 239.5359,235.0859 Q238.2156,233.4375 238.2156,230.3125 Q238.2156,227.1875 239.5359,225.5313 Q240.8563,223.875 243.3563,223.875 Q244.0594,223.875 244.7078,224.0313 Q245.3563,224.1875 245.9188,224.4844 L245.9188,227.2031 Q245.2938,226.625 244.7,226.3516 Q244.1063,226.0781 243.4813,226.0781 Q242.1375,226.0781 241.45,227.1484 Q240.7625,228.2188 240.7625,230.3125 Q240.7625,232.4063 241.45,233.4766 Q242.1375,234.5469 243.4813,234.5469 Q244.1063,234.5469 244.7,234.2734 Q245.2938,234 245.9188,233.4219 L245.9188,236.1406 Z "/><text fill="#000000" font-family="sans-serif" font-size="12" lengthAdjust="spacingAndGlyphs" textLength="136" x="261.05" y="234.6543">SimulatorTrackLoader</text><line style="stroke: #A80036; stroke-width: 1.5;" x1="210.5" x2="417.5" y1="246.5" y2="246.5"/><line style="stroke: #A80036; stroke-width: 1.5;" x1="210.5" x2="417.5" y1="254.5" y2="254.5"/><ellipse cx="220.5" cy="266.4023" fill="#84BE84" rx="3" ry="3" style="stroke: #038048; stroke-width: 1.0;"/><text fill="#000000" font-family="sans-serif" font-size="11" lengthAdjust="spacingAndGlyphs" textLength="183" x="229.5" y="268.7104">SimulatorTrackLoader(fileName)</text><ellipse cx="220.5" cy="279.207" fill="#84BE84" rx="3" ry="3" style="stroke: #038048; stroke-width: 1.0;"/><text fill="#000000" font-family="sans-serif" font-size="11" lengthAdjust="spacingAndGlyphs" textLength="67" x="229.5" y="281.5151">Track load()</text><!--class ADSBTrackLoader--><rect fill="#FEFECE" filter="url(#f2s0wjgm1skbt)" height="73.6094" id="ADSBTrackLoader" style="stroke: #A80036; stroke-width: 1.5;" width="209" x="453.5" y="214.5"/><ellipse cx="498.75" cy="230.5" fill="#ADD1B2" rx="11" ry="11" style="stroke: #A80036; stroke-width: 1.0;"/><path d="M501.7188,236.1406 Q501.1406,236.4375 500.5,236.5859 Q499.8594,236.7344 499.1563,236.7344 Q496.6563,236.7344 495.3359,235.0859 Q494.0156,233.4375 494.0156,230.3125 Q494.0156,227.1875 495.3359,225.5313 Q496.6563,223.875 499.1563,223.875 Q499.8594,223.875 500.5078,224.0313 Q501.1563,224.1875 501.7188,224.4844 L501.7188,227.2031 Q501.0938,226.625 500.5,226.3516 Q499.9063,226.0781 499.2813,226.0781 Q497.9375,226.0781 497.25,227.1484 Q496.5625,228.2188 496.5625,230.3125 Q496.5625,232.4063 497.25,233.4766 Q497.9375,234.5469 499.2813,234.5469 Q499.9063,234.5469 500.5,234.2734 Q501.0938,234 501.7188,233.4219 L501.7188,236.1406 Z "/><text fill="#000000" font-family="sans-serif" font-size="12" lengthAdjust="spacingAndGlyphs" textLength="110" x="519.25" y="234.6543">ADSBTrackLoader</text><line style="stroke: #A80036; stroke-width: 1.5;" x1="454.5" x2="661.5" y1="246.5" y2="246.5"/><line style="stroke: #A80036; stroke-width: 1.5;" x1="454.5" x2="661.5" y1="254.5" y2="254.5"/><ellipse cx="464.5" cy="266.4023" fill="#84BE84" rx="3" ry="3" style="stroke: #038048; stroke-width: 1.0;"/><text fill="#000000" font-family="sans-serif" font-size="11" lengthAdjust="spacingAndGlyphs" textLength="183" x="473.5" y="268.7104">SimulatorTrackLoader(fileName)</text><ellipse cx="464.5" cy="279.207" fill="#84BE84" rx="3" ry="3" style="stroke: #038048; stroke-width: 1.0;"/><text fill="#000000" font-family="sans-serif" font-size="11" lengthAdjust="spacingAndGlyphs" textLength="67" x="473.5" y="281.5151">Track load()</text><!--class AircraftState--><rect fill="#FEFECE" filter="url(#f2s0wjgm1skbt)" height="150.4375" id="AircraftState" style="stroke: #A80036; stroke-width: 1.5;" width="379" x="21.5" y="374"/><ellipse cx="167.25" cy="390" fill="#ADD1B2" rx="11" ry="11" style="stroke: #A80036; stroke-width: 1.0;"/><path d="M170.2188,395.6406 Q169.6406,395.9375 169,396.0859 Q168.3594,396.2344 167.6563,396.2344 Q165.1563,396.2344 163.8359,394.5859 Q162.5156,392.9375 162.5156,389.8125 Q162.5156,386.6875 163.8359,385.0313 Q165.1563,383.375 167.6563,383.375 Q168.3594,383.375 169.0078,383.5313 Q169.6563,383.6875 170.2188,383.9844 L170.2188,386.7031 Q169.5938,386.125 169,385.8516 Q168.4063,385.5781 167.7813,385.5781 Q166.4375,385.5781 165.75,386.6484 Q165.0625,387.7188 165.0625,389.8125 Q165.0625,391.9063 165.75,392.9766 Q166.4375,394.0469 167.7813,394.0469 Q168.4063,394.0469 169,393.7734 Q169.5938,393.5 170.2188,392.9219 L170.2188,395.6406 Z "/><text fill="#000000" font-family="sans-serif" font-size="12" lengthAdjust="spacingAndGlyphs" textLength="79" x="187.75" y="394.1543">AircraftState</text><line style="stroke: #A80036; stroke-width: 1.5;" x1="22.5" x2="399.5" y1="406" y2="406"/><line style="stroke: #A80036; stroke-width: 1.5;" x1="22.5" x2="399.5" y1="414" y2="414"/><ellipse cx="32.5" cy="425.9023" fill="#84BE84" rx="3" ry="3" style="stroke: #038048; stroke-width: 1.0;"/><text fill="#000000" font-family="sans-serif" font-size="11" lengthAdjust="spacingAndGlyphs" textLength="353" x="41.5" y="428.2104">AircraftState(String aircraftID, GeographicCoordinate position,</text><text fill="#000000" font-family="sans-serif" font-size="11" lengthAdjust="spacingAndGlyphs" textLength="228" x="41.5" y="441.0151">SphericalVelocity velocity, float heading)</text><ellipse cx="32.5" cy="451.5117" fill="#84BE84" rx="3" ry="3" style="stroke: #038048; stroke-width: 1.0;"/><text fill="#000000" font-family="sans-serif" font-size="11" lengthAdjust="spacingAndGlyphs" textLength="198" x="41.5" y="453.8198">setPosition(GeographicCoordinate)</text><ellipse cx="32.5" cy="464.3164" fill="#84BE84" rx="3" ry="3" style="stroke: #038048; stroke-width: 1.0;"/><text fill="#000000" font-family="sans-serif" font-size="11" lengthAdjust="spacingAndGlyphs" textLength="165" x="41.5" y="466.6245">setVelocity(SphericalVelocity)</text><ellipse cx="32.5" cy="477.1211" fill="#84BE84" rx="3" ry="3" style="stroke: #038048; stroke-width: 1.0;"/><text fill="#000000" font-family="sans-serif" font-size="11" lengthAdjust="spacingAndGlyphs" textLength="146" x="41.5" y="479.4292">setHeading(float heading)</text><ellipse cx="32.5" cy="489.9258" fill="#84BE84" rx="3" ry="3" style="stroke: #038048; stroke-width: 1.0;"/><text fill="#000000" font-family="sans-serif" font-size="11" lengthAdjust="spacingAndGlyphs" textLength="202" x="41.5" y="492.2339">GeographicCoordinate getPosition()</text><ellipse cx="32.5" cy="502.7305" fill="#84BE84" rx="3" ry="3" style="stroke: #038048; stroke-width: 1.0;"/><text fill="#000000" font-family="sans-serif" font-size="11" lengthAdjust="spacingAndGlyphs" textLength="188" x="41.5" y="505.0386">SphericalCoordinate getVelocity()</text><ellipse cx="32.5" cy="515.5352" fill="#84BE84" rx="3" ry="3" style="stroke: #038048; stroke-width: 1.0;"/><text fill="#000000" font-family="sans-serif" font-size="11" lengthAdjust="spacingAndGlyphs" textLength="101" x="41.5" y="517.8433">float getHeading()</text><!--class SystemState--><rect fill="#FEFECE" filter="url(#f2s0wjgm1skbt)" height="73.6094" id="SystemState" style="stroke: #A80036; stroke-width: 1.5;" width="173" x="697.5" y="214.5"/><ellipse cx="740.4" cy="230.5" fill="#ADD1B2" rx="11" ry="11" style="stroke: #A80036; stroke-width: 1.0;"/><path d="M743.3688,236.1406 Q742.7906,236.4375 742.15,236.5859 Q741.5094,236.7344 740.8063,236.7344 Q738.3063,236.7344 736.9859,235.0859 Q735.6656,233.4375 735.6656,230.3125 Q735.6656,227.1875 736.9859,225.5313 Q738.3063,223.875 740.8063,223.875 Q741.5094,223.875 742.1578,224.0313 Q742.8063,224.1875 743.3688,224.4844 L743.3688,227.2031 Q742.7438,226.625 742.15,226.3516 Q741.5563,226.0781 740.9313,226.0781 Q739.5875,226.0781 738.9,227.1484 Q738.2125,228.2188 738.2125,230.3125 Q738.2125,232.4063 738.9,233.4766 Q739.5875,234.5469 740.9313,234.5469 Q741.5563,234.5469 742.15,234.2734 Q742.7438,234 743.3688,233.4219 L743.3688,236.1406 Z "/><text fill="#000000" font-family="sans-serif" font-size="12" lengthAdjust="spacingAndGlyphs" textLength="79" x="760.6" y="234.6543">SystemState</text><line style="stroke: #A80036; stroke-width: 1.5;" x1="698.5" x2="869.5" y1="246.5" y2="246.5"/><text fill="#000000" font-family="sans-serif" font-size="11" lengthAdjust="spacingAndGlyphs" textLength="80" x="703.5" y="260.7104">Calendar time</text><text fill="#000000" font-family="sans-serif" font-size="11" lengthAdjust="spacingAndGlyphs" textLength="161" x="703.5" y="273.5151">AircraftState[] aircraftStates</text><line style="stroke: #A80036; stroke-width: 1.5;" x1="698.5" x2="869.5" y1="280.1094" y2="280.1094"/><!--class SortableOrderedQueue--><rect fill="#FEFECE" filter="url(#f2s0wjgm1skbt)" height="124.8281" id="SortableOrderedQueue" style="stroke: #A80036; stroke-width: 1.5;" width="249" x="905.5" y="189"/><ellipse cx="954.25" cy="205" fill="#A9DCDF" rx="11" ry="11" style="stroke: #A80036; stroke-width: 1.0;"/><path d="M954.3594,200.3438 L953.2031,205.4219 L955.5313,205.4219 L954.3594,200.3438 Z M952.875,198.1094 L955.8594,198.1094 L959.2188,210.5 L956.7656,210.5 L956,207.4375 L952.7188,207.4375 L951.9688,210.5 L949.5313,210.5 L952.875,198.1094 Z "/><text fill="#000000" font-family="sans-serif" font-size="12" font-style="italic" lengthAdjust="spacingAndGlyphs" textLength="143" x="974.75" y="209.1543">SortableOrderedQueue</text><line style="stroke: #A80036; stroke-width: 1.5;" x1="906.5" x2="1153.5" y1="221" y2="221"/><line style="stroke: #A80036; stroke-width: 1.5;" x1="906.5" x2="1153.5" y1="229" y2="229"/><ellipse cx="916.5" cy="240.9023" fill="#84BE84" rx="3" ry="3" style="stroke: #038048; stroke-width: 1.0;"/><text fill="#000000" font-family="sans-serif" font-size="11" lengthAdjust="spacingAndGlyphs" textLength="57" x="925.5" y="243.2104">append(T)</text><ellipse cx="916.5" cy="253.707" fill="#84BE84" rx="3" ry="3" style="stroke: #038048; stroke-width: 1.0;"/><text fill="#000000" font-family="sans-serif" font-size="11" lengthAdjust="spacingAndGlyphs" textLength="36" x="925.5" y="256.0151">add(T)</text><ellipse cx="916.5" cy="266.5117" fill="#84BE84" rx="3" ry="3" style="stroke: #038048; stroke-width: 1.0;"/><text fill="#000000" font-family="sans-serif" font-size="11" lengthAdjust="spacingAndGlyphs" textLength="223" x="925.5" y="268.8198">boolean addAll(ArrayList&lt;T&gt; collection)</text><ellipse cx="916.5" cy="279.3164" fill="#84BE84" rx="3" ry="3" style="stroke: #038048; stroke-width: 1.0;"/><text fill="#000000" font-family="sans-serif" font-size="11" lengthAdjust="spacingAndGlyphs" textLength="39" x="925.5" y="281.6245">T poll()</text><ellipse cx="916.5" cy="292.1211" fill="#84BE84" rx="3" ry="3" style="stroke: #038048; stroke-width: 1.0;"/><text fill="#000000" font-family="sans-serif" font-size="11" lengthAdjust="spacingAndGlyphs" textLength="46" x="925.5" y="294.4292">T peek()</text><ellipse cx="916.5" cy="304.9258" fill="#84BE84" rx="3" ry="3" style="stroke: #038048; stroke-width: 1.0;"/><text fill="#000000" font-family="sans-serif" font-size="11" lengthAdjust="spacingAndGlyphs" textLength="109" x="925.5" y="307.2339">abstract void sort()</text><!--class Vector3--><rect fill="#FEFECE" filter="url(#f2s0wjgm1skbt)" height="86.4141" id="Vector3" style="stroke: #A80036; stroke-width: 1.5;" width="81" x="1190.5" y="43"/><ellipse cx="1205.5" cy="59" fill="#ADD1B2" rx="11" ry="11" style="stroke: #A80036; stroke-width: 1.0;"/><path d="M1208.4688,64.6406 Q1207.8906,64.9375 1207.25,65.0859 Q1206.6094,65.2344 1205.9063,65.2344 Q1203.4063,65.2344 1202.0859,63.5859 Q1200.7656,61.9375 1200.7656,58.8125 Q1200.7656,55.6875 1202.0859,54.0313 Q1203.4063,52.375 1205.9063,52.375 Q1206.6094,52.375 1207.2578,52.5313 Q1207.9063,52.6875 1208.4688,52.9844 L1208.4688,55.7031 Q1207.8438,55.125 1207.25,54.8516 Q1206.6563,54.5781 1206.0313,54.5781 Q1204.6875,54.5781 1204,55.6484 Q1203.3125,56.7188 1203.3125,58.8125 Q1203.3125,60.9063 1204,61.9766 Q1204.6875,63.0469 1206.0313,63.0469 Q1206.6563,63.0469 1207.25,62.7734 Q1207.8438,62.5 1208.4688,61.9219 L1208.4688,64.6406 Z "/><text fill="#000000" font-family="sans-serif" font-size="12" lengthAdjust="spacingAndGlyphs" textLength="49" x="1219.5" y="63.1543">Vector3</text><line style="stroke: #A80036; stroke-width: 1.5;" x1="1191.5" x2="1270.5" y1="75" y2="75"/><ellipse cx="1201.5" cy="86.9023" fill="none" rx="3" ry="3" style="stroke: #038048; stroke-width: 1.0;"/><text fill="#000000" font-family="sans-serif" font-size="11" lengthAdjust="spacingAndGlyphs" textLength="48" x="1210.5" y="89.2104">double x</text><ellipse cx="1201.5" cy="99.707" fill="none" rx="3" ry="3" style="stroke: #038048; stroke-width: 1.0;"/><text fill="#000000" font-family="sans-serif" font-size="11" lengthAdjust="spacingAndGlyphs" textLength="48" x="1210.5" y="102.0151">double y</text><ellipse cx="1201.5" cy="112.5117" fill="none" rx="3" ry="3" style="stroke: #038048; stroke-width: 1.0;"/><text fill="#000000" font-family="sans-serif" font-size="11" lengthAdjust="spacingAndGlyphs" textLength="47" x="1210.5" y="114.8198">double z</text><line style="stroke: #A80036; stroke-width: 1.5;" x1="1191.5" x2="1270.5" y1="121.4141" y2="121.4141"/><!--link Track to AircraftState--><path d="M125.8368,300.1529 C138.5608,322.3917 153.923,349.2415 168.0769,373.9795 " fill="none" id="Track-AircraftState" style="stroke: #A80036; stroke-width: 1.0;"/><polygon fill="#A80036" points="119.2544,288.6482,118.7622,295.8425,125.2138,299.0638,125.706,291.8696,119.2544,288.6482" style="stroke: #A80036; stroke-width: 1.0;"/><!--link TrackLoader to Track--><path d="M274.1306,116.5481 C238.0486,144.1942 184.8186,184.9793 146.3275,214.4713 " fill="none" id="TrackLoader-Track" style="stroke: #A80036; stroke-width: 1.0;"/><!--link TrackLoader to ADSBTrackLoader--><path d="M375.6886,127.842 C415.0226,154.5215 465.5321,188.781 503.4078,214.4713 " fill="none" id="TrackLoader-ADSBTrackLoader" style="stroke: #A80036; stroke-width: 1.0;"/><polygon fill="none" points="371.6601,133.568,359.0377,116.5481,379.5189,121.9817,371.6601,133.568" style="stroke: #A80036; stroke-width: 1.0;"/><!--link TrackLoader to SimulatorTrackLoader--><path d="M314,136.823 C314,161.8169 314,191.4006 314,214.2595 " fill="none" id="TrackLoader-SimulatorTrackLoader" style="stroke: #A80036; stroke-width: 1.0;"/><polygon fill="none" points="307.0001,136.7415,314,116.7414,321.0001,136.7414,307.0001,136.7415" style="stroke: #A80036; stroke-width: 1.0;"/><!--link ISO8601 to Prediction--><!--link ISO8601 to SystemState--><!--link SystemState to SortableOrderedQueue--><!--
@startuml

package "FlightData" {
  class ISO8601

  class Track {
    TrackEntry[] trackEntries
    String aircraftID
  }

  class Prediction {
    GeographicCoordinate[]
    Calendar time
    String aircraftID
  }

  abstract class TrackLoader {
    +Track load()
  }

  class SimulatorTrackLoader {
    +SimulatorTrackLoader(fileName)
    +Track load()
  }

  class ADSBTrackLoader {
    +SimulatorTrackLoader(fileName)
    +Track load()
  }

  class AircraftState {
    +AircraftState(String aircraftID, GeographicCoordinate position,
      SphericalVelocity velocity, float heading)
    +setPosition(GeographicCoordinate)
    +setVelocity(SphericalVelocity)
    +setHeading(float heading)
    +GeographicCoordinate getPosition()
    +SphericalCoordinate getVelocity()
    +float getHeading()
  }

  class SystemState {
    Calendar time
    AircraftState[] aircraftStates
  }

  abstract class SortableOrderedQueue {
    +append(T)
    +add(T)
    +boolean addAll(ArrayList<T> collection)
    +T poll()
    +T peek()
    +abstract void sort()
  }

  Track *- - AircraftState
  TrackLoader - - Track
  TrackLoader <|- - ADSBTrackLoader
  TrackLoader <|- - SimulatorTrackLoader


}

package "pythagoras.d" {
  class Vector3 {
    +double x
    +double y
    +double z
  }
}

@enduml

PlantUML version 1.2018.05(Sun May 06 06:00:17 AEST 2018)
(GPL source distribution)
Java Runtime: OpenJDK Runtime Environment
JVM: OpenJDK 64-Bit Server VM
Java Version: 1.8.0_162-b12
Operating System: Linux
OS Version: 4.16.3-1-ARCH
Default Encoding: UTF-8
Language: en
Country: US
--></g></svg>