<?xml version="1.0" encoding="UTF-8" standalone="no"?><svg xmlns="http://www.w3.org/2000/svg" xmlns:xlink="http://www.w3.org/1999/xlink" contentScriptType="application/ecmascript" contentStyleType="text/css" height="427px" preserveAspectRatio="none" style="width:2309px;height:427px;" version="1.1" viewBox="0 0 2309 427" width="2309px" zoomAndPan="magnify"><defs><filter height="300%" id="ff7kr4qnpdzk0" width="300%" x="-1" y="-1"><feGaussianBlur result="blurOut" stdDeviation="2.0"/><feColorMatrix in="blurOut" result="blurOut2" type="matrix" values="0 0 0 0 0 0 0 0 0 0 0 0 0 0 0 0 0 0 .4 0"/><feOffset dx="4.0" dy="4.0" in="blurOut2" result="blurOut3"/><feBlend in="SourceGraphic" in2="blurOut3" mode="normal"/></filter></defs><g><!--cluster PredictionPackage--><polygon fill="#FFFFFF" filter="url(#ff7kr4qnpdzk0)" points="14,16,73,16,80,38.2969,2287,38.2969,2287,415,14,415,14,16" style="stroke: #000000; stroke-width: 1.5;"/><line style="stroke: #000000; stroke-width: 1.5;" x1="14" x2="80" y1="38.2969" y2="38.2969"/><text fill="#000000" font-family="sans-serif" font-size="14" font-weight="bold" lengthAdjust="spacingAndGlyphs" textLength="53" x="18" y="30.9951">Engine</text><!--cluster AlgorithmsPackage--><polygon fill="#FFFFFF" filter="url(#ff7kr4qnpdzk0)" points="1057,43,1148,43,1155,65.2969,2279,65.2969,2279,359,1057,359,1057,43" style="stroke: #000000; stroke-width: 1.5;"/><line style="stroke: #000000; stroke-width: 1.5;" x1="1057" x2="1155" y1="65.2969" y2="65.2969"/><text fill="#000000" font-family="sans-serif" font-size="14" font-weight="bold" lengthAdjust="spacingAndGlyphs" textLength="85" x="1061" y="57.9951">Algorithms</text><!--cluster JavaAlgorithmsPackage--><polygon fill="#FFFFFF" filter="url(#ff7kr4qnpdzk0)" points="1432,70,1469,70,1476,92.2969,2271,92.2969,2271,351,1432,351,1432,70" style="stroke: #000000; stroke-width: 1.5;"/><line style="stroke: #000000; stroke-width: 1.5;" x1="1432" x2="1476" y1="92.2969" y2="92.2969"/><text fill="#000000" font-family="sans-serif" font-size="14" font-weight="bold" lengthAdjust="spacingAndGlyphs" textLength="31" x="1436" y="84.9951">Java</text><!--cluster OpenCLAlgorithmsPackage--><polygon fill="#FFFFFF" filter="url(#ff7kr4qnpdzk0)" points="1065,83,1133,83,1140,105.2969,1424,105.2969,1424,166,1065,166,1065,83" style="stroke: #000000; stroke-width: 1.5;"/><line style="stroke: #000000; stroke-width: 1.5;" x1="1065" x2="1140" y1="105.2969" y2="105.2969"/><text fill="#000000" font-family="sans-serif" font-size="14" font-weight="bold" lengthAdjust="spacingAndGlyphs" textLength="62" x="1069" y="97.9951">OpenCL</text><!--cluster WorkersPackage--><polygon fill="#FFFFFF" filter="url(#ff7kr4qnpdzk0)" points="560,70,633,70,640,92.2969,1049,92.2969,1049,351,560,351,560,70" style="stroke: #000000; stroke-width: 1.5;"/><line style="stroke: #000000; stroke-width: 1.5;" x1="560" x2="640" y1="92.2969" y2="92.2969"/><text fill="#000000" font-family="sans-serif" font-size="14" font-weight="bold" lengthAdjust="spacingAndGlyphs" textLength="67" x="564" y="84.9951">Workers</text><!--class PredictionWorkItem--><rect fill="#FEFECE" filter="url(#ff7kr4qnpdzk0)" height="176.0469" id="PredictionWorkItem" style="stroke: #A80036; stroke-width: 1.5;" width="234" x="299" y="231"/><ellipse cx="351.25" cy="247" fill="#ADD1B2" rx="11" ry="11" style="stroke: #A80036; stroke-width: 1.0;"/><path d="M354.2188,252.6406 Q353.6406,252.9375 353,253.0859 Q352.3594,253.2344 351.6563,253.2344 Q349.1563,253.2344 347.8359,251.5859 Q346.5156,249.9375 346.5156,246.8125 Q346.5156,243.6875 347.8359,242.0313 Q349.1563,240.375 351.6563,240.375 Q352.3594,240.375 353.0078,240.5313 Q353.6563,240.6875 354.2188,240.9844 L354.2188,243.7031 Q353.5938,243.125 353,242.8516 Q352.4063,242.5781 351.7813,242.5781 Q350.4375,242.5781 349.75,243.6484 Q349.0625,244.7188 349.0625,246.8125 Q349.0625,248.9063 349.75,249.9766 Q350.4375,251.0469 351.7813,251.0469 Q352.4063,251.0469 353,250.7734 Q353.5938,250.5 354.2188,249.9219 L354.2188,252.6406 Z "/><text fill="#000000" font-family="sans-serif" font-size="12" lengthAdjust="spacingAndGlyphs" textLength="121" x="371.75" y="251.1543">PredictionWorkItem</text><line style="stroke: #A80036; stroke-width: 1.5;" x1="300" x2="532" y1="263" y2="263"/><text fill="#000000" font-family="sans-serif" font-size="11" lengthAdjust="spacingAndGlyphs" textLength="90" x="305" y="277.2104">String aircraftID</text><text fill="#000000" font-family="sans-serif" font-size="11" lengthAdjust="spacingAndGlyphs" textLength="107" x="305" y="290.0151">Track aircraftTrack</text><text fill="#000000" font-family="sans-serif" font-size="11" lengthAdjust="spacingAndGlyphs" textLength="116" x="305" y="302.8198">Prediction prediction</text><text fill="#000000" font-family="sans-serif" font-size="11" lengthAdjust="spacingAndGlyphs" textLength="125" x="305" y="315.6245">Calendar timeCreated</text><text fill="#000000" font-family="sans-serif" font-size="11" lengthAdjust="spacingAndGlyphs" textLength="122" x="305" y="328.4292">Calendar timeStarted</text><text fill="#000000" font-family="sans-serif" font-size="11" lengthAdjust="spacingAndGlyphs" textLength="141" x="305" y="341.2339">Calendar timeCompleted</text><text fill="#000000" font-family="sans-serif" font-size="11" lengthAdjust="spacingAndGlyphs" textLength="90" x="305" y="354.0386">boolean started</text><text fill="#000000" font-family="sans-serif" font-size="11" lengthAdjust="spacingAndGlyphs" textLength="108" x="305" y="366.8433">boolean completed</text><text fill="#000000" font-family="sans-serif" font-size="11" lengthAdjust="spacingAndGlyphs" textLength="138" x="305" y="379.6479">PredictionWorker worker</text><text fill="#000000" font-family="sans-serif" font-size="11" lengthAdjust="spacingAndGlyphs" textLength="222" x="305" y="392.4526">PredictionAlgorithmType algorithmType</text><line style="stroke: #A80036; stroke-width: 1.5;" x1="300" x2="532" y1="399.0469" y2="399.0469"/><!--class PredictionEngine--><rect fill="#FEFECE" filter="url(#ff7kr4qnpdzk0)" height="73.6094" id="PredictionEngine" style="stroke: #A80036; stroke-width: 1.5;" width="243" x="289.5" y="97"/><ellipse cx="353.75" cy="113" fill="#ADD1B2" rx="11" ry="11" style="stroke: #A80036; stroke-width: 1.0;"/><path d="M356.7188,118.6406 Q356.1406,118.9375 355.5,119.0859 Q354.8594,119.2344 354.1563,119.2344 Q351.6563,119.2344 350.3359,117.5859 Q349.0156,115.9375 349.0156,112.8125 Q349.0156,109.6875 350.3359,108.0313 Q351.6563,106.375 354.1563,106.375 Q354.8594,106.375 355.5078,106.5313 Q356.1563,106.6875 356.7188,106.9844 L356.7188,109.7031 Q356.0938,109.125 355.5,108.8516 Q354.9063,108.5781 354.2813,108.5781 Q352.9375,108.5781 352.25,109.6484 Q351.5625,110.7188 351.5625,112.8125 Q351.5625,114.9063 352.25,115.9766 Q352.9375,117.0469 354.2813,117.0469 Q354.9063,117.0469 355.5,116.7734 Q356.0938,116.5 356.7188,115.9219 L356.7188,118.6406 Z "/><text fill="#000000" font-family="sans-serif" font-size="12" lengthAdjust="spacingAndGlyphs" textLength="106" x="374.25" y="117.1543">PredictionEngine</text><line style="stroke: #A80036; stroke-width: 1.5;" x1="290.5" x2="531.5" y1="129" y2="129"/><text fill="#000000" font-family="sans-serif" font-size="11" lengthAdjust="spacingAndGlyphs" textLength="229" x="295.5" y="143.2104">Queue&lt;PredictionWorkItem&gt; todoQueue</text><text fill="#000000" font-family="sans-serif" font-size="11" lengthAdjust="spacingAndGlyphs" textLength="231" x="295.5" y="156.0151">ArrayList&lt;PredictionWorkItem&gt; doingList</text><line style="stroke: #A80036; stroke-width: 1.5;" x1="290.5" x2="531.5" y1="162.6094" y2="162.6094"/><!--class PredictionEngineListener--><rect fill="#FEFECE" filter="url(#ff7kr4qnpdzk0)" height="73.6094" id="PredictionEngineListener" style="stroke: #A80036; stroke-width: 1.5;" width="242" x="22" y="282"/><ellipse cx="61.75" cy="298" fill="#B4A7E5" rx="11" ry="11" style="stroke: #A80036; stroke-width: 1.0;"/><path d="M57.6719,293.7656 L57.6719,291.6094 L65.0625,291.6094 L65.0625,293.7656 L62.5938,293.7656 L62.5938,301.8438 L65.0625,301.8438 L65.0625,304 L57.6719,304 L57.6719,301.8438 L60.1406,301.8438 L60.1406,293.7656 L57.6719,293.7656 Z "/><text fill="#000000" font-family="sans-serif" font-size="12" font-style="italic" lengthAdjust="spacingAndGlyphs" textLength="155" x="81.25" y="302.1543">PredictionEngineListener</text><line style="stroke: #A80036; stroke-width: 1.5;" x1="23" x2="263" y1="314" y2="314"/><line style="stroke: #A80036; stroke-width: 1.5;" x1="23" x2="263" y1="322" y2="322"/><ellipse cx="33" cy="333.9023" fill="#84BE84" rx="3" ry="3" style="stroke: #038048; stroke-width: 1.0;"/><text fill="#000000" font-family="sans-serif" font-size="11" lengthAdjust="spacingAndGlyphs" textLength="216" x="42" y="336.2104">workItemOverdue(PredictionWorkItem)</text><ellipse cx="33" cy="346.707" fill="#84BE84" rx="3" ry="3" style="stroke: #038048; stroke-width: 1.0;"/><text fill="#000000" font-family="sans-serif" font-size="11" lengthAdjust="spacingAndGlyphs" textLength="174" x="42" y="349.0151">predictionComplete(Prediction)</text><!--class PredictionAlgorithmType--><rect fill="#FEFECE" filter="url(#ff7kr4qnpdzk0)" height="48" id="PredictionAlgorithmType" style="stroke: #A80036; stroke-width: 1.5;" width="183" x="1221.5" y="295"/><ellipse cx="1236.5" cy="311" fill="#EB937F" rx="11" ry="11" style="stroke: #A80036; stroke-width: 1.0;"/><path d="M1240.6094,317 L1232.8906,317 L1232.8906,304.6094 L1240.6094,304.6094 L1240.6094,306.7656 L1235.3438,306.7656 L1235.3438,309.4375 L1240.1094,309.4375 L1240.1094,311.5938 L1235.3438,311.5938 L1235.3438,314.8438 L1240.6094,314.8438 L1240.6094,317 Z "/><text fill="#000000" font-family="sans-serif" font-size="12" lengthAdjust="spacingAndGlyphs" textLength="151" x="1250.5" y="315.1543">PredictionAlgorithmType</text><line style="stroke: #A80036; stroke-width: 1.5;" x1="1222.5" x2="1403.5" y1="327" y2="327"/><line style="stroke: #A80036; stroke-width: 1.5;" x1="1222.5" x2="1403.5" y1="335" y2="335"/><!--class JavaPredictionAlgorithm--><rect fill="#FEFECE" filter="url(#ff7kr4qnpdzk0)" height="73.6094" id="JavaPredictionAlgorithm" style="stroke: #A80036; stroke-width: 1.5;" width="409" x="1551.5" y="97"/><ellipse cx="1678.25" cy="113" fill="#ADD1B2" rx="11" ry="11" style="stroke: #A80036; stroke-width: 1.0;"/><path d="M1681.2188,118.6406 Q1680.6406,118.9375 1680,119.0859 Q1679.3594,119.2344 1678.6563,119.2344 Q1676.1563,119.2344 1674.8359,117.5859 Q1673.5156,115.9375 1673.5156,112.8125 Q1673.5156,109.6875 1674.8359,108.0313 Q1676.1563,106.375 1678.6563,106.375 Q1679.3594,106.375 1680.0078,106.5313 Q1680.6563,106.6875 1681.2188,106.9844 L1681.2188,109.7031 Q1680.5938,109.125 1680,108.8516 Q1679.4063,108.5781 1678.7813,108.5781 Q1677.4375,108.5781 1676.75,109.6484 Q1676.0625,110.7188 1676.0625,112.8125 Q1676.0625,114.9063 1676.75,115.9766 Q1677.4375,117.0469 1678.7813,117.0469 Q1679.4063,117.0469 1680,116.7734 Q1680.5938,116.5 1681.2188,115.9219 L1681.2188,118.6406 Z "/><text fill="#000000" font-family="sans-serif" font-size="12" lengthAdjust="spacingAndGlyphs" textLength="147" x="1698.75" y="117.1543">JavaPredictionAlgorithm</text><line style="stroke: #A80036; stroke-width: 1.5;" x1="1552.5" x2="1959.5" y1="129" y2="129"/><line style="stroke: #A80036; stroke-width: 1.5;" x1="1552.5" x2="1959.5" y1="137" y2="137"/><ellipse cx="1562.5" cy="148.9023" fill="#84BE84" rx="3" ry="3" style="stroke: #038048; stroke-width: 1.0;"/><text fill="#000000" font-family="sans-serif" font-size="11" lengthAdjust="spacingAndGlyphs" textLength="383" x="1571.5" y="151.2104">static JavaPredictionAlgorithm getInstance(PredictionAlgorithmType)</text><ellipse cx="1562.5" cy="161.707" fill="#84BE84" rx="3" ry="3" style="stroke: #038048; stroke-width: 1.0;"/><text fill="#000000" font-family="sans-serif" font-size="11" lengthAdjust="spacingAndGlyphs" textLength="237" x="1571.5" y="164.0151">abstract Prediction makePrediction(Track)</text><!--class JavaPassthroughAlgorithm--><rect fill="#FEFECE" filter="url(#ff7kr4qnpdzk0)" height="48" id="JavaPassthroughAlgorithm" style="stroke: #A80036; stroke-width: 1.5;" width="196" x="1440" y="295"/><ellipse cx="1455" cy="311" fill="#ADD1B2" rx="11" ry="11" style="stroke: #A80036; stroke-width: 1.0;"/><path d="M1457.9688,316.6406 Q1457.3906,316.9375 1456.75,317.0859 Q1456.1094,317.2344 1455.4063,317.2344 Q1452.9063,317.2344 1451.5859,315.5859 Q1450.2656,313.9375 1450.2656,310.8125 Q1450.2656,307.6875 1451.5859,306.0313 Q1452.9063,304.375 1455.4063,304.375 Q1456.1094,304.375 1456.7578,304.5313 Q1457.4063,304.6875 1457.9688,304.9844 L1457.9688,307.7031 Q1457.3438,307.125 1456.75,306.8516 Q1456.1563,306.5781 1455.5313,306.5781 Q1454.1875,306.5781 1453.5,307.6484 Q1452.8125,308.7188 1452.8125,310.8125 Q1452.8125,312.9063 1453.5,313.9766 Q1454.1875,315.0469 1455.5313,315.0469 Q1456.1563,315.0469 1456.75,314.7734 Q1457.3438,314.5 1457.9688,313.9219 L1457.9688,316.6406 Z "/><text fill="#000000" font-family="sans-serif" font-size="12" lengthAdjust="spacingAndGlyphs" textLength="164" x="1469" y="315.1543">JavaPassthroughAlgorithm</text><line style="stroke: #A80036; stroke-width: 1.5;" x1="1441" x2="1635" y1="327" y2="327"/><line style="stroke: #A80036; stroke-width: 1.5;" x1="1441" x2="1635" y1="335" y2="335"/><!--class JavaLinear2dAlgorithm--><rect fill="#FEFECE" filter="url(#ff7kr4qnpdzk0)" height="48" id="JavaLinear2dAlgorithm" style="stroke: #A80036; stroke-width: 1.5;" width="170" x="1671" y="295"/><ellipse cx="1686" cy="311" fill="#ADD1B2" rx="11" ry="11" style="stroke: #A80036; stroke-width: 1.0;"/><path d="M1688.9688,316.6406 Q1688.3906,316.9375 1687.75,317.0859 Q1687.1094,317.2344 1686.4063,317.2344 Q1683.9063,317.2344 1682.5859,315.5859 Q1681.2656,313.9375 1681.2656,310.8125 Q1681.2656,307.6875 1682.5859,306.0313 Q1683.9063,304.375 1686.4063,304.375 Q1687.1094,304.375 1687.7578,304.5313 Q1688.4063,304.6875 1688.9688,304.9844 L1688.9688,307.7031 Q1688.3438,307.125 1687.75,306.8516 Q1687.1563,306.5781 1686.5313,306.5781 Q1685.1875,306.5781 1684.5,307.6484 Q1683.8125,308.7188 1683.8125,310.8125 Q1683.8125,312.9063 1684.5,313.9766 Q1685.1875,315.0469 1686.5313,315.0469 Q1687.1563,315.0469 1687.75,314.7734 Q1688.3438,314.5 1688.9688,313.9219 L1688.9688,316.6406 Z "/><text fill="#000000" font-family="sans-serif" font-size="12" lengthAdjust="spacingAndGlyphs" textLength="138" x="1700" y="315.1543">JavaLinear2dAlgorithm</text><line style="stroke: #A80036; stroke-width: 1.5;" x1="1672" x2="1840" y1="327" y2="327"/><line style="stroke: #A80036; stroke-width: 1.5;" x1="1672" x2="1840" y1="335" y2="335"/><!--class JavaCurvilinear2dAlgorithm--><rect fill="#FEFECE" filter="url(#ff7kr4qnpdzk0)" height="48" id="JavaCurvilinear2dAlgorithm" style="stroke: #A80036; stroke-width: 1.5;" width="197" x="1876.5" y="295"/><ellipse cx="1891.5" cy="311" fill="#ADD1B2" rx="11" ry="11" style="stroke: #A80036; stroke-width: 1.0;"/><path d="M1894.4688,316.6406 Q1893.8906,316.9375 1893.25,317.0859 Q1892.6094,317.2344 1891.9063,317.2344 Q1889.4063,317.2344 1888.0859,315.5859 Q1886.7656,313.9375 1886.7656,310.8125 Q1886.7656,307.6875 1888.0859,306.0313 Q1889.4063,304.375 1891.9063,304.375 Q1892.6094,304.375 1893.2578,304.5313 Q1893.9063,304.6875 1894.4688,304.9844 L1894.4688,307.7031 Q1893.8438,307.125 1893.25,306.8516 Q1892.6563,306.5781 1892.0313,306.5781 Q1890.6875,306.5781 1890,307.6484 Q1889.3125,308.7188 1889.3125,310.8125 Q1889.3125,312.9063 1890,313.9766 Q1890.6875,315.0469 1892.0313,315.0469 Q1892.6563,315.0469 1893.25,314.7734 Q1893.8438,314.5 1894.4688,313.9219 L1894.4688,316.6406 Z "/><text fill="#000000" font-family="sans-serif" font-size="12" lengthAdjust="spacingAndGlyphs" textLength="165" x="1905.5" y="315.1543">JavaCurvilinear2dAlgorithm</text><line style="stroke: #A80036; stroke-width: 1.5;" x1="1877.5" x2="2072.5" y1="327" y2="327"/><line style="stroke: #A80036; stroke-width: 1.5;" x1="1877.5" x2="2072.5" y1="335" y2="335"/><!--class JavaLinearAlgorithm--><rect fill="#FEFECE" filter="url(#ff7kr4qnpdzk0)" height="48" id="JavaLinearAlgorithm" style="stroke: #A80036; stroke-width: 1.5;" width="154" x="2109" y="295"/><ellipse cx="2124" cy="311" fill="#ADD1B2" rx="11" ry="11" style="stroke: #A80036; stroke-width: 1.0;"/><path d="M2126.9688,316.6406 Q2126.3906,316.9375 2125.75,317.0859 Q2125.1094,317.2344 2124.4063,317.2344 Q2121.9063,317.2344 2120.5859,315.5859 Q2119.2656,313.9375 2119.2656,310.8125 Q2119.2656,307.6875 2120.5859,306.0313 Q2121.9063,304.375 2124.4063,304.375 Q2125.1094,304.375 2125.7578,304.5313 Q2126.4063,304.6875 2126.9688,304.9844 L2126.9688,307.7031 Q2126.3438,307.125 2125.75,306.8516 Q2125.1563,306.5781 2124.5313,306.5781 Q2123.1875,306.5781 2122.5,307.6484 Q2121.8125,308.7188 2121.8125,310.8125 Q2121.8125,312.9063 2122.5,313.9766 Q2123.1875,315.0469 2124.5313,315.0469 Q2125.1563,315.0469 2125.75,314.7734 Q2126.3438,314.5 2126.9688,313.9219 L2126.9688,316.6406 Z "/><text fill="#000000" font-family="sans-serif" font-size="12" lengthAdjust="spacingAndGlyphs" textLength="122" x="2138" y="315.1543">JavaLinearAlgorithm</text><line style="stroke: #A80036; stroke-width: 1.5;" x1="2110" x2="2262" y1="327" y2="327"/><line style="stroke: #A80036; stroke-width: 1.5;" x1="2110" x2="2262" y1="335" y2="335"/><!--class OpenCLPredictionAlgorithm--><rect fill="#FEFECE" filter="url(#ff7kr4qnpdzk0)" height="48" id="OpenCLPredictionAlgorithm" style="stroke: #A80036; stroke-width: 1.5;" width="201" x="1214.5" y="110"/><ellipse cx="1229.5" cy="126" fill="#ADD1B2" rx="11" ry="11" style="stroke: #A80036; stroke-width: 1.0;"/><path d="M1232.4688,131.6406 Q1231.8906,131.9375 1231.25,132.0859 Q1230.6094,132.2344 1229.9063,132.2344 Q1227.4063,132.2344 1226.0859,130.5859 Q1224.7656,128.9375 1224.7656,125.8125 Q1224.7656,122.6875 1226.0859,121.0313 Q1227.4063,119.375 1229.9063,119.375 Q1230.6094,119.375 1231.2578,119.5313 Q1231.9063,119.6875 1232.4688,119.9844 L1232.4688,122.7031 Q1231.8438,122.125 1231.25,121.8516 Q1230.6563,121.5781 1230.0313,121.5781 Q1228.6875,121.5781 1228,122.6484 Q1227.3125,123.7188 1227.3125,125.8125 Q1227.3125,127.9063 1228,128.9766 Q1228.6875,130.0469 1230.0313,130.0469 Q1230.6563,130.0469 1231.25,129.7734 Q1231.8438,129.5 1232.4688,128.9219 L1232.4688,131.6406 Z "/><text fill="#000000" font-family="sans-serif" font-size="12" lengthAdjust="spacingAndGlyphs" textLength="169" x="1243.5" y="130.1543">OpenCLPredictionAlgorithm</text><line style="stroke: #A80036; stroke-width: 1.5;" x1="1215.5" x2="1414.5" y1="142" y2="142"/><line style="stroke: #A80036; stroke-width: 1.5;" x1="1215.5" x2="1414.5" y1="150" y2="150"/><!--class OpenCLUtils--><rect fill="#FEFECE" filter="url(#ff7kr4qnpdzk0)" height="48" id="OpenCLUtils" style="stroke: #A80036; stroke-width: 1.5;" width="106" x="1073" y="110"/><ellipse cx="1088" cy="126" fill="#ADD1B2" rx="11" ry="11" style="stroke: #A80036; stroke-width: 1.0;"/><path d="M1090.9688,131.6406 Q1090.3906,131.9375 1089.75,132.0859 Q1089.1094,132.2344 1088.4063,132.2344 Q1085.9063,132.2344 1084.5859,130.5859 Q1083.2656,128.9375 1083.2656,125.8125 Q1083.2656,122.6875 1084.5859,121.0313 Q1085.9063,119.375 1088.4063,119.375 Q1089.1094,119.375 1089.7578,119.5313 Q1090.4063,119.6875 1090.9688,119.9844 L1090.9688,122.7031 Q1090.3438,122.125 1089.75,121.8516 Q1089.1563,121.5781 1088.5313,121.5781 Q1087.1875,121.5781 1086.5,122.6484 Q1085.8125,123.7188 1085.8125,125.8125 Q1085.8125,127.9063 1086.5,128.9766 Q1087.1875,130.0469 1088.5313,130.0469 Q1089.1563,130.0469 1089.75,129.7734 Q1090.3438,129.5 1090.9688,128.9219 L1090.9688,131.6406 Z "/><text fill="#000000" font-family="sans-serif" font-size="12" lengthAdjust="spacingAndGlyphs" textLength="74" x="1102" y="130.1543">OpenCLUtils</text><line style="stroke: #A80036; stroke-width: 1.5;" x1="1074" x2="1178" y1="142" y2="142"/><line style="stroke: #A80036; stroke-width: 1.5;" x1="1074" x2="1178" y1="150" y2="150"/><!--class PredictionWorkerThread--><rect fill="#FEFECE" filter="url(#ff7kr4qnpdzk0)" height="73.6094" id="PredictionWorkerThread" style="stroke: #A80036; stroke-width: 1.5;" width="307" x="567.5" y="97"/><ellipse cx="641.25" cy="113" fill="#ADD1B2" rx="11" ry="11" style="stroke: #A80036; stroke-width: 1.0;"/><path d="M644.2188,118.6406 Q643.6406,118.9375 643,119.0859 Q642.3594,119.2344 641.6563,119.2344 Q639.1563,119.2344 637.8359,117.5859 Q636.5156,115.9375 636.5156,112.8125 Q636.5156,109.6875 637.8359,108.0313 Q639.1563,106.375 641.6563,106.375 Q642.3594,106.375 643.0078,106.5313 Q643.6563,106.6875 644.2188,106.9844 L644.2188,109.7031 Q643.5938,109.125 643,108.8516 Q642.4063,108.5781 641.7813,108.5781 Q640.4375,108.5781 639.75,109.6484 Q639.0625,110.7188 639.0625,112.8125 Q639.0625,114.9063 639.75,115.9766 Q640.4375,117.0469 641.7813,117.0469 Q642.4063,117.0469 643,116.7734 Q643.5938,116.5 644.2188,115.9219 L644.2188,118.6406 Z "/><text fill="#000000" font-family="sans-serif" font-size="12" lengthAdjust="spacingAndGlyphs" textLength="151" x="661.75" y="117.1543">PredictionWorkerThread</text><line style="stroke: #A80036; stroke-width: 1.5;" x1="568.5" x2="873.5" y1="129" y2="129"/><line style="stroke: #A80036; stroke-width: 1.5;" x1="568.5" x2="873.5" y1="137" y2="137"/><text fill="#000000" font-family="sans-serif" font-size="11" lengthAdjust="spacingAndGlyphs" textLength="295" x="573.5" y="151.2104">PredictionWorkerThread(workerID, predictionEngine)</text><text fill="#000000" font-family="sans-serif" font-size="11" lengthAdjust="spacingAndGlyphs" textLength="62" x="573.5" y="164.0151">void start()</text><!--class JavaPredictionWorkerThread--><rect fill="#FEFECE" filter="url(#ff7kr4qnpdzk0)" height="48" id="JavaPredictionWorkerThread" style="stroke: #A80036; stroke-width: 1.5;" width="208" x="568" y="295"/><ellipse cx="583" cy="311" fill="#ADD1B2" rx="11" ry="11" style="stroke: #A80036; stroke-width: 1.0;"/><path d="M585.9688,316.6406 Q585.3906,316.9375 584.75,317.0859 Q584.1094,317.2344 583.4063,317.2344 Q580.9063,317.2344 579.5859,315.5859 Q578.2656,313.9375 578.2656,310.8125 Q578.2656,307.6875 579.5859,306.0313 Q580.9063,304.375 583.4063,304.375 Q584.1094,304.375 584.7578,304.5313 Q585.4063,304.6875 585.9688,304.9844 L585.9688,307.7031 Q585.3438,307.125 584.75,306.8516 Q584.1563,306.5781 583.5313,306.5781 Q582.1875,306.5781 581.5,307.6484 Q580.8125,308.7188 580.8125,310.8125 Q580.8125,312.9063 581.5,313.9766 Q582.1875,315.0469 583.5313,315.0469 Q584.1563,315.0469 584.75,314.7734 Q585.3438,314.5 585.9688,313.9219 L585.9688,316.6406 Z "/><text fill="#000000" font-family="sans-serif" font-size="12" lengthAdjust="spacingAndGlyphs" textLength="176" x="597" y="315.1543">JavaPredictionWorkerThread</text><line style="stroke: #A80036; stroke-width: 1.5;" x1="569" x2="775" y1="327" y2="327"/><line style="stroke: #A80036; stroke-width: 1.5;" x1="569" x2="775" y1="335" y2="335"/><!--class OpenCLPredictionWorkerThread--><rect fill="#FEFECE" filter="url(#ff7kr4qnpdzk0)" height="48" id="OpenCLPredictionWorkerThread" style="stroke: #A80036; stroke-width: 1.5;" width="230" x="811" y="295"/><ellipse cx="826" cy="311" fill="#ADD1B2" rx="11" ry="11" style="stroke: #A80036; stroke-width: 1.0;"/><path d="M828.9688,316.6406 Q828.3906,316.9375 827.75,317.0859 Q827.1094,317.2344 826.4063,317.2344 Q823.9063,317.2344 822.5859,315.5859 Q821.2656,313.9375 821.2656,310.8125 Q821.2656,307.6875 822.5859,306.0313 Q823.9063,304.375 826.4063,304.375 Q827.1094,304.375 827.7578,304.5313 Q828.4063,304.6875 828.9688,304.9844 L828.9688,307.7031 Q828.3438,307.125 827.75,306.8516 Q827.1563,306.5781 826.5313,306.5781 Q825.1875,306.5781 824.5,307.6484 Q823.8125,308.7188 823.8125,310.8125 Q823.8125,312.9063 824.5,313.9766 Q825.1875,315.0469 826.5313,315.0469 Q827.1563,315.0469 827.75,314.7734 Q828.3438,314.5 828.9688,313.9219 L828.9688,316.6406 Z "/><text fill="#000000" font-family="sans-serif" font-size="12" lengthAdjust="spacingAndGlyphs" textLength="198" x="840" y="315.1543">OpenCLPredictionWorkerThread</text><line style="stroke: #A80036; stroke-width: 1.5;" x1="812" x2="1040" y1="327" y2="327"/><line style="stroke: #A80036; stroke-width: 1.5;" x1="812" x2="1040" y1="335" y2="335"/><!--link JavaPredictionAlgorithm to JavaPassthroughAlgorithm--><path d="M1696.6347,184.3788 C1654.3532,220.2599 1599.4021,266.8927 1566.5185,294.7985 " fill="none" id="JavaPredictionAlgorithm-JavaPassthroughAlgorithm" style="stroke: #A80036; stroke-width: 1.0;"/><polygon fill="none" points="1692.3682,178.8186,1712.1467,171.215,1701.4268,189.493,1692.3682,178.8186" style="stroke: #A80036; stroke-width: 1.0;"/><!--link JavaPredictionAlgorithm to JavaLinear2dAlgorithm--><path d="M1756,191.8477 C1756,226.5498 1756,268.8581 1756,294.859 " fill="none" id="JavaPredictionAlgorithm-JavaLinear2dAlgorithm" style="stroke: #A80036; stroke-width: 1.0;"/><polygon fill="none" points="1749.0001,191.4375,1756,171.4375,1763.0001,191.4375,1749.0001,191.4375" style="stroke: #A80036; stroke-width: 1.0;"/><!--link JavaPredictionAlgorithm to JavaCurvilinear2dAlgorithm--><path d="M1815.3572,184.1419 C1857.8698,220.0544 1913.2434,266.8312 1946.3507,294.7985 " fill="none" id="JavaPredictionAlgorithm-JavaCurvilinear2dAlgorithm" style="stroke: #A80036; stroke-width: 1.0;"/><polygon fill="none" points="1810.8156,189.4688,1800.0545,171.215,1819.85,178.7739,1810.8156,189.4688" style="stroke: #A80036; stroke-width: 1.0;"/><!--link JavaPredictionAlgorithm to JavaLinearAlgorithm--><path d="M1960.6198,176.8669 C2005.1953,190.6272 2050.9642,208.3682 2091,231 C2120.3568,247.5951 2147.9268,274.9552 2165.725,294.7676 " fill="none" id="JavaPredictionAlgorithm-JavaLinearAlgorithm" style="stroke: #A80036; stroke-width: 1.0;"/><polygon fill="none" points="1958.4466,183.5237,1941.2711,171.1139,1962.4367,170.1043,1958.4466,183.5237" style="stroke: #A80036; stroke-width: 1.0;"/><!--link JavaPredictionAlgorithm to PredictionAlgorithmType--><path d="M1569.9466,174.7044 C1521.0014,189.0422 1469.2638,207.5906 1424,231 C1391.2343,247.9456 1358.7571,275.2455 1337.4795,294.9479 " fill="none" id="JavaPredictionAlgorithm-PredictionAlgorithmType" style="stroke: #A80036; stroke-width: 1.0;"/><polygon fill="#FFFFFF" points="1582.6589,171.0554,1575.7882,168.8661,1571.1247,174.3662,1577.9954,176.5555,1582.6589,171.0554" style="stroke: #A80036; stroke-width: 1.0;"/><!--link OpenCLPredictionAlgorithm to PredictionAlgorithmType--><path d="M1314.5966,171.3115 C1314.1985,208.1397 1313.6014,263.3668 1313.2615,294.8085 " fill="none" id="OpenCLPredictionAlgorithm-PredictionAlgorithmType" style="stroke: #A80036; stroke-width: 1.0;"/><polygon fill="#FFFFFF" points="1314.7385,158.1855,1310.6738,164.1419,1314.6086,170.1848,1318.6733,164.2284,1314.7385,158.1855" style="stroke: #A80036; stroke-width: 1.0;"/><!--link PredictionWorkerThread to JavaPredictionWorkerThread--><path d="M705.9378,190.8676 C696.6986,225.75 685.3458,268.6129 678.3941,294.859 " fill="none" id="PredictionWorkerThread-JavaPredictionWorkerThread" style="stroke: #A80036; stroke-width: 1.0;"/><polygon fill="none" points="699.1966,188.9786,711.0841,171.4375,712.73,192.5631,699.1966,188.9786" style="stroke: #A80036; stroke-width: 1.0;"/><!--link PredictionWorkerThread to OpenCLPredictionWorkerThread--><path d="M777.338,184.8416 C817.0575,220.686 868.4668,267.0798 899.2491,294.859 " fill="none" id="PredictionWorkerThread-OpenCLPredictionWorkerThread" style="stroke: #A80036; stroke-width: 1.0;"/><polygon fill="none" points="772.6429,190.0336,762.4848,171.4375,782.0225,179.6401,772.6429,190.0336" style="stroke: #A80036; stroke-width: 1.0;"/><!--link PredictionWorkerThread to PredictionWorkItem--><path d="M627.1342,177.5848 C597.2496,193.9968 564.449,213.0385 535,231 C534.3998,231.3661 533.7983,231.7334 533.1956,232.102 " fill="none" id="PredictionWorkerThread-PredictionWorkItem" style="stroke: #A80036; stroke-width: 1.0;"/><polygon fill="#FFFFFF" points="638.8664,171.1967,631.6841,170.5529,628.3274,176.9351,635.5097,177.5789,638.8664,171.1967" style="stroke: #A80036; stroke-width: 1.0;"/><!--link PredictionWorkItem to PredictionWorkerThread--><path d="M544.1182,247.0169 C552.8718,241.542 561.5592,236.1482 570,231 C603.3582,210.6542 641.0168,188.9224 670.652,171.1967 " fill="none" id="PredictionWorkItem-PredictionWorkerThread" style="stroke: #A80036; stroke-width: 1.0;"/><polygon fill="#FFFFFF" points="533.0085,253.9828,540.2168,254.1844,543.1753,247.6081,535.967,247.4065,533.0085,253.9828" style="stroke: #A80036; stroke-width: 1.0;"/><!--link PredictionWorkerThread to PredictionEngine--><path d="M554.0359,134 C546.9237,134 539.8115,134 532.6992,134 " fill="none" id="PredictionWorkerThread-PredictionEngine" style="stroke: #A80036; stroke-width: 1.0;"/><polygon fill="#FFFFFF" points="567.2701,134,561.2701,130,555.2701,134,561.2701,138,567.2701,134" style="stroke: #A80036; stroke-width: 1.0;"/><!--link PredictionEngine to PredictionWorkItem--><path d="M412.3671,184.584 C412.7541,198.9027 413.187,214.9207 413.6154,230.7711 " fill="none" id="PredictionEngine-PredictionWorkItem" style="stroke: #A80036; stroke-width: 1.0;"/><polygon fill="#A80036" points="412.0118,171.4375,408.1754,177.5434,412.3361,183.4331,416.1725,177.3272,412.0118,171.4375" style="stroke: #A80036; stroke-width: 1.0;"/><!--link PredictionEngine to PredictionEngineListener--><path d="M346.3875,178.6019 C300.6288,210.1891 239.9618,252.0674 196.8253,281.8445 " fill="none" id="PredictionEngine-PredictionEngineListener" style="stroke: #A80036; stroke-width: 1.0;"/><polygon fill="#FFFFFF" points="357.0886,171.215,349.8784,171.3317,347.2131,178.0321,354.4232,177.9154,357.0886,171.215" style="stroke: #A80036; stroke-width: 1.0;"/><!--
@startuml

package "Engine" as PredictionPackage {
  package "Algorithms" as AlgorithmsPackage {
    package "Java" as JavaAlgorithmsPackage {
      class JavaPredictionAlgorithm {
        +static JavaPredictionAlgorithm getInstance(PredictionAlgorithmType)
        +abstract Prediction makePrediction(Track)
      }
      class JavaPassthroughAlgorithm
      class JavaLinear2dAlgorithm
      class JavaCurvilinear2dAlgorithm
      class JavaLinearAlgorithm

      JavaPredictionAlgorithm <|- - JavaPassthroughAlgorithm
      JavaPredictionAlgorithm <|- - JavaLinear2dAlgorithm
      JavaPredictionAlgorithm <|- - JavaCurvilinear2dAlgorithm
      JavaPredictionAlgorithm <|- - JavaLinearAlgorithm
    }

    package "OpenCL" as OpenCLAlgorithmsPackage {
      class OpenCLPredictionAlgorithm
      class OpenCLUtils
    }

    enum PredictionAlgorithmType {

    }

    JavaPredictionAlgorithm o- - PredictionAlgorithmType
    OpenCLPredictionAlgorithm o- - PredictionAlgorithmType

  }

  package "Workers" as WorkersPackage {
    class PredictionWorkerThread {
      PredictionWorkerThread(workerID, predictionEngine)
      void start()
    }
    class JavaPredictionWorkerThread
    class OpenCLPredictionWorkerThread

    PredictionWorkerThread <|- - JavaPredictionWorkerThread
    PredictionWorkerThread <|- - OpenCLPredictionWorkerThread
  }

  class PredictionWorkItem {
    String aircraftID
    Track aircraftTrack
    Prediction prediction
    Calendar timeCreated
    Calendar timeStarted
    Calendar timeCompleted
    boolean started
    boolean completed
    PredictionWorker worker
    PredictionAlgorithmType algorithmType
  }

  class PredictionEngine {
    Queue<PredictionWorkItem> todoQueue
    ArrayList<PredictionWorkItem> doingList
  }

  interface PredictionEngineListener {
    +workItemOverdue(PredictionWorkItem)
    +predictionComplete(Prediction)
  }

  PredictionWorkerThread o- - PredictionWorkItem
  PredictionWorkerThread o- - PredictionEngine
  PredictionWorkItem o- - PredictionWorkerThread
  PredictionEngine *- - PredictionWorkItem
  PredictionEngine o- - PredictionEngineListener
}

@enduml

PlantUML version 1.2018.05(Sun May 06 06:00:17 AEST 2018)
(GPL source distribution)
Java Runtime: OpenJDK Runtime Environment
JVM: OpenJDK 64-Bit Server VM
Java Version: 1.8.0_162-b12
Operating System: Linux
OS Version: 4.16.3-1-ARCH
Default Encoding: UTF-8
Language: en
Country: US
--></g></svg>